<?xml version="1.0" encoding="UTF-8"?>
<svg id="Layer_2" data-name="Layer 2" xmlns="http://www.w3.org/2000/svg" viewBox="0 0 313.2 319.2">
  <defs>
    <style>
      .cls-1 {
        fill: #d9df2d;
        stroke: #fff;
        stroke-miterlimit: 10;
        stroke-width: .5px;
      }

      .cls-2 {
        fill: #fff;
      }
    </style>
  </defs>
  <g id="USA_Base" data-name="USA Base">
    <g id="DANVER_MAP" data-name="DANVER MAP">
      <g>
        <polygon class="cls-1" points="257.13 93.31 257.31 93.91 256.85 94.78 255.54 95.24 252.87 95.2 251.14 94.86 250.35 94.23 250.17 93.91 250.25 93.21 250.63 93.17 251.2 93.55 252.06 93.39 253.19 92.68 253.79 92.14 253.85 91.78 253.49 91.11 253.79 90.83 255.2 91.09 255.72 91.52 256.67 93.04 257.13 93.31 257.13 93.31"/>
        <polygon class="cls-1" points="191.86 113.9 191.53 114.24 190.95 114.02 190.73 114.52 190.85 115.73 190.65 116.29 190.13 116.19 190.11 116.41 190.57 116.94 190.61 117.54 190.25 118.17 189.92 118.47 189.58 118.43 189.06 119.17 188.37 120.68 188.13 121.55 188.35 121.79 188.19 122.29 186.46 124.57 185.8 124.79 185.07 124.47 184.55 123.8 184.25 122.78 184.17 121.99 184.29 121.43 185.8 119.41 186.48 118.07 186.86 116.58 187.55 115.63 188.58 115.21 189.42 114.28 190.05 112.83 190.79 112.19 191.62 112.37 191.98 112.93 191.86 113.9 191.86 113.9"/>
        <path id="US-IA" class="cls-1" d="M123.42,184.47l1.13,1.73,1.97,1.55,1.11,1.45.28,1.35,1.19,1.45,2.13,1.53,1.23,1.35.34,1.17-.06,1.81-.46,2.44-.78,1.77-1.09,1.07-.79,1.51-.54,1.95-1.67,1.77-2.8,1.65-3.14,1.11-3.44.6-2.05,1.41-.64,2.21.28,1.83,1.23,1.49.7,1.57.18,1.65-.85,2.74-1.91,3.82-2.13,2.46-2.31,1.11-1.03,1.65.26,2.19-.2,1.23-.95.44-1.65-1.29-.3-.91-1.33-.91-.2-.58-1.01-.52-.93-1.79-4.71.04-4.73.02-4.71.04-4.73.04-4.71.04-4.73.02-4.71.04-4.71.04-4.73.04-4.71.04-4.73.02-4.71.04-4.73.04-4.71.04-4.73.04-4.67.02-1.13-1.83-.62-1.69.38-.81.08-2.74-.22-4.71-.46-2.66-.68-.6-.08-.83.52-1.03-.16-.72-.83-.38-.26-.89.32-1.45-.2-.87-.72-.32-.28-.5.12-.68-.4-.42-.87-.2-.36-1.63.16-3.08-.32-2.17-.83-1.29-.44-1.19v-1.13l-.87-1.77-1.77-2.42-1.13-3.22-.52-3.97-1.25-2.23-.58-.12-.48-2.09-.5-.93-.1-.72-1.55-1.81-.1-.7.2-.87,1.01-1.71.91-2.8.2-1.89.76-1.43.02-.78-.14-1.03-.4-.91-1.23-.66-.14-.3-.12-1.03.5-.66.16-.74-.14-.91-.74-1.57-.32-1.61,2.7-.1h24.34l6.08-.02h60.83l6.18-.02.14,1.61.36,1.15.76.93,1.15.7.18,1.37-.76,2.01-.26,2.48.24,2.96.58,2.66.89,2.36,2.07,1.73,3.2,1.11,1.89,1.67.56,2.29.14.18Z"/>
        <path id="US-IL" class="cls-1" d="M176.52,184.89l-.02,3.93.3,3.26.56,1.45.66,1.07.7.68.81,2.11.91,3.54.85,2.33.68.95-.04,6.66-.02,7.43-.02,7.41-.04,7.35-.02,7.35-.02,7.29-.04,7.27-.02,6.84v.12l-.87.74-.6,1.27.16,1.37-.24.97-.6.6.3,1.49,1.17,2.38.72,2.36.24,2.33-.22,1.65-1.01,1.51-.97,3.26-.83,1.29-1.03.44-.91,1.21-.79,1.99-.85.95-.91-.06-.68.38-.44.78.06.81.54.87-.18.79-.89.74.02.36.28.22-.1.34-.58.36-.34,1.09.04,1.81-.32.91-.6.04-.08.5.99,2.05-.58.42-1.03,1.69-.22,1.85.62,2.03-1.55,1.65-3.74,1.23-1.97,1.11-.22.95.26,1.45.74,1.95.14,1.35-.48.76-2.66-.52-4.85-1.77-3.24.06-1.65,1.89-.58,1.43.2,1.15-1.31-1.41-.89-.64-.16.04-.2.18-.08.44.06.32.12.36-.06.22-.22.02-.95-.54-1.15-1.57-1.37-2.58-.3-2.05.78-1.53v-1.59l-.78-1.69-.38-1.65v-1.61l-1.87-2.42-3.74-3.22-2.74-2.01-1.77-.76-2.05-1.61-2.35-2.48-1.25-1.91-.16-1.31,1.07-3.52,3.1-7.71.36-.89.1-.34-.14-.34-.3-.32-1.31-.91-2.5-.78-2.33-.42-1.85.91-1.61-1.87-1.39-4.67-3.4-4.93-5.45-5.21-3.16-3.56-.87-1.87-.78-2.82-.64-3.78.02-3.12,1.09-3.76.95-.44.2-1.23-.26-2.19,1.03-1.65,2.31-1.11,2.13-2.46,1.91-3.82.85-2.74-.18-1.65-.7-1.57-1.23-1.49-.28-1.83.64-2.21,2.05-1.41,3.44-.6,3.14-1.11,2.8-1.65,1.67-1.77.54-1.95.79-1.51,1.09-1.07.78-1.77.46-2.44.06-1.81-.34-1.17-1.23-1.35-2.13-1.53-1.19-1.45-.28-1.35-1.11-1.45-1.97-1.55-1.13-1.73,8.59.08,8.43.06,8.43.06,8.43.06,8.43.08,8.43.06,2.38.02Z"/>
        <path id="US-IN" class="cls-1" d="M232.94,204.86l-.06,8.11-.08,8.07-.06,8.01-.06,7.99-.06,7.95-.06,7.89-.08,7.87-.02,7.99-.3.22-.44,1.03.48,1.05-.02.85-.52.66.18.48.87.32.34.76-.2,1.17-1.89,1.17-3.6,1.35-.79.38-.64.18-.3-.08h0l-.48-.26-.66-.54-1.13-.26-1.85.18-.74,1.11.38,2.07-.64,1.59-1.63,1.09-1.17,1.45-.7,1.81-1.13,1.09-1.53.38-1.25,1.67-.95,2.94-1.03,1.81-1.11.72-1.55-.18-1.95-1.07-1.11-1.07-.3-1.13-.58-.79-.54-.36h-.36l-.02.16.16.32-.2.34-1.21.12-.52.46.18.81-.28.56-.7.34-.38.78-.04,1.21-.5,1.11-.93.99-1.39-.34-1.81-1.67-1.85-.4-1.89.91-1.39,1.21-.93,1.53-.87.38-1.29-1.17-3.04-1.61-1.59-.34-1.15.38-.79-.18-.28-.44-.22-.18-.22.22-.02,1.41-.28.87-.52.38-.4-.3-.28-.95-.66-.32-1.03.34-1.05-.14-.91-.58-.34.06-.26.28.08,1.09-.2.87-.48.58-.68.14-.89-.3-.38.28-.99-2.05.08-.5.6-.04.32-.91-.04-1.81.34-1.09.58-.36.1-.34-.28-.22-.02-.36.89-.74.18-.79-.54-.87-.06-.81.44-.78.68-.38.91.06.85-.95.79-1.99.91-1.21,1.03-.44.83-1.29.97-3.26,1.01-1.51.22-1.65-.24-2.33-.72-2.36-1.17-2.38-.3-1.49.6-.6.24-.97-.16-1.37.6-1.27.87-.74v-.12l.02-6.84.04-7.27.02-7.29.02-7.35.04-7.35.02-7.41.02-7.43.04-6.66.12.18.7.64.56.36.42.06.24.56,1.05.32,1.93.14,1.77-.22,1.61-.58,3.93-2.27h10.29l5.66.02h22.69v1.45Z"/>
        <polygon class="cls-1" points="160.82 60.11 159.61 60.78 157.48 62.47 156.03 63.96 155.26 65.27 154.12 66.03 152.61 66.21 151.4 66.76 149.26 68.69 147.65 69.68 145 70.4 141.29 70.86 138.19 72.11 135.7 74.16 132.7 75.88 129.18 77.3 127.95 77.55 127.85 77.77 128.23 78.77 129.18 78.51 129.6 79.1 130.18 79.36 131.25 79.84 131.77 80.97 132.28 82.1 132.8 83.24 133.32 84.37 135.66 85.03 138.01 85.68 140.35 86.34 142.7 86.99 145.04 87.65 147.39 88.31 149.73 88.96 152.08 89.62 153.39 90.37 154.7 91.13 156.01 91.88 157.32 92.64 159.39 92.78 161.22 93.23 163.78 93.25 166.37 93.83 170.16 95.08 171.06 96.16 171.22 96.87 170.84 98.54 174.45 100.03 176 101.14 176.58 102 176.48 102.77 176.84 104.4 176.46 105.28 176.46 106.81 175.65 108.42 175.37 109.29 175.35 110.03 175.53 110.5 175.96 110.68 177.34 110.58 178.69 110.09 179.28 110.38 179.4 110.64 179.3 111.08 178.21 113.8 178.25 114.9 178.71 115.97 179.46 117 180.36 117.36 180.42 116.09 180.6 115.53 180.99 115.29 182.21 113.64 184.21 110.58 186.02 107.4 187.63 104.12 188.8 102.28 189.54 101.86 190.09 100.86 190.95 97.8 191.59 96.39 192 95.86 192.22 96.19 191.8 97.88 191.8 99.28 192.14 101.04 192.82 101.66 193.83 101.1 194.71 99.93 195.44 98.14 196.28 97.41 197.23 97.73 198.02 97.61 198.64 97.07 199.83 96.81 200.05 97.49 199.91 98.84 199.53 99.49 198.92 99.45 198.22 100.17 197.45 101.66 197.49 102.83 198.34 103.71 198.76 103.75 198.76 102.97 199.16 102.18 200.41 100.73 200.53 100.25 202.91 98.98 203.81 98.16 204.05 97.23 205.3 95.32 206.47 94.7 208.08 94.45 209.63 94.61 211.14 95.2 211.99 95.18 212.19 94.57 213.49 94.15 215.85 93.93 217.6 93.05 218.71 91.5 220.14 90.71 221.87 90.69 224.24 91.25 227.22 92.38 229.62 93.91 232.8 96.99 233.64 97.31 234.19 97.35 234.45 97.11 234.47 96.81 234.23 96.45 234.39 95.14 234.25 94.76 235.19 92.74 236 92.22 236.94 92.42 237.53 92.86 237.77 93.53 238.07 93.77 238.64 93.79 238.96 93.89 239.16 93.83 239.46 93.45 241.45 93.61 248.22 94.64 249.16 94.49 249.69 94.13 249.81 93.57 249.38 93.05 247.61 91.96 247.07 91.25 246.93 90.57 247.19 89.93 246.81 89.36 245.8 88.84 243.59 88.7 243.2 88.19 243.37 87.67 244.03 87.01 244.05 86.04 243.85 85.48 243.55 83.81 243.08 82.68 242.1 81.01 241.7 80.42 241.13 80.06 241.13 80.06 240.65 79.96 239.96 80.28 239.14 80.99 237.99 81.75 236.82 81.55 236 80.5 234.83 80.28 233.3 80.87 231.95 80.85 230.78 80.2 228.53 79.88 228.27 79.38 228.31 78.87 228.67 78.33 228.87 77.04 228.91 74.99 229.21 73.54 229.78 72.7 228.91 72.35 226.58 72.51 223.92 73.2 220.92 74.45 217.66 74.89 214.14 74.51 211.48 74.57 208.52 75.19 208 74.99 206.15 75.82 202.95 77.69 200.55 79.4 198.56 81.33 198.26 81.35 197.79 80.91 196.77 80.32 195.7 80.3 194.55 80.85 193.39 80.5 192.22 79.22 191.15 78.87 190.17 79.42 188.58 79.68 185.09 79.38 184.71 78.96 184.39 77.59 184.01 77 183.34 76.58 182.25 75.05 179.84 71.15 179.18 70.7 177.22 69.49 175.35 68.95 170.64 68.19 169.63 67.66 169.01 67.76 165.89 69.86 165.75 70.32 165.57 70.78 165.06 71.51 164.64 71.85 164.38 71.51 164.12 70.9 164.16 69.55 164.5 67.46 165.47 66.07 165.47 66.07 166.31 64.58 168.57 62.23 168.51 61.7 168.85 60.8 168.85 60.8 172.67 57.78 173.42 56.85 173.26 56.49 172.45 55.99 172.57 55.83 176.88 55.32 177.81 54.7 176.84 53.77 175.27 53.31 173.08 53.31 170.92 53.63 166.98 55.04 165.59 55.93 162.45 59.13 160.82 60.11"/>
        <polygon class="cls-1" points="233.58 99.24 234.91 99.73 237.31 101.38 239.58 102.34 241.72 102.61 243.29 103.19 244.29 104.08 245 105.08 245.44 106.17 246.47 106.79 248.08 106.93 249.36 107.38 250.29 108.18 255.44 110.23 257.58 111.3 258.78 112.35 259.11 113.03 259.01 113.7 259.13 114.42 260.01 115.81 260.35 115.93 260.54 116.6 260.62 117.82 260.88 118.63 261.32 119.05 261.06 119.21 259.47 118.51 258.58 118.73 258.16 119.64 258.1 120.5 258.4 121.31 260.43 123.74 260.96 125.94 261.06 128.61 260.8 129.64 260.58 131.93 260.43 135.46 260.39 136.68 259.71 137.85 257.9 139.54 257.88 139.22 257.44 139.14 256.97 139.4 256.31 140.85 255.75 143.49 255.08 144.92 254.28 145.14 253.81 145.52 253.65 146.06 252.79 146.41 251.22 146.59 250.15 147.39 249.36 149.63 249.4 150.71 249.02 152.04 249.04 153.19 249.46 154.14 250.73 155.1 252.83 156.05 254.09 156.19 254.96 155.79 255.87 154.22 256.75 153.61 257.82 153.35 258.22 152.63 259.99 149.51 259.99 148.82 259.35 148.56 259.45 148.36 260.29 148.24 261 147.82 261.62 147.11 262.69 146.57 265.31 145.76 266.72 144.82 267.62 144.66 268.91 145.16 270.6 146.31 271.93 147.98 272.93 150.17 274.18 155.83 275.69 164.94 276.72 170 277.28 171.08 277.56 171.61 276.22 178.69 275.15 181.59 273.28 183.28 271.43 184.91 269.13 187.65 266.59 189 265.29 189.8 265.02 190.31 264.7 190.15 264 191.64 263.39 193.69 263.15 195.26 263.37 196.14 262.83 196.69 261.88 197.73 261.7 198.1 261.76 198.72 261.56 199.02 261.1 199 260.74 199.3 259.89 200.39 258.4 203.23 258.16 203.75 257.98 203.91 251.76 204.15 245.54 204.38 239.32 204.62 233.1 204.86 233.1 203.41 227.44 203.41 221.77 203.41 216.11 203.41 210.44 203.41 204.78 203.41 199.12 203.41 194.49 203.41 195.7 202.71 197.69 201.08 198.8 199.63 199.87 197.73 200.91 195.36 203.01 191.8 204.05 189.66 205.04 186.92 205.79 184.05 206.29 181.05 206.53 177.93 206.51 174.69 206.01 171.43 205.04 168.14 204.5 166.45 204.3 165.99 202.54 161.76 200.53 155.83 200.55 155.34 202.42 151.8 202.46 151.32 202.26 148.44 201.86 146.99 200.91 145.04 200.95 144.55 202.89 142.06 204.07 140.17 205.12 137.87 205.81 135.19 206.13 132.11 206.13 130.06 205.79 129.03 205.83 128.23 206.25 127.67 208.34 126.96 209.03 125.75 209.19 123.6 209.61 122.53 210.31 122.55 210.96 122.11 211.56 121.22 212.35 120.96 213.35 121.35 214.72 120.02 216.49 116.96 217.84 115.25 218.79 114.9 218.97 115.17 218.37 116.09 218.2 117.1 218.43 118.19 218.24 119.25 217.8 120.7 218.08 121.16 217.32 123.48 217.28 124.63 217.74 125.51 218.3 125.21 218.93 123.72 219.13 122.92 218.87 122.83 218.97 122.19 219.41 121.02 219.81 120.46 220.14 120.52 220.24 121.16 220.08 122.37 219.07 125.25 218.87 126.12 219.09 126.36 220.3 124.57 221.32 121.71 222.09 119.51 222.23 118.31 221.99 115.21 222.03 113.94 222.33 113.07 223.38 112.07 225.19 110.96 226.98 110.36 228.75 110.29 229.98 109.99 230.68 109.45 230.44 109.03 229.25 108.72 228.35 108.02 227.73 106.95 227.54 105.71 227.73 104.32 228.49 102.95 229.8 101.62 230.22 100.63 229.74 99.99 230.3 99.77 231.91 99.95 233.02 99.77 233.66 99.24 233.58 99.24 233.58 99.24"/>
        <path id="US-MN" class="cls-1" d="M72.39,21.69l2.25-.34,1.93.1,1.93.16,1.03.24,2.98,1.23,1.95,1.01,2.8,1.89,1.55.83.74,1.95.87,2.5h1.23l.93-1.47,2.36-.26,3.12,1.03,2.74,2.92,3.95,2.6,2.4,1.29h2.44l3.12-1.29,3.32-2.48,2.38-.44,1.41.24.79,1.95.99.74,2.56-.22,5.37.38,4.27-.54.97,1.11.87,1.75,1.73.56,2.35-.56,3.7.38-.52.28-.54-.06-.72.42-.89.89-2.05,1.27-3.2,1.67-3.7,1.51-7.49,2.74-4.67,2.84-2.07,1.71-8.03,8.51-4.85,4.51-7.85,6.32-.74.79-.06.74-.34-.02-1.29,1.53-.56.97-1.27.28v15.58l-.62.4-.78.91-1.07.22-5.05,3.18-.83.91-.91,2.13-1.65,2.38-.42,1.27.08,1.71,2.52,1.37.93,1.31.46,1.61-.06,1.39-1.27,2.72-.22,1.09.14,3.32-.64,1.03.52,2.68.04.93-.4,2.94-.28.85.5,1.53.06.16,2.36,2.11,1.99,1.17,1.79.38,1.39.89,1.01,1.43,1.35.93,1.71.44,1.75,1.19,2.66,2.9,1.33,2.46,2.33,1.75,3.78,1.87,2.46,1.65,1.17,1.41.78,3.6.62,7.59-6.18.02H14.77v-46.86l-1.43-1.97-3.12-1.59-.78-.95-1.45-2.38-.58-1.01-.1-.79.7-.89,2.82-2.58.89-1.19.44-1.15.66-2.66-.26-2.05.18-3.2-.58-2.4-.12-1.19-.36-1.49-2.13-3.93-.52-3.18-.54-1.57-.18-4.05.06-1.15.42-2.21-.89-1.49-.14-1.23-.42-9.74-.28-1.39.08-4.53-1.63-4.79-.78-1.63-.4-1.99.04-.95-1.33-3.28-.89-3.64.08-3.16-.28-2.38.1-1.87-.24-2.8.28-1.59.02-2.48L.31,11.04h34.16l4.41.04.08-6.02.06-4.77,4.03.58,1.21.87.38.42-.12,1.31.34,3.97.74,3.32,1.69,3.95v.02l.14,1.55.56.97,1.01.89,3.88,1.09,6.72,1.27,3.82,1.45.89,1.65,1.79.66,2.68-.32,1.89-.7,1.73-1.57h0ZM72.39,21.69h-.08.08Z"/>
        <path id="US-OH" class="cls-1" d="M312.95,230.97l-2.21,1.07-.42.99.68,1.25.36,1.63.04,1.99-1.23,4.37-2.54,6.72-1.27,4.21-.04,1.73-1.67,2.25-3.3,2.78-2.31,1.67-1.31.58-1.11-.04-.87-.68-.99.46-1.11,1.59-1.01.81-.95.04-.81,1.03-.68,1.99-.64,1.15-.6.3-.04,1.01.5,1.71-.04.62-.28.02-.26-.1-.66.38-.72.95-.28.02-.2-.16-.2-1.25-.6-.87-.95-.52-1.33,1.15-1.71,2.82-.74,1.83.28,1.27.16,1.85-.44.76-.91.28-.74,1.01-.5,1.71-1.29,1.09-2.07.46-2.17-.79-.16-.06-2.56-2.15-1.61-2.07-.68-1.97-2.23-.1-3.82,1.81-2.86.26-1.95-1.23-1.45-.5-1.45.42-1.39.79-1.15-.48-1.43-1.47-2.25-1.03-3.08-.58-2.15-1.61-1.17-2.6-1.27-1.81-1.33-.99-1.49-.28-1.59.4-1.23-.2-.87-.83-1.11.1-1.03.79.02-7.99.08-7.87.06-7.89.06-7.95.06-7.99.06-8.01.08-8.07.06-8.11,6.22-.24,6.24-.22,6.22-.26,6.24-.22.18-.16-.04.08.26.44,1.69.28,1.15.52.89.78,3.26,1.53.99.93.97.52.99.1.66-.3.38-.68.46-.06.56.6,1.83.66.06.2-5.07,1.13-1.05.54,1.27.36,1.27-.08,1.29-.54,1.49.02,1.29.26.42-.22.16-.12,2.21,1.49.83.24.85-.18.89-.56,1.95-.74,3.02-.89,2.9-.38,2.78.18,1.77-.26,1.61-.93,3.56-3.06,4.07-2.46,6.74-3.08,6.52-2.4v30.7l.02,2.6Z"/>
        <polygon class="cls-1" points="127.95 77.67 127.85 77.89 128.23 78.89 129.18 78.63 129.6 79.22 130.18 79.48 131.25 79.96 131.77 81.09 132.28 82.22 132.8 83.36 133.32 84.49 135.66 85.15 138.01 85.8 140.35 86.46 142.7 87.11 145.04 87.77 147.39 88.42 149.73 89.08 152.08 89.74 153.39 90.49 154.7 91.25 156.01 92 157.32 92.76 159.39 92.9 161.22 93.35 163.78 93.37 166.37 93.95 170.16 95.2 171.06 96.27 171.21 96.99 170.84 98.66 174.45 100.15 176 101.26 176.58 102.12 176.48 102.89 176.84 104.52 176.46 105.4 176.46 106.93 175.65 108.54 175.37 109.41 175.35 110.15 175.53 110.62 175.96 110.8 177.34 110.7 178.69 110.21 179.28 110.5 179.4 110.76 179.3 111.2 178.21 113.92 178.25 115.01 178.71 116.09 179.46 117.12 180.36 117.48 180.32 118.15 179.96 119.49 178.91 120.54 176.16 121.87 175.73 122.76 175.67 123.5 173.9 126.56 173.02 128.43 172.45 130.38 172.63 131.61 173.56 132.11 174.31 131.91 174.89 131.01 175.77 130.22 176.96 129.5 177.83 128.45 179.04 125.87 180.4 124.37 181.11 124.3 181.31 124.33 182.72 123.66 183.85 123.88 184.53 124.89 185.23 125.59 185.38 126.24 185.03 127.69 184.39 129.22 183.46 130.83 182.6 133.24 181.85 136.46 181.69 138.88 182.12 140.51 181.71 141.96 180.44 143.23 179.4 144.94 178.63 147.09 178.19 148.88 178.09 150.33 178.21 151.42 178.69 152.89 178.65 153.63 177.26 156.85 176.76 158.42 176.68 159.65 176.34 160.86 175.29 163.33 174.95 164.7 174.89 165.95 175.13 168 174.99 168.69 175.05 169.21 175.31 169.57 175.31 170.2 175.03 171.14 175.13 171.87 175.61 172.39 175.92 173.38 176.06 174.85 176.42 176.06 177.02 177.04 177.12 178.45 176.74 180.3 176.54 183.77 176.54 184.93 174.16 184.91 165.73 184.85 157.3 184.79 148.88 184.73 140.45 184.67 132.02 184.61 123.42 184.55 123.3 184.35 122.72 182.09 120.84 180.4 117.64 179.3 115.59 177.57 114.7 175.21 114.12 172.55 113.88 169.59 114.14 167.1 114.89 165.09 114.7 163.74 113.54 163.03 112.79 162.09 112.43 160.94 112.29 159.35 111.67 151.76 110.9 148.16 109.73 146.75 107.26 145.1 103.49 143.23 101.16 141.48 99.83 139.02 97.17 136.12 95.42 134.93 93.71 134.49 92.36 133.56 91.34 132.12 89.95 131.23 88.16 130.85 86.18 129.68 83.81 127.57 83.75 127.41 83.26 125.88 83.53 125.03 83.93 122.09 83.89 121.15 83.38 118.47 84.01 117.44 83.87 114.12 84.09 113.03 85.36 110.3 85.42 108.91 84.97 107.3 84.03 105.99 81.51 104.62 81.43 102.91 81.85 101.64 83.49 99.25 84.41 97.13 85.24 96.21 90.29 93.03 91.36 92.82 92.14 91.9 92.76 91.5 92.76 87.63 92.76 83.73 92.76 79.84 92.76 75.92 94.03 75.65 94.58 74.67 95.88 73.14 96.21 73.16 96.21 73.18 96.85 73.88 98.44 74.89 99.69 75.01 101.28 74.79 107.58 73.04 110.24 71.83 112.85 69.78 113.11 69.72 114.2 70.1 114.54 70.28 117.93 67.93 119.05 67.64 119.92 67.7 121.02 68.61 121.27 69.17 120.92 70.24 119.94 71.83 119.47 73.16 119.48 74.25 119.07 75.43 117.99 77.02 118.37 77.45 121.23 76.3 121.65 75.86 121.69 75.61 121.51 75.29 121.85 75.15 124.1 76.72 125.61 77.59 126.86 78.01 127.95 77.67 127.95 77.67"/>
      </g>
      <g>
        <g>
          <path class="cls-2" d="M64.57,191.13h1.03v8.22h-1.03v-8.22Z"/>
          <path class="cls-2" d="M69.54,191.13h1.16l3.03,8.22h-1.13l-.87-2.51h-3.28l-.88,2.51h-1.06l3.02-8.22ZM68.76,196h2.69l-.94-2.76c-.16-.46-.37-1.16-.37-1.16h-.02s-.22.69-.38,1.16l-.98,2.76Z"/>
        </g>
        <g>
          <path class="cls-2" d="M44.55,100.51h1.32l2.67,6.83h.02l2.64-6.83h1.35v8.22h-.99v-6.76h-.02s-.22.64-.37,1.03l-2.25,5.73h-.79l-2.25-5.73c-.16-.41-.37-1.03-.37-1.03h-.02v6.76h-.93v-8.22Z"/>
          <path class="cls-2" d="M54.09,100.51h1.09l3.75,5.71c.28.43.6,1.06.6,1.06h.02v-6.77h.97v8.22h-1.06l-3.77-5.73c-.26-.4-.61-1.02-.61-1.02h-.02v6.75h-.97v-8.22Z"/>
        </g>
        <g>
          <path class="cls-2" d="M132.8,127.72h1.08l1.3,5.35c.14.55.31,1.39.31,1.39h.02s.2-.87.35-1.41l1.48-5.32h1.11l1.44,5.32c.15.55.33,1.41.33,1.41h.02s.2-.89.32-1.39l1.37-5.35h1.05l-2.29,8.22h-.99l-1.51-5.79c-.13-.48-.3-1.25-.3-1.25h-.02s-.17.77-.31,1.25l-1.61,5.79h-1.03l-2.13-8.22Z"/>
          <path class="cls-2" d="M143.94,127.72h1.03v8.22h-1.03v-8.22Z"/>
        </g>
        <g>
          <path class="cls-2" d="M206.76,227.42h1.03v8.22h-1.03v-8.22Z"/>
          <path class="cls-2" d="M209.36,227.42h1.09l3.75,5.71c.28.43.6,1.06.6,1.06h.02v-6.77h.97v8.22h-1.06l-3.77-5.73c-.26-.4-.61-1.02-.61-1.02h-.02v6.75h-.97v-8.22Z"/>
        </g>
        <g>
          <path class="cls-2" d="M264.84,231.53c0-2.46,1.54-4.29,4.02-4.29s4.02,1.83,4.02,4.29-1.54,4.29-4.02,4.29-4.02-1.83-4.02-4.29ZM271.83,231.53c0-1.93-1.03-3.39-2.97-3.39s-2.97,1.46-2.97,3.39,1.03,3.38,2.97,3.38,2.97-1.45,2.97-3.38Z"/>
          <path class="cls-2" d="M274.11,227.43h1.03v3.5h4.39v-3.5h1.03v8.22h-1.03v-3.89h-4.39v3.89h-1.03v-8.22Z"/>
        </g>
        <g>
          <path class="cls-2" d="M232.46,162.28h1.32l2.67,6.83h.02l2.64-6.83h1.35v8.22h-.99v-6.76h-.02s-.22.64-.37,1.03l-2.25,5.73h-.79l-2.25-5.73c-.16-.41-.37-1.03-.37-1.03h-.02v6.76h-.93v-8.22Z"/>
          <path class="cls-2" d="M242.02,162.28h1.04v8.22h-1.04v-8.22Z"/>
        </g>
        <g>
          <path class="cls-2" d="M148.03,227.42h1.03v8.22h-1.03v-8.22Z"/>
          <path class="cls-2" d="M150.62,227.42h1.03v7.27h4.31v.95h-5.35v-8.22Z"/>
        </g>
      </g>
    </g>
  </g>
</svg>