<?xml version="1.0" encoding="UTF-8"?>
<svg id="Layer_2" data-name="Layer 2" xmlns="http://www.w3.org/2000/svg" viewBox="0 0 827.34 446.31">
  <defs>
    <style>
      .cls-1 {
        fill: #a51f44;
        stroke: #fff;
        stroke-miterlimit: 10;
        stroke-width: .5px;
      }

      .cls-2 {
        fill: #fff;
      }
    </style>
  </defs>
  <g id="USA_Base" data-name="USA Base">
    <g id="STOLL_MAP" data-name="STOLL MAP">
      <g>
        <path id="US-AZ" class="cls-1" d="M293.42,318.2v8.27l-.02,8.21v111.31h-4.25l-6.62.02-6.62.02-6.6.02h-6.62l-6.62.02-8.86-3.22-8.88-3.24-8.86-3.24-8.86-3.24-8.88-3.26-8.86-3.26-8.88-3.26-8.86-3.26.89-1.25,1.17-3.32.08-.2h0l2.6-.24,1.23-.83.72-1.53.16-1.57-.4-1.57-1.13-1.19-1.81-.78-1.05-2.17-.28-3.6.32-1.95.95-.28.91-.87.85-1.47.66-1.61.42-1.75.08-2.21-.26-2.68,1.69-3.3,1.67-2.05,3.1-2.5.72-.76v-.68l-.64-.87-2.78-1.75-1.19-1.25-.1-1.15-.04-.02-.36-1.11-2.98-4.65-.99-2.54v-2.07l.36-8.09-1.07-2.8-.26-1.59.32-1.95-.08-1.23-.52-1.05-.12-1.93-.06-2.38-.85-1.53-.16-.68.48-1.65.87-.85,1.43-.6,1.63-.2,1.85.18,1.41.76.93,1.29.91.66.91.02,1.19-1.05,1.07-2.29.36-.14.04-9.98.02-9.1h17.51l5.84.02h17.51l5.84.02h23.35l5.84.02h17.53Z"/>
        <polygon class="cls-1" points="88.49 197.39 88.49 202.08 88.49 206.77 88.49 211.44 88.49 216.09 88.49 220.74 88.49 225.37 88.49 229.98 88.49 234.59 88.49 239.18 88.49 243.75 88.49 248.32 88.49 252.87 88.49 257.4 88.49 261.94 88.49 266.45 88.49 270.96 92.88 274.87 97.28 278.79 101.65 282.68 106.04 286.58 110.41 290.45 114.8 294.33 119.2 298.18 123.57 302.04 127.01 305.28 130.44 308.52 133.88 311.76 137.32 314.98 140.76 318.2 144.2 321.42 147.63 324.62 151.07 327.82 155.82 332.41 160.57 336.98 165.32 341.55 170.07 346.1 174.82 350.65 179.57 355.18 184.32 359.71 189.41 364.52 189.41 366.43 190.4 368.99 193.38 373.62 193.74 374.74 193.78 374.76 193.9 375.91 195.07 377.16 197.85 378.91 198.49 379.76 198.49 379.84 198.47 380.46 197.75 381.21 194.65 383.72 192.98 385.76 191.3 389.06 191.55 391.75 191.47 393.95 191.06 395.7 190.42 397.31 189.55 398.78 188.63 399.66 187.68 399.93 187.34 401.88 187.62 405.46 188.67 407.64 190.5 408.42 191.61 409.59 192.03 411.18 191.87 412.73 191.14 414.26 189.9 415.1 187.3 415.32 187.3 415.32 187.22 415.51 185.08 415.75 179.73 416.23 174.38 416.71 169.04 417.18 163.69 417.66 158.35 418.14 153 418.61 147.65 419.09 142.31 419.57 142.27 419.43 142.15 417.01 141.28 416.15 140.16 416.69 139.65 413.55 139.92 412.06 139.78 410.61 138.73 407.03 135.95 402.68 129.95 397.25 126.89 395.44 124.48 393.14 122.95 392.5 121.04 392.32 120.49 393.36 118.32 392.64 118.64 390.08 116.51 386.5 114.78 386.1 110.43 386.34 104.61 384.37 102.88 383.2 102.28 381.09 99.54 379.27 95.94 377.48 93.94 377.9 91.31 377.62 87.58 376.33 85.39 376.17 81.14 376.54 79.55 376.27 78.08 374.64 76.49 373.82 76.83 371.81 76.63 369.99 76.87 368.57 76.15 365.45 76.71 362.55 76.23 361.5 75.34 360.7 72.51 359.51 72 358.02 72.45 355.96 71.72 354.58 69.41 353.31 67.27 350.41 64.55 348.82 63.43 346.16 61.74 344.51 61.17 343.04 57.43 337.81 53.44 333.72 52.82 331.35 52.66 328.11 54.23 326.15 55.07 324.4 54.99 322.81 54.75 321.63 53.38 319.59 48.07 318.38 43.76 313.33 43.5 309.45 41.81 305.48 41.79 302.89 41.53 300.09 42.82 299.48 43.98 299.69 43.86 300.81 44.24 302.81 45.59 304.32 46.88 304.98 48.05 306.45 48.93 306.89 49.84 306.99 49.34 306.05 48.83 305.46 48.19 303.51 47 301.03 45.63 299.65 44.93 297.15 44.33 296.57 43.96 295.64 45.29 294.53 47.12 293.73 49.56 293.51 56.48 293.87 57.95 293.24 59.16 293.45 60.05 293.38 58.19 292.72 57.13 292.94 55.88 292.8 53.42 292.94 52.42 292.66 51.31 291.86 50.59 291.79 48.31 293.16 47.3 293 44.89 291.51 43.84 291.29 42.15 292.14 41.95 295.82 42.47 298.54 41.45 298.82 40.28 297.69 38.47 297.01 36.98 296 34.88 294.09 33.76 293.39 32.51 294.98 32.47 294.25 33.09 292.42 32.91 289.34 34.8 291.8 34.22 290.08 32.75 288.17 31.64 287.51 30.22 284.09 27.06 282.03 24.54 278.69 19.37 273.14 19.04 268.26 17.15 262.06 17.94 258.52 17.84 256.01 16.91 252.22 15.94 250.15 11.74 244.47 7.71 240.63 7.09 237.73 6.81 234.79 7.69 232.17 8.44 229.4 9 228.67 9.22 228.97 9.06 229.56 9.64 229.74 9.85 228.53 10.19 227.89 9.6 227.81 9.66 227.44 10.01 226.66 11.27 223.02 11.15 218.43 12.48 212.77 12.42 210.9 11.56 206.87 10.71 204.44 9.18 202.71 9.86 200.19 9.8 197.79 9.48 197.39 14.58 197.39 19.51 197.39 24.44 197.39 29.37 197.39 34.3 197.39 39.23 197.39 44.16 197.39 49.08 197.39 54.01 197.39 58.94 197.39 63.87 197.39 68.8 197.39 73.73 197.39 78.66 197.39 83.58 197.39 88.49 197.39 88.49 197.39"/>
        <path id="US-IA" class="cls-1" d="M637.56,184.47l1.13,1.73,1.97,1.55,1.11,1.45.28,1.35,1.19,1.45,2.13,1.53,1.23,1.35.34,1.17-.06,1.81-.46,2.44-.78,1.77-1.09,1.07-.79,1.51-.54,1.95-1.67,1.77-2.8,1.65-3.14,1.11-3.44.6-2.05,1.41-.64,2.21.28,1.83,1.23,1.49.7,1.57.18,1.65-.85,2.74-1.91,3.82-2.13,2.46-2.31,1.11-1.03,1.65.26,2.19-.2,1.23-.95.44-1.65-1.29-.3-.91-1.33-.91-.2-.58-1.01-.52-.93-1.79-4.71.04-4.73.02-4.71.04-4.73.04-4.71.04-4.73.02-4.71.04-4.71.04-4.73.04-4.71.04-4.73.02-4.71.04-4.73.04-4.71.04-4.73.04-4.67.02-1.13-1.83-.62-1.69.38-.81.08-2.74-.22-4.71-.46-2.66-.68-.6-.08-.83.52-1.03-.16-.72-.83-.38-.26-.89.32-1.45-.2-.87-.72-.32-.28-.5.12-.68-.4-.42-.87-.2-.36-1.63.16-3.08-.32-2.17-.83-1.29-.44-1.19v-1.13l-.87-1.77-1.77-2.42-1.13-3.22-.52-3.97-1.25-2.23-.58-.12-.48-2.09-.5-.93-.1-.72-1.55-1.81-.1-.7.2-.87,1.01-1.71.91-2.8.2-1.89.76-1.43.02-.78-.14-1.03-.4-.91-1.23-.66-.14-.3-.12-1.03.5-.66.16-.74-.14-.91-.74-1.57-.32-1.61,2.7-.1h24.34l6.08-.02h60.83l6.18-.02.14,1.61.36,1.15.76.93,1.15.7.18,1.37-.76,2.01-.26,2.48.24,2.96.58,2.66.89,2.36,2.07,1.73,3.2,1.11,1.89,1.67.56,2.29.14.18Z"/>
        <path id="US-ID" class="cls-1" d="M255.9,133.44v4.07l.02,4.05v55.8h-90.74l-6.96.02h-13.91v-5.6l-.02-5.64v-5.64l-.02-5.66v-11.41l-.02-5.72v-6.32l-.02-.14,1.19-3.9.24-1.91-.3-1.07.2-1.03.72-.99-.02-1.11-.76-1.17-1.43-.79-2.07-.38-1.07-1.41-.08-2.4,1.55-3.72,3.18-5.03,1.73-3.56.32-2.11,1.91-4.85,3.52-7.63,1.35-4.91-.81-2.15-1.81-2.07-2.76-1.97-1.95-2.31-.52-1.17-.64-1.45-.32-1.83.48-1.05-.4-1.85-1.25-2.64-.54-1.79.12-.64.14-.26-.02-4.33v-4.37l-.02-4.37-.02-4.37-.02-4.39-.02-4.41v-4.43l-.02-4.43-.02-4.45-.02-4.45v-4.49l-.02-4.49-.02-4.51-.02-4.51v-4.53l-.04-4.53h18.52v27.82l2.01,2.8,1.49,1.71.95,1.85,1.45,1.93.28.7.52,2.07-.38,1.49.78,1.53-.14.74-.58.4-.12.12.02.16.2.24,2.05,1.45,2.01,2.03,2.54,1.39.81.81,3.36,4.01,1.75,2.56,1.83,1.87.91,2.13,1.89,1.85.48.95.12.2.26.02,1.17-.44.3.12.58.74.12,1.11.42.48.74.26.83.08,2.56-.54h.56l.28.22.12.6-.04.97-.26,1.39-.78,1.37.14,1.27-.62,2.94-.58,1.99-.06,1.91-.72,1.11.4,1.31-.28,1.99.26.52.91.91.36,2.44-.16.46-1.63.95-.56.62-.22.89.72,2.56-.7,1.41-.08,1.21.16.32,1.51.66,1.83,1.43.58.32.42-.06.78-.48.85-.97,1.75-.99,2.07-2.11.1-.6.16-.32h.28l.66.3,1.29,1.27,1.13.72.2.16.1.36-.06,1.27.64.99.18,1.63.66,1.65.46,1.97,1.69,2.54.91,1.81,1.01.83.62.95.44,1.15.18.93-.6,1.69.16.7.54.76,1.75,1.75.34.14,1.63-.18.87.28.87.87.87,1.31.58,1.33.16,1.57.89,1.73.12,1.53.56.68,1.11.91,1.07.56.42.04.3-.24.1-.85.42-.64,1.33-.91,1.27.02,4.79.76.32-.04.22-.26.81-1.39.66-.56,1.01-.18,2.94.36,3.4-.2,1.77.4,2.58-.52,2.98.38.4-.22.08-.3-.26-.52-.04-1.03.6-1.23.2-1.05.62-.6.79-.32.66.04.64.56.72.93,1.27,2.54.68.91.81.79,1.23.7Z"/>
        <path id="US-IL" class="cls-1" d="M690.66,184.89l-.02,3.93.3,3.26.56,1.45.66,1.07.7.68.81,2.11.91,3.54.85,2.33.68.95-.04,6.66-.02,7.43-.02,7.41-.04,7.35-.02,7.35-.02,7.29-.04,7.27-.02,6.84v.12l-.87.74-.6,1.27.16,1.37-.24.97-.6.6.3,1.49,1.17,2.38.72,2.36.24,2.33-.22,1.65-1.01,1.51-.97,3.26-.83,1.29-1.03.44-.91,1.21-.79,1.99-.85.95-.91-.06-.68.38-.44.78.06.81.54.87-.18.79-.89.74.02.36.28.22-.1.34-.58.36-.34,1.09.04,1.81-.32.91-.6.04-.08.5.99,2.05-.58.42-1.03,1.69-.22,1.85.62,2.03-1.55,1.65-3.74,1.23-1.97,1.11-.22.95.26,1.45.74,1.95.14,1.35-.48.76-2.66-.52-4.85-1.77-3.24.06-1.65,1.89-.58,1.43.2,1.15-1.31-1.41-.89-.64-.16.04-.2.18-.08.44.06.32.12.36-.06.22-.22.02-.95-.54-1.15-1.57-1.37-2.58-.3-2.05.78-1.53v-1.59l-.78-1.69-.38-1.65v-1.61l-1.87-2.42-3.74-3.22-2.74-2.01-1.77-.76-2.05-1.61-2.35-2.48-1.25-1.91-.16-1.31,1.07-3.52,3.1-7.71.36-.89.1-.34-.14-.34-.3-.32-1.31-.91-2.5-.78-2.33-.42-1.85.91-1.61-1.87-1.39-4.67-3.4-4.93-5.45-5.21-3.16-3.56-.87-1.87-.78-2.82-.64-3.78.02-3.12,1.09-3.76.95-.44.2-1.23-.26-2.19,1.03-1.65,2.31-1.11,2.13-2.46,1.91-3.82.85-2.74-.18-1.65-.7-1.57-1.23-1.49-.28-1.83.64-2.21,2.05-1.41,3.44-.6,3.14-1.11,2.8-1.65,1.67-1.77.54-1.95.79-1.51,1.09-1.07.78-1.77.46-2.44.06-1.81-.34-1.17-1.23-1.35-2.13-1.53-1.19-1.45-.28-1.35-1.11-1.45-1.97-1.55-1.13-1.73,8.59.08,8.43.06,8.43.06,8.43.06,8.43.08,8.43.06,2.38.02Z"/>
        <path id="US-IN" class="cls-1" d="M747.08,204.86l-.06,8.11-.08,8.07-.06,8.01-.06,7.99-.06,7.95-.06,7.89-.08,7.87-.02,7.99-.3.22-.44,1.03.48,1.05-.02.85-.52.66.18.48.87.32.34.76-.2,1.17-1.89,1.17-3.6,1.35-.79.38-.64.18-.3-.08h0l-.48-.26-.66-.54-1.13-.26-1.85.18-.74,1.11.38,2.07-.64,1.59-1.63,1.09-1.17,1.45-.7,1.81-1.13,1.09-1.53.38-1.25,1.67-.95,2.94-1.03,1.81-1.11.72-1.55-.18-1.95-1.07-1.11-1.07-.3-1.13-.58-.79-.54-.36h-.36l-.02.16.16.32-.2.34-1.21.12-.52.46.18.81-.28.56-.7.34-.38.78-.04,1.21-.5,1.11-.93.99-1.39-.34-1.81-1.67-1.85-.4-1.89.91-1.39,1.21-.93,1.53-.87.38-1.29-1.17-3.04-1.61-1.59-.34-1.15.38-.79-.18-.28-.44-.22-.18-.22.22-.02,1.41-.28.87-.52.38-.4-.3-.28-.95-.66-.32-1.03.34-1.05-.14-.91-.58-.34.06-.26.28.08,1.09-.2.87-.48.58-.68.14-.89-.3-.38.28-.99-2.05.08-.5.6-.04.32-.91-.04-1.81.34-1.09.58-.36.1-.34-.28-.22-.02-.36.89-.74.18-.79-.54-.87-.06-.81.44-.78.68-.38.91.06.85-.95.79-1.99.91-1.21,1.03-.44.83-1.29.97-3.26,1.01-1.51.22-1.65-.24-2.33-.72-2.36-1.17-2.38-.3-1.49.6-.6.24-.97-.16-1.37.6-1.27.87-.74v-.12l.02-6.84.04-7.27.02-7.29.02-7.35.04-7.35.02-7.41.02-7.43.04-6.66.12.18.7.64.56.36.42.06.24.56,1.05.32,1.93.14,1.77-.22,1.61-.58,3.93-2.27h10.29l5.66.02h22.69v1.45Z"/>
        <path id="US-KS" class="cls-1" d="M563.34,318.2h-138.34l-.02-4.37v-4.39l-.02-4.39-.02-4.41v-4.43l-.02-4.43-.02-4.45-.02-4.45v-4.47l-.02-4.49-.02-4.49v-4.49l-.02-4.53-.02-4.53v-4.53l-.02-4.57h124.92l4.31,3.14,1.13.04,1.33-.5,1.01.72.7,1.95-.1.97-.87.04-1.11,1.17-1.31,2.27.32,2.15,1.97,1.99,1.31,2.01.66,2.03,1.31,1.57,2.9,1.67-.04.91v3.12l.02,3.12v6.22l.02,3.12v3.08l.02,3.1v6.16l.02,3.08v3.06l.02,3.06v6.12l.02,3.04v3.04Z"/>
        <path id="US-KY" class="cls-1" d="M787.92,284.11l.44.66.2,3.52-.14.7-.64,1.43.04.76.54,1.19,1.99,2.74.2,1.07.78,1.05.68,1.55,2.13,3.32,3.3,2.74,2.58.74-7.07,5.7-3.24,2.07-3.08,1.65-.26.28-.7,1.83-1.87,1.61-1.17,1.69-2.8,1.41-1.99,1.93-4.99,1.89-2.8.66-1.89,1.11-.14.06-.14.06-.14.06-.14.06-.14.06-.14.06-.14.06-.14.06-6.5-.22-6.5-.22-6.5-.22-6.5-.22-6.5-.22-6.5-.22-6.5-.22-6.5-.22-6.22.12-6.22.12-6.22.12-6.22.12-.56-.72-1.63-.16-2.52-.26h-.1l.74,2.38.02,2.07-.06.02h-26.07l.99-2.03.85-.54.4-.1.93.38.46.14.99-.72.87-2.09.5-2.23.14-2.35-.6-1.87-.2-1.15.58-1.43,1.65-1.89,3.24-.06,4.85,1.77,2.66.52.48-.76-.14-1.35-.74-1.95-.26-1.45.22-.95,1.97-1.09,3.72-1.25,1.55-1.63-.62-2.03.22-1.85,1.03-1.69.58-.42.38-.28.87.3.68-.14.48-.56.2-.87-.08-1.11.26-.26.34-.06.91.58,1.03.14,1.03-.34.66.32.28.97.4.3.52-.38.28-.89.02-1.41.22-.22.22.18.28.44.79.18,1.15-.4,1.59.34,3.06,1.63,1.27,1.17.89-.38.91-1.53,1.41-1.21,1.87-.89,1.85.38,1.83,1.67,1.39.34.95-.99.5-1.09.04-1.21.38-.78.7-.34.26-.58-.16-.81.52-.46,1.21-.12.2-.34-.14-.32.02-.16h.36l.52.36.58.79.3,1.11,1.13,1.09,1.95,1.05,1.53.18,1.13-.7,1.03-1.83.95-2.94,1.25-1.67,1.53-.38,1.11-1.09.7-1.81,1.17-1.45,1.65-1.09.64-1.59-.38-2.07.74-1.11,1.85-.18,1.13.24.66.56.48.26h0l.3.08.64-.16.78-.4,3.6-1.33,1.89-1.19.2-1.17-.34-.76-.87-.32-.18-.5.52-.66.02-.85-.48-1.05.44-1.03.3-.22,1.05-.79,1.09-.1.87.83,1.23.2,1.61-.42,1.47.28,1.35.99,1.27,1.81,1.17,2.62,2.13,1.59,3.08.58,2.25,1.03,1.41,1.47,1.17.48,1.37-.79,1.45-.42,1.45.5,1.95,1.25,2.88-.28,3.8-1.79,2.25.08.68,1.97,1.61,2.07,2.56,2.15.2-.06h0ZM659.33,329.78l-1.31.04-.06-.28.08-.64.1-.28.26-.06h.3l.42.6.22.62h0Z"/>
        <polygon class="cls-1" points="674.97 60.11 673.75 60.78 671.63 62.47 670.18 63.96 669.4 65.27 668.27 66.03 666.76 66.21 665.55 66.76 663.4 68.69 661.79 69.68 659.15 70.4 655.43 70.86 652.33 72.11 649.85 74.16 646.85 75.88 643.33 77.3 642.1 77.55 642 77.77 642.37 78.77 643.33 78.51 643.74 79.1 644.32 79.36 645.39 79.84 645.91 80.97 646.43 82.1 646.94 83.24 647.46 84.37 649.81 85.03 652.15 85.68 654.5 86.34 656.84 86.99 659.19 87.65 661.53 88.31 663.88 88.96 666.22 89.62 667.53 90.37 668.84 91.13 670.16 91.88 671.47 92.64 673.53 92.78 675.36 93.23 677.93 93.25 680.51 93.83 684.31 95.08 685.2 96.16 685.36 96.87 684.98 98.54 688.6 100.03 690.15 101.14 690.72 102 690.63 102.77 690.98 104.4 690.61 105.28 690.61 106.81 689.79 108.42 689.51 109.29 689.49 110.03 689.67 110.5 690.11 110.68 691.48 110.58 692.83 110.09 693.43 110.38 693.55 110.64 693.45 111.08 692.35 113.8 692.39 114.9 692.85 115.97 693.61 117 694.5 117.36 694.56 116.09 694.74 115.53 695.14 115.29 696.35 113.64 698.36 110.58 700.16 107.4 701.77 104.12 702.95 102.28 703.68 101.86 704.24 100.86 705.09 97.8 705.73 96.39 706.15 95.86 706.36 96.19 705.95 97.88 705.95 99.28 706.29 101.04 706.96 101.66 707.97 101.1 708.85 99.93 709.58 98.14 710.42 97.41 711.37 97.73 712.17 97.61 712.78 97.07 713.98 96.81 714.19 97.49 714.06 98.84 713.68 99.49 713.06 99.45 712.37 100.17 711.59 101.66 711.63 102.83 712.49 103.71 712.9 103.75 712.9 102.97 713.3 102.18 714.55 100.73 714.67 100.25 717.06 98.98 717.95 98.16 718.19 97.23 719.44 95.32 720.61 94.7 722.22 94.45 723.77 94.61 725.28 95.2 726.14 95.18 726.34 94.57 727.63 94.15 729.99 93.93 731.74 93.05 732.86 91.5 734.29 90.71 736.02 90.69 738.38 91.25 741.36 92.38 743.77 93.91 746.95 96.99 747.78 97.31 748.34 97.35 748.59 97.11 748.61 96.81 748.38 96.45 748.54 95.14 748.4 94.76 749.33 92.74 750.15 92.22 751.08 92.42 751.68 92.86 751.91 93.53 752.21 93.77 752.79 93.79 753.11 93.89 753.3 93.83 753.6 93.45 755.59 93.61 762.37 94.64 763.3 94.49 763.84 94.13 763.96 93.57 763.52 93.05 761.75 91.96 761.21 91.25 761.07 90.57 761.33 89.93 760.96 89.36 759.94 88.84 757.74 88.7 757.34 88.19 757.52 87.67 758.17 87.01 758.19 86.04 757.99 85.48 757.7 83.81 757.22 82.68 756.25 81.01 755.85 80.42 755.27 80.06 755.27 80.06 754.8 79.96 754.1 80.28 753.29 80.99 752.13 81.75 750.96 81.55 750.15 80.5 748.97 80.28 747.44 80.87 746.09 80.85 744.92 80.2 742.67 79.88 742.42 79.38 742.45 78.87 742.81 78.33 743.01 77.04 743.05 74.99 743.35 73.54 743.93 72.7 743.05 72.35 740.73 72.51 738.06 73.2 735.06 74.45 731.8 74.89 728.29 74.51 725.62 74.57 722.66 75.19 722.14 74.99 720.3 75.82 717.1 77.69 714.69 79.4 712.7 81.33 712.41 81.35 711.93 80.91 710.92 80.32 709.84 80.3 708.69 80.85 707.54 80.5 706.37 79.22 705.29 78.87 704.32 79.42 702.73 79.68 699.23 79.38 698.85 78.96 698.54 77.59 698.16 77 697.48 76.58 696.39 75.05 693.98 71.15 693.33 70.7 691.36 69.49 689.49 68.95 684.78 68.19 683.77 67.66 683.15 67.76 680.03 69.86 679.89 70.32 679.72 70.78 679.2 71.51 678.78 71.85 678.52 71.51 678.26 70.9 678.3 69.55 678.64 67.46 679.62 66.07 679.62 66.07 680.45 64.58 682.72 62.23 682.66 61.7 682.99 60.8 682.99 60.8 686.81 57.78 687.56 56.85 687.41 56.49 686.59 55.99 686.71 55.83 691.02 55.32 691.96 54.7 690.98 53.77 689.41 53.31 687.23 53.31 685.06 53.63 681.13 55.04 679.74 55.93 676.6 59.13 674.97 60.11"/>
        <polygon class="cls-1" points="759.49 83.91 759.49 84.49 758.91 84.35 758.43 83.95 758.05 83.3 757.58 81.67 756.84 80.52 757.94 79.2 758.59 79.04 759.31 79.34 759.41 80.12 758.89 81.35 758.91 82.62 759.49 83.91 759.49 83.91"/>
        <polygon class="cls-1" points="759.72 87.05 759.47 87.21 758.53 86.16 758.33 85.5 758.47 84.97 758.83 84.95 759.43 85.44 759.76 86.02 759.84 86.68 759.72 87.05"/>
        <polygon class="cls-1" points="771.27 93.31 771.45 93.91 770.99 94.78 769.68 95.24 767.02 95.2 765.29 94.86 764.49 94.23 764.31 93.91 764.39 93.21 764.77 93.17 765.35 93.55 766.2 93.39 767.34 92.68 767.93 92.14 767.99 91.78 767.63 91.11 767.93 90.83 769.34 91.09 769.86 91.52 770.81 93.04 771.27 93.31 771.27 93.31"/>
        <polygon class="cls-1" points="747.72 99.24 749.05 99.73 751.46 101.38 753.72 102.34 755.87 102.61 757.44 103.19 758.43 104.08 759.15 105.08 759.58 106.17 760.62 106.79 762.23 106.93 763.5 107.38 764.43 108.18 769.58 110.23 771.73 111.3 772.92 112.35 773.26 113.03 773.16 113.7 773.28 114.42 774.15 115.81 774.49 115.93 774.69 116.6 774.77 117.82 775.03 118.63 775.46 119.05 775.2 119.21 773.61 118.51 772.72 118.73 772.3 119.64 772.24 120.5 772.54 121.31 774.57 123.74 775.11 125.94 775.2 128.61 774.95 129.64 774.73 131.93 774.57 135.46 774.53 136.68 773.85 137.85 772.04 139.54 772.02 139.22 771.59 139.14 771.11 139.4 770.45 140.85 769.9 143.49 769.22 144.92 768.43 145.14 767.95 145.52 767.79 146.06 766.94 146.41 765.37 146.59 764.29 147.39 763.5 149.63 763.54 150.71 763.16 152.04 763.18 153.19 763.6 154.14 764.87 155.1 766.98 156.05 768.23 156.19 769.1 155.79 770.02 154.22 770.89 153.61 771.97 153.35 772.36 152.63 774.13 149.51 774.13 148.82 773.5 148.56 773.59 148.36 774.43 148.24 775.14 147.82 775.76 147.11 776.83 146.57 779.46 145.76 780.87 144.82 781.76 144.66 783.05 145.16 784.74 146.31 786.08 147.98 787.07 150.17 788.32 155.83 789.83 164.94 790.86 170 791.42 171.08 791.7 171.61 790.37 178.69 789.29 181.59 787.43 183.28 785.58 184.91 783.27 187.65 780.73 189 779.44 189.8 779.16 190.31 778.84 190.15 778.15 191.64 777.53 193.69 777.29 195.26 777.51 196.14 776.97 196.69 776.02 197.73 775.84 198.1 775.9 198.72 775.7 199.02 775.24 199 774.89 199.3 774.03 200.39 772.54 203.23 772.3 203.75 772.12 203.91 765.9 204.15 759.68 204.38 753.46 204.62 747.24 204.86 747.24 203.41 741.58 203.41 735.92 203.41 730.25 203.41 724.59 203.41 718.92 203.41 713.26 203.41 708.63 203.41 709.84 202.71 711.83 201.08 712.94 199.63 714.02 197.73 715.05 195.36 717.16 191.8 718.19 189.66 719.18 186.92 719.94 184.05 720.44 181.05 720.67 177.93 720.65 174.69 720.16 171.43 719.18 168.14 718.65 166.45 718.45 165.99 716.68 161.76 714.67 155.83 714.69 155.34 716.56 151.8 716.6 151.32 716.4 148.44 716 146.99 715.05 145.04 715.09 144.55 717.04 142.06 718.21 140.17 719.26 137.87 719.96 135.19 720.28 132.11 720.28 130.06 719.94 129.03 719.98 128.23 720.4 127.67 722.48 126.96 723.18 125.75 723.34 123.6 723.75 122.53 724.45 122.55 725.11 122.11 725.7 121.22 726.5 120.96 727.49 121.35 728.86 120.02 730.63 116.96 731.98 115.25 732.94 114.9 733.11 115.17 732.52 116.09 732.34 117.1 732.58 118.19 732.38 119.25 731.94 120.7 732.22 121.16 731.46 123.48 731.43 124.63 731.88 125.51 732.44 125.21 733.07 123.72 733.27 122.92 733.01 122.83 733.11 122.19 733.55 121.02 733.95 120.46 734.29 120.52 734.39 121.16 734.23 122.37 733.21 125.25 733.01 126.12 733.23 126.36 734.45 124.57 735.46 121.71 736.23 119.51 736.37 118.31 736.13 115.21 736.17 113.94 736.47 113.07 737.53 112.07 739.33 110.96 741.12 110.36 742.89 110.29 744.12 109.99 744.82 109.45 744.58 109.03 743.39 108.72 742.49 108.02 741.88 106.95 741.68 105.71 741.88 104.32 742.63 102.95 743.95 101.62 744.36 100.63 743.89 99.99 744.44 99.77 746.05 99.95 747.16 99.77 747.8 99.24 747.72 99.24 747.72 99.24"/>
        <path id="US-MN" class="cls-1" d="M586.53,21.69l2.25-.34,1.93.1,1.93.16,1.03.24,2.98,1.23,1.95,1.01,2.8,1.89,1.55.83.74,1.95.87,2.5h1.23l.93-1.47,2.36-.26,3.12,1.03,2.74,2.92,3.95,2.6,2.4,1.29h2.44l3.12-1.29,3.32-2.48,2.38-.44,1.41.24.79,1.95.99.74,2.56-.22,5.37.38,4.27-.54.97,1.11.87,1.75,1.73.56,2.35-.56,3.7.38-.52.28-.54-.06-.72.42-.89.89-2.05,1.27-3.2,1.67-3.7,1.51-7.49,2.74-4.67,2.84-2.07,1.71-8.03,8.51-4.85,4.51-7.85,6.32-.74.79-.06.74-.34-.02-1.29,1.53-.56.97-1.27.28v15.58l-.62.4-.78.91-1.07.22-5.05,3.18-.83.91-.91,2.13-1.65,2.38-.42,1.27.08,1.71,2.52,1.37.93,1.31.46,1.61-.06,1.39-1.27,2.72-.22,1.09.14,3.32-.64,1.03.52,2.68.04.93-.4,2.94-.28.85.5,1.53.06.16,2.36,2.11,1.99,1.17,1.79.38,1.39.89,1.01,1.43,1.35.93,1.71.44,1.75,1.19,2.66,2.9,1.33,2.46,2.33,1.75,3.78,1.87,2.46,1.65,1.17,1.41.78,3.6.62,7.59-6.18.02h-91.22v-46.86l-1.43-1.97-3.12-1.59-.78-.95-1.45-2.38-.58-1.01-.1-.79.7-.89,2.82-2.58.89-1.19.44-1.15.66-2.66-.26-2.05.18-3.2-.58-2.4-.12-1.19-.36-1.49-2.13-3.93-.52-3.18-.54-1.57-.18-4.05.06-1.15.42-2.21-.89-1.49-.14-1.23-.42-9.74-.28-1.39.08-4.53-1.63-4.79-.78-1.63-.4-1.99.04-.95-1.33-3.28-.89-3.64.08-3.16-.28-2.38.1-1.87-.24-2.8.28-1.59.02-2.48-1.83-8.84h34.16l4.41.04.08-6.02.06-4.77,4.03.58,1.21.87.38.42-.12,1.31.34,3.97.74,3.32,1.69,3.95v.02l.14,1.55.56.97,1.01.89,3.88,1.09,6.72,1.27,3.82,1.45.89,1.65,1.79.66,2.68-.32,1.89-.7,1.73-1.57h0ZM586.53,21.69h-.08.08Z"/>
        <path id="US-MO" class="cls-1" d="M622.76,237.53l-1.09,3.76-.02,3.12.64,3.78.78,2.82.87,1.87,3.16,3.56,5.45,5.21,3.4,4.93,1.39,4.67,1.61,1.87,1.85-.91,2.33.42,2.5.78,1.31.91.3.32.14.34-.1.34-.36.89-3.1,7.71-1.07,3.52.16,1.31,1.25,1.91,2.35,2.48,2.05,1.61,1.77.76,2.74,2.01,3.74,3.22,1.87,2.42v1.61l.38,1.65.78,1.69v1.59l-.78,1.53.3,2.05,1.37,2.58,1.15,1.57.95.54.22-.02.06-.22-.12-.36-.06-.32.08-.44.2-.18.16-.04.89.64,1.31,1.41.6,1.87-.12,2.35-.52,2.23-.87,2.09-.99.72-.44-.12-.95-.38-.38.12-.87.54-.97,2.03-.04.06-.36.2-.26-.2-.04-.12-.18-.6-.42-.62h-.32l-.26.04-.1.3-.1.64.06.28.32,1.73-.28,1.23-.91.5-.14.7.52.79v.36l-.2.28-.64.1-.48.18-.38.64.76,1.21-.16,1.45-1.03,1.71-.14.68-3.42.04-3.08.06-3.08.04-3.08.06,1.47-2.46.93-.87.7-.93,1.25-.87,1.37-1.87.16-.87-.14-.85-.81-1.17-.81-1.83h-83.37v-14.67l-.02-3.04v-6.12l-.02-3.06v-3.06l-.02-3.08v-6.16l-.02-3.1v-3.08l-.02-3.12v-6.22l-.02-3.12v-3.12l.04-.91-2.9-1.67-1.31-1.57-.66-2.03-1.31-2.01-1.97-1.99-.32-2.15,1.31-2.27,1.11-1.17.87-.04.1-.97-.7-1.95-1.01-.72-1.33.5-1.13-.04-4.31-3.14-.3-.22-1.33-2.09-.56-2.48-1.07-1.63-1.61-.76-1.01-1.63-.44-2.54-1.03-2.56-.48-.76,4.67-.02,4.73-.04,4.71-.04,4.73-.04,4.71-.04,4.73-.02,4.71-.04,4.73-.04,4.71-.04,4.71-.04,4.73-.02,4.71-.04,4.73-.04,4.71-.04,4.73-.02,4.71-.04.93,1.79,1.01.52.2.58,1.33.91.3.91,1.65,1.29Z"/>
        <path id="US-MT" class="cls-1" d="M387.62,95.2l.02,6.22.04,6.18.02,6.18.04,6.14v.08l-.02.08v.16h-131.8v9.9l-.02,3.3-1.23-.7-.81-.79-.68-.91-1.27-2.54-.72-.93-.64-.56-.66-.04-.79.32-.62.6-.2,1.05-.6,1.23.04,1.03.26.52-.08.3-.4.22-2.98-.38-2.58.52-1.77-.4-3.4.2-2.94-.36-1.01.18-.66.56-.81,1.39-.22.26-.32.04-4.79-.76-1.27-.02-1.33.91-.42.64-.1.85-.3.24-.42-.04-1.07-.56-1.11-.91-.56-.68-.12-1.53-.89-1.73-.16-1.57-.58-1.33-.87-1.31-.87-.87-.87-.28-1.63.18-.34-.14-1.75-1.75-.54-.76-.16-.7.6-1.69-.18-.93-.44-1.15-.62-.95-1.01-.83-.91-1.81-1.69-2.54-.46-1.97-.66-1.65-.18-1.63-.64-.99.06-1.27-.1-.36-.2-.16-1.13-.72-1.29-1.27-.66-.3h-.28l-.16.32-.1.6-2.07,2.11-1.75.99-.85.97-.78.48-.42.06-.58-.32-1.83-1.43-1.51-.66-.16-.32.08-1.21.7-1.41-.72-2.56.22-.89.56-.62,1.63-.95.16-.46-.36-2.44-.91-.91-.26-.52.28-1.99-.4-1.31.72-1.11.06-1.91.58-1.99.62-2.94-.14-1.27.78-1.37.26-1.39.04-.97-.12-.6-.28-.22h-.56l-2.56.54-.83-.08-.74-.26-.42-.48-.12-1.11-.58-.74-.3-.12-1.17.44-.26-.02-.12-.2-.48-.95-1.89-1.85-.91-2.13-1.83-1.87-1.75-2.56-3.36-4.01-.81-.81-2.54-1.39-2.01-2.03-2.05-1.45-.2-.24-.02-.16.12-.12.58-.4.14-.74-.78-1.53.38-1.49-.52-2.07-.28-.7-1.45-1.93-.95-1.85-1.49-1.71-2.01-2.8V11.02h224.76l.04,5.39.04,5.39.02,5.37.02,5.37.02,5.33.04,5.31.02,5.29.02,5.27.04,5.27.02,5.23.02,5.21.04,5.21.02,5.17.02,5.17.04,5.13.02,5.13Z"/>
        <path id="US-ND" class="cls-1" d="M527.07,95.2h-139.45l-.02-5.13-.04-5.13-.02-5.17-.02-5.17-.04-5.21-.02-5.21-.02-5.23-.04-5.27-.02-5.27-.02-5.29-.04-5.31-.02-5.33-.02-5.37-.02-5.37-.04-5.39-.04-5.39h127.37l1.83,8.84-.02,2.48-.28,1.59.24,2.78-.1,1.87.28,2.38-.08,3.16.89,3.64,1.33,3.28-.04.95.4,1.97.78,1.63,1.65,4.81-.08,4.53.28,1.39.42,9.74.14,1.21.89,1.49-.42,2.21-.06,1.13.18,4.05.52,1.57.52,3.2,2.13,3.93.36,1.49.12,1.19.58,2.4-.18,3.2.26,2.05Z"/>
        <path id="US-NE" class="cls-1" d="M528.48,184.53l.58.12,1.25,2.23.52,3.97,1.13,3.22,1.77,2.42.87,1.77v1.13l.44,1.19.83,1.29.32,2.17-.16,3.08.36,1.63.87.2.4.42-.12.68.28.5.72.32.2.87-.32,1.45.26.89.83.38.16.72-.52,1.03.08.83.68.6.46,2.66.22,4.71-.08,2.74-.38.81.62,1.69,1.13,1.83.48.76,1.03,2.56.44,2.54,1.01,1.63,1.61.76,1.07,1.63.56,2.48,1.33,2.09.3.22h-124.92v-21.4l-.02-3.08h-37.34l-.02-6.2-.02-6.2-.02-6.24v-6.26l-.02-6.28-.02-6.32-.02-6.32-.02-6.36h104.53l5.58,3.8,3.32,1.17,1.59-1.11,3.42-.64,5.27-.16,3.32.52,1.39,1.19,2.7,1.35,4.03,1.49,2.4,1.63.79,1.75,1.41,1.09,1.43.36Z"/>
        <path id="US-NV" class="cls-1" d="M200,318.14l-.02,9.1-.04,9.98-.36.14-1.07,2.29-1.19,1.05-.91-.02-.91-.66-.93-1.29-1.41-.76-1.85-.18-1.63.2-1.43.6-.87.85-.48,1.65.16.68.85,1.53.06,2.38.12,1.93.52,1.05.08,1.23-.32,1.95.26,1.59,1.07,2.8-.36,8.09v.16l-5.09-4.83-4.75-4.51-4.75-4.53-4.75-4.55-4.75-4.55-4.75-4.57-4.75-4.59-4.75-4.59-3.42-3.2-3.44-3.2-3.44-3.2-3.42-3.22-3.44-3.22-3.42-3.24-3.44-3.24-3.44-3.24-4.37-3.86-4.39-3.86-4.37-3.88-4.37-3.88-4.39-3.9-4.37-3.9-4.39-3.9-4.37-3.91v-4.51l-.02-4.51v-64.53h69.73l6.96-.02h34.78v46.32l.02,3.8v48.65l.02,3.68v18.32Z"/>
        <path id="US-OH" class="cls-1" d="M827.09,230.97l-2.21,1.07-.42.99.68,1.25.36,1.63.04,1.99-1.23,4.37-2.54,6.72-1.27,4.21-.04,1.73-1.67,2.25-3.3,2.78-2.31,1.67-1.31.58-1.11-.04-.87-.68-.99.46-1.11,1.59-1.01.81-.95.04-.81,1.03-.68,1.99-.64,1.15-.6.3-.04,1.01.5,1.71-.04.62-.28.02-.26-.1-.66.38-.72.95-.28.02-.2-.16-.2-1.25-.6-.87-.95-.52-1.33,1.15-1.71,2.82-.74,1.83.28,1.27.16,1.85-.44.76-.91.28-.74,1.01-.5,1.71-1.29,1.09-2.07.46-2.17-.79-.16-.06-2.56-2.15-1.61-2.07-.68-1.97-2.23-.1-3.82,1.81-2.86.26-1.95-1.23-1.45-.5-1.45.42-1.39.79-1.15-.48-1.43-1.47-2.25-1.03-3.08-.58-2.15-1.61-1.17-2.6-1.27-1.81-1.33-.99-1.49-.28-1.59.4-1.23-.2-.87-.83-1.11.1-1.03.79.02-7.99.08-7.87.06-7.89.06-7.95.06-7.99.06-8.01.08-8.07.06-8.11,6.22-.24,6.24-.22,6.22-.26,6.24-.22.18-.16-.04.08.26.44,1.69.28,1.15.52.89.78,3.26,1.53.99.93.97.52.99.1.66-.3.38-.68.46-.06.56.6,1.83.66.06.2-5.07,1.13-1.05.54,1.27.36,1.27-.08,1.29-.54,1.49.02,1.29.26.42-.22.16-.12,2.21,1.49.83.24.85-.18.89-.56,1.95-.74,3.02-.89,2.9-.38,2.78.18,1.77-.26,1.61-.93,3.56-3.06,4.07-2.46,6.74-3.08,6.52-2.4v30.7l.02,2.6Z"/>
        <path id="US-OR" class="cls-1" d="M28.26,89.54l1.87-.68,1.47.52,1.87,1.21,1.85,3.68,1.81,6.1.4,2.03,1.41,1.25,1.67.06,6.7.89.99-.06h0l1.21-.24,3.8-2.33,4.11-.76,4.87.16,2.98.68,1.09,1.15,2.6.12,6.16-1.35,6.82-.95,3.66-.97,4.15-2.03,9.44-2.58,4.71-.3,2.38-.97.56-.5.34-.02h9.92l4.97-.02h9.94l4.97-.02h9.6l.52,1.17,1.95,2.31,2.76,1.97,1.81,2.07.81,2.15-1.35,4.91-3.52,7.63-1.91,4.85-.32,2.11-1.73,3.56-3.18,5.03-1.55,3.72.08,2.4,1.07,1.41,2.07.38,1.43.79.76,1.17.02,1.11-.72.99-.2,1.03.3,1.07-.24,1.91-1.19,3.9.02.14v6.32l.02,5.72v11.41l.02,5.66v5.64l.02,5.64v5.6H14.51l-5.11-.02-2.36-3.06-1.03-4.57-.2-1.93.28-5.13-.72-2.19-1.79-3.62.78-3.16.81-1.93,2.03-8.41.48-.68.85.02,1.47-1.45-.68-.32-1.03.68.91-3.34,1.03-2.88.66-1.03.34-9.42.6-7.21.97-2.4-.34-2.46.38-3.36-.28-3.4,2.09-16.45-.28-2.01.64-2.68-.6-7.09.26-7.99-.52-1.01-.28-1.11.5-.16.95,1.17,4.45-.02,2.86-1.07,1.03.36,1.19,1.45,1.51.3,1.89-.26Z"/>
        <path id="US-SD" class="cls-1" d="M527.07,95.2l-.64,2.66-.44,1.17-.91,1.17-2.82,2.58-.7.89.1.79.58,1.01,1.45,2.38.78.97,3.1,1.59,1.43,1.97v46.88l-2.7.1.32,1.61.74,1.57.14.91-.16.74-.5.66.12,1.03.14.3,1.23.66.4.91.14,1.03-.02.78-.76,1.43-.2,1.89-.91,2.8-1.01,1.71-.2.87.1.7,1.55,1.81.1.72.5.93.48,2.09-1.43-.36-1.41-1.09-.79-1.75-2.4-1.63-4.03-1.49-2.7-1.35-1.39-1.19-3.32-.52-5.27.16-3.42.64-1.59,1.11-3.32-1.17-5.58-3.8h-104.53l-.02-6.4-.02-6.4-.02-6.44-.02-6.48-.02-6.48-.02-6.52-.02-6.56-.02-6.58h.6v-.16l.02-.08v-.08l-.04-6.14-.02-6.18-.04-6.18-.02-6.22h139.45Z"/>
        <path id="US-TN" class="cls-1" d="M768.19,327.42l4.25.02,9.06.04,6.44.04,5.29.02,3.12.02,3.93.02.87-.48,1.97.08,2.64.1-.85,1.79-.06,1.19-.48,1.77-.02,1.17-1.37.06-.81.3-1.07.78-2.66,4.23-.93.38-1.53-1.09-2.11.46-1.37.79-2.05,2.07-.79.66-.62.24-.44-.02-.22-.34-.18-1.03-.24-.36h-.64l-1.03.4-1.03.7-1.07,1.19-1.41-.1-.26.3-.34,1.39-.56,1.01-.76.78-2.44.6-3.06,2.13-4.23,2.25-3.97.56-1.65.46-1.11.58-2.48,2.31-1.09,2.92-1.25.56-1.93.02-.54.26-.5,1.11-.7,4.83-6.08-.06-6.08-.08-6.06-.08-6.08-.06-3-.04-3-.04-3-.04-3-.02-3-.04-3-.04-3-.02-3-.04-3-.04-3-.04-3-.02-3-.04-3-.04-3-.02-3-.04-3-.04-.24.02.22.28.34.3h-5.09l-4.97-.02h-9.94l-4.97-.02h-9.94l-4.77-.02v-.06l.7-.95,2.13-1.55.93-2.05-.28-2.52.78-2.27,1.85-2.05.76-2.03-.32-2.01.91-1.63,2.17-1.27.3-.52-.08-.38-.04-.44.02-.18.1-.4.48-.22.64-.2.28-.32v-.52l-.38-.91.08-.42.14-.68,1.03-1.71.16-1.45-.76-1.21.38-.64.48-.18.64-.1.2-.28v-.36l-.52-.79.14-.7.91-.5.28-1.23-.32-1.73,1.31-.04.04.12.26.2.36-.2.04-.06h10.17l3.22.02h12.62l.06-.04v-2.07l-.76-2.38h.1l2.52.26,1.65.16.54.72,6.24-.12,6.22-.12,6.22-.12,6.24-.12,6.5.22,6.48.24,6.5.22,6.5.24,6.5.22,6.5.22,6.48.24,6.5.22.16-.06.14-.04.14-.06.16-.06.14-.04.16-.06.14-.04.14-.06Z"/>
        <path id="US-UT" class="cls-1" d="M255.92,197.37l.02,3.14v21.76h37.48v95.93h-17.53l-5.84-.02h-23.35l-5.84-.02h-17.51l-5.84-.02h-17.51v-18.32l-.02-3.68v-48.65l-.02-3.8v-46.32h55.96Z"/>
        <path id="US-WA" class="cls-1" d="M146.56,93.61h-39.73l-.56.5-2.38.97-4.71.3-9.46,2.58-4.15,2.03-3.66.99-6.82.95-6.16,1.35-2.6-.12-1.09-1.15-2.98-.66-4.87-.16-4.11.78-3.8,2.33-1.21.24h0l-.99.08-6.7-.91-1.67-.06-1.43-1.23-.38-2.03-1.81-6.12-1.85-3.68-1.87-1.21-1.47-.5-1.87.68-.58-.38-.89-.1-1.99-1.35-1.13-1.35-3.48.1-.72-.87-3.88.87-1.19-.89-2.11.58.52-2.52-.1-3.18.1-3.1.52,2.27,1.31,2.4.64-2.72.44-3.44-1.29-1.33-2.13-.97-.76-3.22,5.05-2.74-2.68-.58-1.05-1.23-1.29-.16-.1.95-.42,1.25-.46-1.65-.14-1.95-.54-3.34-2.07-5.39-1.25-7.02-1.57-3.48-3.02-3.34-.79-1.95-.72-4.95.4-3.76-.56-2.64,1.45.16,3.82,2.09,4.75,1.63,1.43,1.19,2.31.87,12.74,1.37.83-.14,1.65-.85.7.1,1.87,1.93.93.24,1.21-.1.89-.38,1.53-1.33.2.5-.02,1.23.56,1.75,1.13,2.27.42,1.41-2.29,3.95-.44.08-.06-1.33-.3-.26-4.29,6.68-1.51,3.16-.16,1.43.06.83.6.2,1.37-.32,2.03-1.31.1-.28-1.89.46-.91.04.12-1.49.22-.72,1.23-2.21,1.29-1.33,1.85-1.41,1.07-1.17.74-1.71,2.05-2.05.38-.58-.08-1.69.14-.32.99.22.42,2.88-.24,1.29-1.77,1.57-.22.56.32,2.15-.28.2-.68-.26-.22.14,1.67,2.33.54,1.81.08,1.61-.46,3.08-.5.52-.83-.18-1.11-.95-.24.32-.87,2.38-.3-.22-.56-2.82-.3-.22-1.71,1.29-.68,1.23-.6,1.97-.76.91,2.13.2,1.91-.4,1.53.93.52.02,1.41-.91.44-.62,1.15-2.98.58-.54.87-.02.83-.46,1.23-1.63.04-.66-.46-3.68.14-2.09-.24-.66-.56-.7.08-.68.44-1.09.04-.99-.38-.89.16-1.01,1.17-2.17.22-.95,1.43-2.17-.36-.87-1.05-1.07-.66-.93-.68-1.47-.52-.5-.16.22.72,2.4-.16.16-1.85-1.29-.44-.81-.22-1.11.16-.83.99-.81,1.19-.3-.1-.7-1.49-2.25-.99-1.03-.78-.5-1.03-.14-.46-.38-.12-.54.22-.7.56-.22,1.59.28.85-.5-.08-.89-.26-.5.04-3.22-.62-2.62-.32-.44-.34-.04-.36.36-.99.1-.62-.85-.68-1.67-1.23-3.97h107.45l.04,4.53.02,4.53.02,4.53.02,4.51.02,4.49.02,4.47.02,4.47.02,4.45.02,4.43.02,4.43.02,4.41.02,4.39.02,4.39.02,4.37.02,4.35.02,4.35-.14.26-.12.64.54,1.81,1.25,2.62.4,1.85-.48,1.05.34,1.83.78,1.41h0ZM36.46,20.1l.26.62-.76.6-.54.1-.85-.95-.38-.12.3,1.47-.1.5-1.75-.91-.32-.72.5-.76,1.09-.79.38-.1,2.17,1.07h0ZM32.13,24.95l.5.91-2.01-.6-.85-.54-.26-.52-.3-1.71.14-.56.89-.2,1.69,2.11.2,1.09h0ZM35.73,26.9l-.3.28-.99-.38-.6-.64-.2-.78.38-1.49.5-.38.32.08.14,1.31.89,1.39-.14.6ZM40.38,34.61l.91,3.66.4-1.53,2.54,2.64v1.29l-.32.44-.54.16-.5-.38-.46-.91-.58-.48-1.21-.32-.64-1.03-.22-.72-.06-2.05-.3-.64-.66-.14-.62-.5-.95-1.43-.14-.38.46-1.17,1.03-1.97.76-.93.48.1.58.6.7,1.07-.12.76-2.8,1.49-.1.34,1.35.42.5.38.5,1.23h0ZM41.79,50.23l-.1.54-1.03-.64-.34-.58.04-1.31.26-.85.2-.18.62.38.18.22.18,2.42h0ZM43.72,55.73l-.08.64-.72.5-.38-.12-.02-.74-.2-.12-.78.89.06-1.75.38-1.85.34-.04.5,1.21.89,1.37h0ZM35.13,60.98l-.18.54-.26-.02-.58-1.09-.08-.78.5-.56.68,1.61-.08.3h0Z"/>
        <polygon class="cls-1" points="642.1 77.67 642 77.89 642.37 78.89 643.33 78.63 643.74 79.22 644.32 79.48 645.39 79.96 645.91 81.09 646.43 82.22 646.94 83.36 647.46 84.49 649.81 85.15 652.15 85.8 654.5 86.46 656.84 87.11 659.19 87.77 661.53 88.42 663.88 89.08 666.22 89.74 667.53 90.49 668.84 91.25 670.16 92 671.47 92.76 673.53 92.9 675.36 93.35 677.93 93.37 680.51 93.95 684.3 95.2 685.2 96.27 685.36 96.99 684.98 98.66 688.6 100.15 690.15 101.26 690.72 102.12 690.62 102.89 690.98 104.52 690.6 105.4 690.6 106.93 689.79 108.54 689.51 109.41 689.49 110.15 689.67 110.62 690.11 110.8 691.48 110.7 692.83 110.21 693.43 110.5 693.55 110.76 693.45 111.2 692.35 113.92 692.39 115.01 692.85 116.09 693.61 117.12 694.5 117.48 694.46 118.15 694.1 119.49 693.05 120.54 690.31 121.87 689.87 122.76 689.81 123.5 688.04 126.56 687.17 128.43 686.59 130.38 686.77 131.61 687.7 132.11 688.46 131.91 689.03 131.01 689.91 130.22 691.1 129.5 691.98 128.45 693.19 125.87 694.54 124.37 695.25 124.3 695.45 124.33 696.86 123.66 698 123.88 698.67 124.89 699.37 125.59 699.53 126.24 699.17 127.69 698.53 129.22 697.6 130.83 696.75 133.24 695.99 136.46 695.83 138.88 696.27 140.51 695.85 141.96 694.58 143.23 693.55 144.94 692.77 147.09 692.33 148.88 692.23 150.33 692.35 151.42 692.83 152.89 692.79 153.63 691.4 156.85 690.9 158.42 690.82 159.65 690.49 160.86 689.43 163.33 689.09 164.7 689.03 165.95 689.27 168 689.13 168.69 689.19 169.21 689.45 169.57 689.45 170.2 689.17 171.14 689.27 171.87 689.75 172.39 690.07 173.38 690.21 174.85 690.56 176.06 691.16 177.04 691.26 178.45 690.88 180.3 690.68 183.77 690.68 184.93 688.3 184.91 679.87 184.85 671.45 184.79 663.02 184.73 654.59 184.67 646.17 184.61 637.56 184.55 637.44 184.35 636.87 182.09 634.98 180.4 631.78 179.3 629.73 177.57 628.84 175.21 628.26 172.55 628.02 169.59 628.28 167.1 629.04 165.09 628.84 163.74 627.69 163.03 626.93 162.09 626.57 160.94 626.43 159.35 625.82 151.76 625.04 148.16 623.87 146.75 621.41 145.1 617.63 143.23 615.31 141.48 613.97 139.02 611.31 136.12 609.56 134.93 607.85 134.49 606.5 133.56 605.49 132.12 604.1 131.23 602.31 130.85 600.32 129.68 597.96 127.57 597.9 127.41 597.4 125.88 597.68 125.03 598.08 122.09 598.04 121.15 597.52 118.47 598.15 117.44 598.02 114.12 598.23 113.03 599.51 110.3 599.57 108.91 599.11 107.3 598.17 105.99 595.65 104.62 595.57 102.91 595.99 101.64 597.64 99.25 598.55 97.13 599.39 96.21 604.43 93.03 605.51 92.82 606.28 91.9 606.9 91.5 606.9 87.63 606.9 83.73 606.9 79.84 606.9 75.92 608.17 75.65 608.73 74.67 610.02 73.14 610.36 73.16 610.36 73.18 610.99 73.88 612.58 74.89 613.84 75.01 615.42 74.79 621.72 73.04 624.39 71.83 626.99 69.78 627.25 69.72 628.34 70.1 628.68 70.28 632.08 67.93 633.19 67.64 634.07 67.7 635.16 68.61 635.42 69.17 635.06 70.24 634.09 71.83 633.61 73.16 633.63 74.25 633.21 75.43 632.14 77.02 632.52 77.45 635.38 76.3 635.79 75.86 635.83 75.61 635.66 75.29 635.99 75.15 638.24 76.72 639.75 77.59 641 78.01 642.09 77.67 642.1 77.67"/>
        <polygon class="cls-1" points="706.01 113.9 705.67 114.24 705.09 114.02 704.87 114.52 704.99 115.73 704.79 116.29 704.28 116.19 704.26 116.41 704.72 116.94 704.75 117.54 704.4 118.17 704.06 118.47 703.72 118.43 703.2 119.17 702.51 120.68 702.27 121.55 702.49 121.79 702.33 122.29 700.6 124.57 699.95 124.79 699.21 124.47 698.69 123.8 698.4 122.78 698.32 121.99 698.44 121.43 699.95 119.41 700.62 118.07 701 116.58 701.69 115.63 702.73 115.21 703.56 114.28 704.2 112.83 704.93 112.19 705.77 112.37 706.13 112.93 706.01 113.9 706.01 113.9"/>
        <path id="US-WY" class="cls-1" d="M387.28,172.09l.02,6.36.02,6.32.02,6.32.02,6.28v6.26l.02,6.24.02,6.2.02,6.2h-131.48v-21.76l-.02-3.14v-55.8l-.02-4.05v-4.07l.02-3.3v-9.9h131.2l.02,6.58.02,6.56.02,6.52.02,6.48.02,6.48.02,6.44.02,6.4.02,6.4Z"/>
      </g>
      <g id="STOLL_ABV" data-name="STOLL ABV">
        <g>
          <path class="cls-2" d="M84.66,318.42c0-2.41,1.45-4.29,3.9-4.29,1.92,0,3.08,1.1,3.3,2.62h-1.01c-.2-1.02-1.01-1.72-2.31-1.72-1.81,0-2.82,1.46-2.82,3.39s1.11,3.37,2.83,3.37c1.55,0,2.29-1.06,2.39-2.26h1.02c-.01.82-.4,1.74-.99,2.31-.57.56-1.41.86-2.46.86-2.33,0-3.85-1.78-3.85-4.28Z"/>
          <path class="cls-2" d="M95.31,314.32h1.16l3.04,8.22h-1.13l-.87-2.51h-3.28l-.89,2.51h-1.06l3.02-8.22ZM94.53,319.19h2.69l-.94-2.76c-.16-.46-.37-1.16-.37-1.16h-.02s-.22.69-.38,1.16l-.98,2.76Z"/>
        </g>
        <g>
          <path class="cls-2" d="M73.1,149.33c0-2.46,1.54-4.29,4.02-4.29s4.02,1.83,4.02,4.29-1.54,4.29-4.02,4.29-4.02-1.83-4.02-4.29ZM80.09,149.33c0-1.93-1.03-3.39-2.97-3.39s-2.97,1.46-2.97,3.39,1.03,3.38,2.97,3.38,2.97-1.45,2.97-3.38Z"/>
          <path class="cls-2" d="M82.37,145.22h3.84c1.45,0,2.43.91,2.43,2.25,0,1-.44,1.71-1.43,2.04v.03c.84.3,1.1.87,1.18,2.09.09,1.32.23,1.66.38,1.76v.05h-1.12c-.17-.15-.21-.46-.3-1.84-.08-1.21-.56-1.63-1.67-1.63h-2.29v3.47h-1.03v-8.22ZM83.41,149.13h2.44c1.15,0,1.72-.57,1.72-1.51,0-1-.46-1.51-1.67-1.51h-2.49v3.01Z"/>
        </g>
        <g>
          <path class="cls-2" d="M72.42,50.9h1.08l1.3,5.35c.14.55.31,1.39.31,1.39h.02s.2-.87.35-1.41l1.48-5.32h1.12l1.44,5.32c.15.55.33,1.41.33,1.41h.02s.2-.89.32-1.39l1.37-5.35h1.05l-2.29,8.22h-.99l-1.51-5.79c-.13-.48-.3-1.25-.3-1.25h-.02s-.17.77-.31,1.25l-1.61,5.79h-1.03l-2.13-8.22Z"/>
          <path class="cls-2" d="M85.27,50.9h1.16l3.04,8.22h-1.13l-.87-2.51h-3.28l-.89,2.51h-1.06l3.02-8.22ZM84.48,55.77h2.69l-.94-2.76c-.16-.46-.37-1.16-.37-1.16h-.02s-.22.69-.38,1.16l-.98,2.76Z"/>
        </g>
        <g>
          <path class="cls-2" d="M187.63,145.22h1.03v8.22h-1.03v-8.22Z"/>
          <path class="cls-2" d="M190.23,145.22h2.99c2.47,0,3.64,1.68,3.64,4.14s-1.25,4.08-3.73,4.08h-2.91v-8.22ZM193.1,152.53c1.93,0,2.7-1.24,2.7-3.17s-.69-3.24-2.62-3.24h-1.92v6.42h1.84Z"/>
        </g>
        <g>
          <path class="cls-2" d="M238.89,265.69v-5.56h1.03v5.46c0,1.4.79,2,2.15,2s2.08-.6,2.08-2v-5.46h1.03v5.56c0,1.99-1.39,2.78-3.15,2.78s-3.15-.79-3.15-2.78Z"/>
          <path class="cls-2" d="M246.07,260.13h6.51v.91h-2.74v7.31h-1.03v-7.31h-2.74v-.91Z"/>
        </g>
        <g>
          <path class="cls-2" d="M285.66,50.9h1.32l2.67,6.83h.02l2.64-6.83h1.35v8.22h-.99v-6.76h-.02s-.22.64-.37,1.03l-2.25,5.73h-.79l-2.25-5.73c-.16-.41-.37-1.03-.37-1.03h-.02v6.76h-.93v-8.22Z"/>
          <path class="cls-2" d="M294.68,50.9h6.51v.91h-2.74v7.31h-1.03v-7.31h-2.74v-.91Z"/>
        </g>
        <g>
          <path class="cls-2" d="M309.35,167.98h1.08l1.3,5.35c.14.55.31,1.39.31,1.39h.02s.2-.87.35-1.41l1.48-5.32h1.12l1.44,5.32c.15.55.33,1.41.33,1.41h.02s.2-.89.32-1.39l1.37-5.35h1.05l-2.29,8.22h-.99l-1.51-5.79c-.13-.48-.3-1.25-.3-1.25h-.02s-.17.77-.31,1.25l-1.61,5.79h-1.03l-2.13-8.22Z"/>
          <path class="cls-2" d="M322.9,172.72l-2.98-4.74h1.15l2.36,3.91h.02l2.39-3.91h1.1l-3.01,4.76v3.46h-1.03v-3.48Z"/>
        </g>
        <g>
          <path class="cls-2" d="M449.83,50.9h1.09l3.75,5.71c.28.43.6,1.06.6,1.06h.02v-6.77h.97v8.22h-1.06l-3.77-5.73c-.26-.4-.61-1.02-.61-1.02h-.02v6.75h-.97v-8.22Z"/>
          <path class="cls-2" d="M457.79,50.9h2.99c2.47,0,3.64,1.68,3.64,4.14s-1.25,4.08-3.73,4.08h-2.91v-8.22ZM460.67,58.21c1.93,0,2.7-1.24,2.7-3.17s-.69-3.24-2.62-3.24h-1.92v6.42h1.84Z"/>
        </g>
        <g>
          <path class="cls-2" d="M451.65,137.43h1.01c.14,1.39.99,2.12,2.54,2.12,1.14,0,1.95-.52,1.95-1.54,0-1.13-.99-1.39-2.46-1.71-1.45-.32-2.69-.74-2.69-2.29,0-1.36,1.13-2.17,2.79-2.17,2.06,0,2.91,1.05,3.12,2.56h-.98c-.15-1.17-.91-1.76-2.12-1.76-1.12,0-1.85.47-1.85,1.32,0,.93.92,1.21,2.15,1.45,1.6.32,3.06.71,3.06,2.56,0,1.54-1.25,2.4-3.02,2.4-2.31,0-3.41-1.29-3.51-2.94Z"/>
          <path class="cls-2" d="M459.36,131.99h2.99c2.47,0,3.64,1.68,3.64,4.14s-1.25,4.08-3.73,4.08h-2.91v-8.22ZM462.24,139.3c1.93,0,2.7-1.24,2.7-3.17s-.69-3.24-2.62-3.24h-1.92v6.42h1.84Z"/>
        </g>
        <g>
          <path class="cls-2" d="M461.54,205.13h1.09l3.75,5.71c.28.43.6,1.06.6,1.06h.02v-6.77h.97v8.22h-1.06l-3.77-5.73c-.26-.4-.61-1.02-.61-1.02h-.02v6.75h-.97v-8.22Z"/>
          <path class="cls-2" d="M469.5,205.13h5.81v.91h-4.77v2.6h4.33v.87h-4.33v2.89h4.91v.95h-5.94v-8.22Z"/>
        </g>
        <g>
          <path class="cls-2" d="M578.72,191.13h1.03v8.22h-1.03v-8.22Z"/>
          <path class="cls-2" d="M583.68,191.13h1.16l3.03,8.22h-1.13l-.87-2.51h-3.28l-.88,2.51h-1.06l3.02-8.22ZM582.9,196h2.69l-.94-2.76c-.16-.46-.37-1.16-.37-1.16h-.02s-.22.69-.38,1.16l-.98,2.76Z"/>
        </g>
        <g>
          <path class="cls-2" d="M558.7,100.51h1.32l2.67,6.83h.02l2.64-6.83h1.35v8.22h-.99v-6.76h-.02s-.22.64-.37,1.03l-2.25,5.73h-.79l-2.25-5.73c-.16-.41-.37-1.03-.37-1.03h-.02v6.76h-.93v-8.22Z"/>
          <path class="cls-2" d="M568.23,100.51h1.09l3.75,5.71c.28.43.6,1.06.6,1.06h.02v-6.77h.97v8.22h-1.06l-3.77-5.73c-.26-.4-.61-1.02-.61-1.02h-.02v6.75h-.97v-8.22Z"/>
        </g>
        <g>
          <path class="cls-2" d="M646.94,127.72h1.08l1.3,5.35c.14.55.31,1.39.31,1.39h.02s.2-.87.35-1.41l1.48-5.32h1.11l1.44,5.32c.15.55.33,1.41.33,1.41h.02s.2-.89.32-1.39l1.37-5.35h1.05l-2.29,8.22h-.99l-1.51-5.79c-.13-.48-.3-1.25-.3-1.25h-.02s-.17.77-.31,1.25l-1.61,5.79h-1.03l-2.13-8.22Z"/>
          <path class="cls-2" d="M658.08,127.72h1.03v8.22h-1.03v-8.22Z"/>
        </g>
        <g>
          <path class="cls-2" d="M720.9,227.42h1.03v8.22h-1.03v-8.22Z"/>
          <path class="cls-2" d="M723.5,227.42h1.09l3.75,5.71c.28.43.6,1.06.6,1.06h.02v-6.77h.97v8.22h-1.06l-3.77-5.73c-.26-.4-.61-1.02-.61-1.02h-.02v6.75h-.97v-8.22Z"/>
        </g>
        <g>
          <path class="cls-2" d="M778.98,231.53c0-2.46,1.54-4.29,4.02-4.29s4.02,1.83,4.02,4.29-1.54,4.29-4.02,4.29-4.02-1.83-4.02-4.29ZM785.97,231.53c0-1.93-1.03-3.39-2.97-3.39s-2.97,1.46-2.97,3.39,1.03,3.38,2.97,3.38,2.97-1.45,2.97-3.38Z"/>
          <path class="cls-2" d="M788.26,227.43h1.03v3.5h4.39v-3.5h1.03v8.22h-1.03v-3.89h-4.39v3.89h-1.03v-8.22Z"/>
        </g>
        <g>
          <path class="cls-2" d="M739.72,303.78h1.03v4.08l4.05-4.08h1.3l-3.32,3.29,3.6,4.93h-1.21l-3.09-4.23-1.32,1.32v2.91h-1.03v-8.22Z"/>
          <path class="cls-2" d="M749.45,308.52l-2.98-4.74h1.15l2.36,3.91h.02l2.39-3.91h1.1l-3.01,4.76v3.46h-1.03v-3.48Z"/>
        </g>
        <g>
          <path class="cls-2" d="M711.46,340.84h6.51v.91h-2.74v7.31h-1.03v-7.31h-2.74v-.91Z"/>
          <path class="cls-2" d="M718.99,340.84h1.09l3.75,5.71c.28.43.6,1.06.6,1.06h.02v-6.77h.97v8.22h-1.06l-3.77-5.73c-.26-.4-.61-1.02-.61-1.02h-.02v6.75h-.97v-8.22Z"/>
        </g>
        <g>
          <path class="cls-2" d="M746.61,162.28h1.32l2.67,6.83h.02l2.64-6.83h1.35v8.22h-.99v-6.76h-.02s-.22.64-.37,1.03l-2.25,5.73h-.79l-2.25-5.73c-.16-.41-.37-1.03-.37-1.03h-.02v6.76h-.93v-8.22Z"/>
          <path class="cls-2" d="M756.17,162.28h1.04v8.22h-1.04v-8.22Z"/>
        </g>
        <g>
          <path class="cls-2" d="M662.17,227.42h1.03v8.22h-1.03v-8.22Z"/>
          <path class="cls-2" d="M664.77,227.42h1.03v7.27h4.31v.95h-5.35v-8.22Z"/>
        </g>
        <g>
          <path class="cls-2" d="M594.57,277.5h1.32l2.67,6.83h.02l2.64-6.83h1.35v8.22h-.99v-6.76h-.02s-.22.64-.37,1.03l-2.25,5.73h-.79l-2.25-5.73c-.16-.41-.37-1.03-.37-1.03h-.02v6.76h-.93v-8.22Z"/>
          <path class="cls-2" d="M603.84,281.78c0-2.55,1.21-4.12,3.07-4.12s3.05,1.54,3.05,4.12-1.09,4.12-3.06,4.12-3.06-1.61-3.06-4.12ZM608.96,281.78c0-2-.68-3.29-2.05-3.29s-2.07,1.25-2.07,3.29.68,3.28,2.07,3.28,2.05-1.24,2.05-3.28Z"/>
        </g>
        <g>
          <path class="cls-2" d="M241.73,373.11h1.16l3.04,8.22h-1.13l-.87-2.51h-3.28l-.89,2.51h-1.06l3.02-8.22ZM240.94,377.99h2.69l-.94-2.76c-.16-.46-.37-1.16-.37-1.16h-.02s-.22.69-.38,1.16l-.98,2.76Z"/>
          <path class="cls-2" d="M246.38,380.34l4.92-6.32v-.03h-4.63v-.87h5.91v.81l-4.99,6.45v.03h5.19v.93h-6.39v-.99Z"/>
        </g>
        <g>
          <path class="cls-2" d="M146.43,260.19h1.09l3.75,5.71c.28.43.6,1.06.6,1.06h.02v-6.77h.97v8.22h-1.06l-3.77-5.73c-.26-.4-.61-1.02-.61-1.02h-.02v6.75h-.97v-8.22Z"/>
          <path class="cls-2" d="M153.74,260.19h1.12l2.02,6.12c.13.38.32,1.1.32,1.1h.02s.2-.74.32-1.1l2-6.12h1.08l-2.89,8.22h-1.14l-2.86-8.22Z"/>
        </g>
        <g>
          <path class="cls-2" d="M478.58,277.75h1v3.93l3.89-3.93h1.25l-3.2,3.16,3.46,4.75h-1.16l-2.98-4.07-1.27,1.27v2.8h-1v-7.91Z"/>
          <path class="cls-2" d="M484.88,282.98h.97c.13,1.34.95,2.04,2.45,2.04,1.1,0,1.88-.5,1.88-1.48,0-1.08-.95-1.34-2.37-1.65-1.39-.31-2.59-.71-2.59-2.2,0-1.31,1.08-2.09,2.69-2.09,1.98,0,2.8,1.01,3,2.47h-.94c-.14-1.13-.87-1.69-2.04-1.69-1.07,0-1.78.45-1.78,1.27,0,.9.88,1.16,2.07,1.39,1.54.31,2.94.69,2.94,2.47,0,1.48-1.21,2.31-2.91,2.31-2.22,0-3.29-1.24-3.37-2.83Z"/>
        </g>
      </g>
    </g>
  </g>
</svg>