<?xml version="1.0" encoding="UTF-8"?>
<svg id="Layer_2" data-name="Layer 2" xmlns="http://www.w3.org/2000/svg" viewBox="0 0 827.5 577.22">
  <defs>
    <style>
      .cls-1 {
        fill: #fff;
      }

      .cls-2 {
        fill: #08877b;
        stroke: #fff;
        stroke-miterlimit: 10;
        stroke-width: .5px;
      }
    </style>
  </defs>
  <g id="USA_Base" data-name="USA Base">
    <g id="BRIDGEWOOD_MAP" data-name="BRIDGEWOOD MAP">
      <g>
        <path id="HI" class="cls-2" d="M206.62,515l5.67,2.39,1.94-.3,1.49-3.58-.6-3.13-3.88-.45-3.73,1.64-.9,3.43h0ZM234.97,524.25l3.43,5.07,2.24-.3,1.04-.45,1.34,1.19,3.43-.15.9-1.34-2.69-1.64-1.79-3.43-1.94-3.28-5.37,2.69-.6,1.64h0ZM253.62,532.46l1.19-1.79,4.33.9.6-.45,5.67.6-.3,1.19-2.39,1.34-4.03-.3-5.07-1.49ZM258.54,537.23l1.79,3.58,2.84-1.04.3-1.49-1.49-1.94-3.43-.3v1.19h0ZM264.96,536.19l2.09-2.69,4.33,2.24,4.03,1.04,4.03,2.54v1.79l-3.28,1.64-4.48.9-2.24-1.34-4.48-6.12h0ZM280.33,550.51l1.49-1.19,3.13,1.49,7.01,3.28,3.13,1.94,1.49,2.24,1.79,4.03,3.73,2.39-.3,1.19-3.58,2.98-3.88,1.34-1.34-.6-2.84,1.64-2.24,2.98-2.09,2.69-1.64-.15-3.28-2.39-.3-4.18.6-2.24-1.49-5.22-1.94-1.64-.15-2.39,2.09-.9,1.94-2.84.45-.9-1.49-1.64-.3-1.94h0Z"/>
        <path id="AK" class="cls-2" d="M140.89,452.18l-.3,78.79,1.49.9,2.84.15,1.34-1.04h2.39l.15,2.69,6.42,6.27.45,2.39,3.13-1.79.6-.15.3-2.84,1.34-1.49,1.04-.15,1.79-1.34,2.84,1.94.6,2.69,1.79,1.04,1.04,2.24,3.58,1.64,3.13,5.52,2.54,3.58,2.09,2.54,1.34,3.43,4.63,1.64,4.77,1.94.9,4.03.45,2.84-.9,3.13-1.64,2.09-1.49-.75-1.34-2.84-2.54-1.34-1.64-1.04-.75.75,1.34,2.54.15,3.43-1.04.45-1.79-1.79-1.94-1.19.45,1.49,1.19,1.64-.75.75s-.75-.3-1.19-.9c-.45-.6-1.94-3.13-1.94-3.13l-.9-2.09s-.3,1.19-.9.9c-.6-.3-1.19-1.34-1.19-1.34l1.64-1.79-1.34-1.34v-4.63h-.75l-.75,3.13-1.04.45-.9-3.43-.6-3.43-.75-.45.3,5.22v1.04l-1.34-1.19-3.28-5.52-1.94-.45-.6-3.43-1.49-2.69-1.49-1.04v-2.09l1.94-1.19-.45-.3-2.39.6-3.13-2.24-2.39-2.69-4.48-2.39-3.73-2.39,1.19-2.98v-1.49l-1.64,1.49-2.69,1.04-3.43-1.04-5.22-2.24h-5.07l-.6.45-5.97-3.58-1.94-.3-2.54-5.37-3.28.3-3.28,1.34.45,4.18,1.04-2.69.9.3-1.34,4.03,2.98-2.54.6,1.49-3.58,4.03-1.19-.3-.45-1.79-1.19-.75-1.19,1.04-2.54-1.64-2.84,1.94-1.64,1.94-3.13,1.94-4.33-.15-.45-1.94,3.43-.6v-1.19l-2.09-.6.9-2.24,2.09-3.58v-1.64l.15-.75,4.03-2.09.9,1.19h2.54l-1.19-2.39-3.43-.3-4.63,2.54-2.24,3.13-1.64,2.39-1.04,2.09-3.88,1.34-2.84,2.39-.3,1.49,2.09.9.75,1.94-2.54,2.98-5.97,3.88-7.16,3.88-1.94,1.04-4.92,1.04-4.92,2.09,1.64,1.19-1.34,1.34-.45,1.04-2.54-.9-2.98.15-.75,2.09h-.9l.3-2.24-3.28,1.19-2.69.9-3.13-1.19-2.69,1.79h-2.98l-1.94,1.19-1.49.75-1.94-.3-2.39-1.04-2.09.6-.9.9-1.49-1.04v-1.79l2.84-1.19,5.82.6,4.03-1.49,1.94-1.94,2.69-.6,1.64-.75,2.54.15,1.49,1.19.9-.3,2.09-2.54,2.84-.9,3.13-.6,1.19-.3.6.45h.75l1.19-3.43,3.73-1.34,1.79-3.43,2.09-4.18,1.49-1.34.3-2.39-1.49,1.19-3.13.6-.6-2.24-1.19-.3-.9.9-.15,2.69-1.34-.15-1.34-5.37-1.19,1.19-1.04-.45-.3-1.79-3.73.15-1.94,1.04-2.39-.3,1.34-1.34.45-2.39-.6-1.79,1.34-.9,1.19-.15-.6-1.64v-4.03l-.9-.9-.75,1.34h-5.67l-1.34-1.19-.6-3.58-1.94-3.28v-.9l1.94-.75.15-1.94,1.04-1.04-.75-.45-1.19.45-1.04-2.54.9-4.63,4.18-2.98,2.39-1.49,1.79-3.43,2.54-1.19,2.39,1.04.3,2.24,2.24-.3,2.98-2.24,1.49.6.9.6h1.49l2.09-1.19.75-4.03s.3-2.69.9-3.13.9-.9.9-.9l-1.04-1.79-2.39.75-2.98.75-1.79-.45-3.28-1.64-4.63-.15-3.28-3.43.45-3.58.6-2.24-1.94-1.64-1.79-3.43.45-.75,6.27-.45h1.94l.9.9h.6l-.15-1.49,3.58-.6,2.39.3,1.34,1.04-1.34,1.94-.45,1.34,2.54,1.49,4.63,1.64,1.64-.9-2.09-4.03-.9-2.98.9-.75-3.13-1.79-.45-1.04.45-1.49-.75-3.58-2.69-4.33-2.24-3.88,2.69-1.79h2.98l1.64.6,3.88-.15,3.43-3.28,1.04-2.84,3.43-2.24,1.49.9,2.54-.6,3.43-1.94,1.04-.15.9.75,4.18-.15,2.54-2.84h1.04l3.28,2.24,1.79,1.94-.45,1.04.6,1.04,1.49-1.49,3.58.3.3,3.43,1.79,1.34,6.57.6,5.82,3.88,1.34-.9,4.77,2.39,1.94-.6,1.79-.75,4.48,1.79,4.03,2.69h0ZM.48,564.24l3.13-2.09,3.13-.9,2.39.3.45,1.49,1.79.45,1.79-1.79-.3-1.49,2.54-.6,2.69,2.39-1.04,1.64-4.03,1.04-2.54-.45-3.43-1.04-4.03,1.34-1.49.3-1.04-.6ZM78.22,549.62l1.04,5.37,2.69.75,4.63-2.69,4.03-2.39-1.49-2.24.45-2.24-1.94,1.19-2.69-.75,1.49-1.04,1.79.75,3.58-1.64.45-1.34-2.24-.75.75-1.79-2.54,1.79-4.33,3.28-4.48,2.69-1.19,1.04ZM117.31,531.26l2.24-1.34-.9-1.64-1.64.9.3,2.09Z"/>
        <path id="US-AZ" class="cls-2" d="M293.58,318.2v8.27l-.02,8.21v111.31h-4.25l-6.62.02-6.62.02-6.6.02h-6.62l-6.62.02-8.86-3.22-8.88-3.24-8.86-3.24-8.86-3.24-8.88-3.26-8.86-3.26-8.88-3.26-8.86-3.26.89-1.25,1.17-3.32.08-.2h0l2.6-.24,1.23-.83.72-1.53.16-1.57-.4-1.57-1.13-1.19-1.81-.78-1.05-2.17-.28-3.6.32-1.95.95-.28.91-.87.85-1.47.66-1.61.42-1.75.08-2.21-.26-2.68,1.69-3.3,1.67-2.05,3.1-2.5.72-.76v-.68l-.64-.87-2.78-1.75-1.19-1.25-.1-1.15-.04-.02-.36-1.11-2.98-4.65-.99-2.54v-2.07l.36-8.09-1.07-2.8-.26-1.59.32-1.95-.08-1.23-.52-1.05-.12-1.93-.06-2.38-.85-1.53-.16-.68.48-1.65.87-.85,1.43-.6,1.63-.2,1.85.18,1.41.76.93,1.29.91.66.91.02,1.19-1.05,1.07-2.29.36-.14.04-9.98.02-9.1h17.51l5.84.02h17.51l5.84.02h23.35l5.84.02h17.53Z"/>
        <polygon class="cls-2" points="88.65 197.39 88.65 202.08 88.65 206.77 88.65 211.44 88.65 216.09 88.65 220.74 88.65 225.37 88.65 229.98 88.65 234.59 88.65 239.18 88.65 243.75 88.65 248.32 88.65 252.87 88.65 257.4 88.65 261.94 88.65 266.45 88.65 270.96 93.04 274.87 97.44 278.79 101.81 282.68 106.2 286.58 110.57 290.45 114.96 294.33 119.36 298.18 123.73 302.04 127.17 305.28 130.6 308.52 134.04 311.76 137.48 314.98 140.92 318.2 144.36 321.42 147.79 324.62 151.23 327.82 155.98 332.41 160.73 336.98 165.48 341.55 170.23 346.1 174.98 350.65 179.73 355.18 184.48 359.71 189.57 364.52 189.57 366.43 190.56 368.99 193.54 373.62 193.9 374.74 193.94 374.76 194.06 375.91 195.23 377.16 198.01 378.91 198.65 379.76 198.65 379.84 198.63 380.46 197.91 381.21 194.81 383.72 193.14 385.76 191.46 389.06 191.71 391.75 191.63 393.95 191.22 395.7 190.58 397.31 189.71 398.78 188.79 399.66 187.84 399.93 187.5 401.88 187.78 405.46 188.83 407.64 190.66 408.42 191.77 409.59 192.19 411.18 192.03 412.73 191.3 414.26 190.06 415.1 187.46 415.32 187.46 415.32 187.38 415.51 185.24 415.75 179.89 416.23 174.54 416.71 169.2 417.18 163.85 417.66 158.51 418.14 153.16 418.61 147.81 419.09 142.47 419.57 142.43 419.43 142.31 417.01 141.43 416.15 140.32 416.69 139.81 413.55 140.08 412.06 139.94 410.61 138.89 407.03 136.11 402.68 130.11 397.25 127.05 395.44 124.64 393.14 123.11 392.5 121.2 392.32 120.65 393.36 118.48 392.64 118.8 390.08 116.67 386.5 114.94 386.1 110.59 386.34 104.77 384.37 103.04 383.2 102.44 381.09 99.7 379.27 96.1 377.48 94.1 377.9 91.47 377.62 87.74 376.33 85.55 376.17 81.3 376.54 79.71 376.27 78.24 374.64 76.65 373.82 76.99 371.81 76.79 369.99 77.03 368.57 76.31 365.45 76.87 362.55 76.39 361.5 75.5 360.7 72.67 359.51 72.16 358.02 72.61 355.96 71.88 354.58 69.57 353.31 67.43 350.41 64.7 348.82 63.59 346.16 61.9 344.51 61.33 343.04 57.59 337.81 53.6 333.72 52.98 331.35 52.82 328.11 54.39 326.15 55.23 324.4 55.15 322.81 54.91 321.63 53.54 319.59 48.23 318.38 43.92 313.33 43.66 309.45 41.97 305.48 41.95 302.89 41.69 300.09 42.98 299.48 44.14 299.69 44.02 300.81 44.39 302.81 45.75 304.32 47.04 304.98 48.21 306.45 49.08 306.89 50 306.99 49.5 306.05 48.99 305.46 48.35 303.51 47.16 301.03 45.79 299.65 45.09 297.15 44.49 296.57 44.12 295.64 45.45 294.53 47.28 293.73 49.72 293.51 56.64 293.87 58.11 293.24 59.32 293.45 60.21 293.38 58.35 292.72 57.29 292.94 56.04 292.8 53.58 292.94 52.58 292.66 51.47 291.86 50.75 291.79 48.47 293.16 47.46 293 45.05 291.51 44 291.29 42.31 292.14 42.11 295.82 42.63 298.54 41.61 298.82 40.44 297.69 38.63 297.01 37.14 296 35.03 294.09 33.92 293.39 32.67 294.98 32.63 294.25 33.25 292.42 33.07 289.34 34.96 291.8 34.38 290.08 32.91 288.17 31.8 287.51 30.38 284.09 27.22 282.03 24.7 278.69 19.53 273.14 19.2 268.26 17.31 262.06 18.1 258.52 18 256.01 17.07 252.22 16.1 250.15 11.9 244.47 7.87 240.63 7.25 237.73 6.97 234.79 7.85 232.17 8.6 229.4 9.16 228.67 9.38 228.97 9.22 229.56 9.8 229.74 10.01 228.53 10.35 227.89 9.76 227.81 9.82 227.44 10.17 226.66 11.43 223.02 11.31 218.43 12.64 212.77 12.58 210.9 11.72 206.87 10.87 204.44 9.34 202.71 10.01 200.19 9.96 197.79 9.64 197.39 14.74 197.39 19.67 197.39 24.6 197.39 29.53 197.39 34.46 197.39 39.39 197.39 44.32 197.39 49.24 197.39 54.17 197.39 59.1 197.39 64.03 197.39 68.96 197.39 73.89 197.39 78.81 197.39 83.74 197.39 88.65 197.39 88.65 197.39"/>
        <path id="US-IA" class="cls-2" d="M637.72,184.47l1.13,1.73,1.97,1.55,1.11,1.45.28,1.35,1.19,1.45,2.13,1.53,1.23,1.35.34,1.17-.06,1.81-.46,2.44-.78,1.77-1.09,1.07-.79,1.51-.54,1.95-1.67,1.77-2.8,1.65-3.14,1.11-3.44.6-2.05,1.41-.64,2.21.28,1.83,1.23,1.49.7,1.57.18,1.65-.85,2.74-1.91,3.82-2.13,2.46-2.31,1.11-1.03,1.65.26,2.19-.2,1.23-.95.44-1.65-1.29-.3-.91-1.33-.91-.2-.58-1.01-.52-.93-1.79-4.71.04-4.73.02-4.71.04-4.73.04-4.71.04-4.73.02-4.71.04-4.71.04-4.73.04-4.71.04-4.73.02-4.71.04-4.73.04-4.71.04-4.73.04-4.67.02-1.13-1.83-.62-1.69.38-.81.08-2.74-.22-4.71-.46-2.66-.68-.6-.08-.83.52-1.03-.16-.72-.83-.38-.26-.89.32-1.45-.2-.87-.72-.32-.28-.5.12-.68-.4-.42-.87-.2-.36-1.63.16-3.08-.32-2.17-.83-1.29-.44-1.19v-1.13l-.87-1.77-1.77-2.42-1.13-3.22-.52-3.97-1.25-2.23-.58-.12-.48-2.09-.5-.93-.1-.72-1.55-1.81-.1-.7.2-.87,1.01-1.71.91-2.8.2-1.89.76-1.43.02-.78-.14-1.03-.4-.91-1.23-.66-.14-.3-.12-1.03.5-.66.16-.74-.14-.91-.74-1.57-.32-1.61,2.7-.1h24.34l6.08-.02h60.83l6.18-.02.14,1.61.36,1.15.76.93,1.15.7.18,1.37-.76,2.01-.26,2.48.24,2.96.58,2.66.89,2.36,2.07,1.73,3.2,1.11,1.89,1.67.56,2.29.14.18Z"/>
        <path id="US-ID" class="cls-2" d="M256.06,133.44v4.07l.02,4.05v55.8h-90.74l-6.96.02h-13.91v-5.6l-.02-5.64v-5.64l-.02-5.66v-11.41l-.02-5.72v-6.32l-.02-.14,1.19-3.9.24-1.91-.3-1.07.2-1.03.72-.99-.02-1.11-.76-1.17-1.43-.79-2.07-.38-1.07-1.41-.08-2.4,1.55-3.72,3.18-5.03,1.73-3.56.32-2.11,1.91-4.85,3.52-7.63,1.35-4.91-.81-2.15-1.81-2.07-2.76-1.97-1.95-2.31-.52-1.17-.64-1.45-.32-1.83.48-1.05-.4-1.85-1.25-2.64-.54-1.79.12-.64.14-.26-.02-4.33v-4.37l-.02-4.37-.02-4.37-.02-4.39-.02-4.41v-4.43l-.02-4.43-.02-4.45-.02-4.45v-4.49l-.02-4.49-.02-4.51-.02-4.51v-4.53l-.04-4.53h18.52v27.82l2.01,2.8,1.49,1.71.95,1.85,1.45,1.93.28.7.52,2.07-.38,1.49.78,1.53-.14.74-.58.4-.12.12.02.16.2.24,2.05,1.45,2.01,2.03,2.54,1.39.81.81,3.36,4.01,1.75,2.56,1.83,1.87.91,2.13,1.89,1.85.48.95.12.2.26.02,1.17-.44.3.12.58.74.12,1.11.42.48.74.26.83.08,2.56-.54h.56l.28.22.12.6-.04.97-.26,1.39-.78,1.37.14,1.27-.62,2.94-.58,1.99-.06,1.91-.72,1.11.4,1.31-.28,1.99.26.52.91.91.36,2.44-.16.46-1.63.95-.56.62-.22.89.72,2.56-.7,1.41-.08,1.21.16.32,1.51.66,1.83,1.43.58.32.42-.06.78-.48.85-.97,1.75-.99,2.07-2.11.1-.6.16-.32h.28l.66.3,1.29,1.27,1.13.72.2.16.1.36-.06,1.27.64.99.18,1.63.66,1.65.46,1.97,1.69,2.54.91,1.81,1.01.83.62.95.44,1.15.18.93-.6,1.69.16.7.54.76,1.75,1.75.34.14,1.63-.18.87.28.87.87.87,1.31.58,1.33.16,1.57.89,1.73.12,1.53.56.68,1.11.91,1.07.56.42.04.3-.24.1-.85.42-.64,1.33-.91,1.27.02,4.79.76.32-.04.22-.26.81-1.39.66-.56,1.01-.18,2.94.36,3.4-.2,1.77.4,2.58-.52,2.98.38.4-.22.08-.3-.26-.52-.04-1.03.6-1.23.2-1.05.62-.6.79-.32.66.04.64.56.72.93,1.27,2.54.68.91.81.79,1.23.7Z"/>
        <path id="US-IL" class="cls-2" d="M690.82,184.89l-.02,3.93.3,3.26.56,1.45.66,1.07.7.68.81,2.11.91,3.54.85,2.33.68.95-.04,6.66-.02,7.43-.02,7.41-.04,7.35-.02,7.35-.02,7.29-.04,7.27-.02,6.84v.12l-.87.74-.6,1.27.16,1.37-.24.97-.6.6.3,1.49,1.17,2.38.72,2.36.24,2.33-.22,1.65-1.01,1.51-.97,3.26-.83,1.29-1.03.44-.91,1.21-.79,1.99-.85.95-.91-.06-.68.38-.44.78.06.81.54.87-.18.79-.89.74.02.36.28.22-.1.34-.58.36-.34,1.09.04,1.81-.32.91-.6.04-.08.5.99,2.05-.58.42-1.03,1.69-.22,1.85.62,2.03-1.55,1.65-3.74,1.23-1.97,1.11-.22.95.26,1.45.74,1.95.14,1.35-.48.76-2.66-.52-4.85-1.77-3.24.06-1.65,1.89-.58,1.43.2,1.15-1.31-1.41-.89-.64-.16.04-.2.18-.08.44.06.32.12.36-.06.22-.22.02-.95-.54-1.15-1.57-1.37-2.58-.3-2.05.78-1.53v-1.59l-.78-1.69-.38-1.65v-1.61l-1.87-2.42-3.74-3.22-2.74-2.01-1.77-.76-2.05-1.61-2.35-2.48-1.25-1.91-.16-1.31,1.07-3.52,3.1-7.71.36-.89.1-.34-.14-.34-.3-.32-1.31-.91-2.5-.78-2.33-.42-1.85.91-1.61-1.87-1.39-4.67-3.4-4.93-5.45-5.21-3.16-3.56-.87-1.87-.78-2.82-.64-3.78.02-3.12,1.09-3.76.95-.44.2-1.23-.26-2.19,1.03-1.65,2.31-1.11,2.13-2.46,1.91-3.82.85-2.74-.18-1.65-.7-1.57-1.23-1.49-.28-1.83.64-2.21,2.05-1.41,3.44-.6,3.14-1.11,2.8-1.65,1.67-1.77.54-1.95.79-1.51,1.09-1.07.78-1.77.46-2.44.06-1.81-.34-1.17-1.23-1.35-2.13-1.53-1.19-1.45-.28-1.35-1.11-1.45-1.97-1.55-1.13-1.73,8.59.08,8.43.06,8.43.06,8.43.06,8.43.08,8.43.06,2.38.02Z"/>
        <path id="US-IN" class="cls-2" d="M747.24,204.86l-.06,8.11-.08,8.07-.06,8.01-.06,7.99-.06,7.95-.06,7.89-.08,7.87-.02,7.99-.3.22-.44,1.03.48,1.05-.02.85-.52.66.18.48.87.32.34.76-.2,1.17-1.89,1.17-3.6,1.35-.79.38-.64.18-.3-.08h0l-.48-.26-.66-.54-1.13-.26-1.85.18-.74,1.11.38,2.07-.64,1.59-1.63,1.09-1.17,1.45-.7,1.81-1.13,1.09-1.53.38-1.25,1.67-.95,2.94-1.03,1.81-1.11.72-1.55-.18-1.95-1.07-1.11-1.07-.3-1.13-.58-.79-.54-.36h-.36l-.02.16.16.32-.2.34-1.21.12-.52.46.18.81-.28.56-.7.34-.38.78-.04,1.21-.5,1.11-.93.99-1.39-.34-1.81-1.67-1.85-.4-1.89.91-1.39,1.21-.93,1.53-.87.38-1.29-1.17-3.04-1.61-1.59-.34-1.15.38-.79-.18-.28-.44-.22-.18-.22.22-.02,1.41-.28.87-.52.38-.4-.3-.28-.95-.66-.32-1.03.34-1.05-.14-.91-.58-.34.06-.26.28.08,1.09-.2.87-.48.58-.68.14-.89-.3-.38.28-.99-2.05.08-.5.6-.04.32-.91-.04-1.81.34-1.09.58-.36.1-.34-.28-.22-.02-.36.89-.74.18-.79-.54-.87-.06-.81.44-.78.68-.38.91.06.85-.95.79-1.99.91-1.21,1.03-.44.83-1.29.97-3.26,1.01-1.51.22-1.65-.24-2.33-.72-2.36-1.17-2.38-.3-1.49.6-.6.24-.97-.16-1.37.6-1.27.87-.74v-.12l.02-6.84.04-7.27.02-7.29.02-7.35.04-7.35.02-7.41.02-7.43.04-6.66.12.18.7.64.56.36.42.06.24.56,1.05.32,1.93.14,1.77-.22,1.61-.58,3.93-2.27h10.29l5.66.02h22.69v1.45Z"/>
        <path id="US-KY" class="cls-2" d="M788.08,284.11l.44.66.2,3.52-.14.7-.64,1.43.04.76.54,1.19,1.99,2.74.2,1.07.78,1.05.68,1.55,2.13,3.32,3.3,2.74,2.58.74-7.07,5.7-3.24,2.07-3.08,1.65-.26.28-.7,1.83-1.87,1.61-1.17,1.69-2.8,1.41-1.99,1.93-4.99,1.89-2.8.66-1.89,1.11-.14.06-.14.06-.14.06-.14.06-.14.06-.14.06-.14.06-.14.06-6.5-.22-6.5-.22-6.5-.22-6.5-.22-6.5-.22-6.5-.22-6.5-.22-6.5-.22-6.22.12-6.22.12-6.22.12-6.22.12-.56-.72-1.63-.16-2.52-.26h-.1l.74,2.38.02,2.07-.06.02h-26.07l.99-2.03.85-.54.4-.1.93.38.46.14.99-.72.87-2.09.5-2.23.14-2.35-.6-1.87-.2-1.15.58-1.43,1.65-1.89,3.24-.06,4.85,1.77,2.66.52.48-.76-.14-1.35-.74-1.95-.26-1.45.22-.95,1.97-1.09,3.72-1.25,1.55-1.63-.62-2.03.22-1.85,1.03-1.69.58-.42.38-.28.87.3.68-.14.48-.56.2-.87-.08-1.11.26-.26.34-.06.91.58,1.03.14,1.03-.34.66.32.28.97.4.3.52-.38.28-.89.02-1.41.22-.22.22.18.28.44.79.18,1.15-.4,1.59.34,3.06,1.63,1.27,1.17.89-.38.91-1.53,1.41-1.21,1.87-.89,1.85.38,1.83,1.67,1.39.34.95-.99.5-1.09.04-1.21.38-.78.7-.34.26-.58-.16-.81.52-.46,1.21-.12.2-.34-.14-.32.02-.16h.36l.52.36.58.79.3,1.11,1.13,1.09,1.95,1.05,1.53.18,1.13-.7,1.03-1.83.95-2.94,1.25-1.67,1.53-.38,1.11-1.09.7-1.81,1.17-1.45,1.65-1.09.64-1.59-.38-2.07.74-1.11,1.85-.18,1.13.24.66.56.48.26h0l.3.08.64-.16.78-.4,3.6-1.33,1.89-1.19.2-1.17-.34-.76-.87-.32-.18-.5.52-.66.02-.85-.48-1.05.44-1.03.3-.22,1.05-.79,1.09-.1.87.83,1.23.2,1.61-.42,1.47.28,1.35.99,1.27,1.81,1.17,2.62,2.13,1.59,3.08.58,2.25,1.03,1.41,1.47,1.17.48,1.37-.79,1.45-.42,1.45.5,1.95,1.25,2.88-.28,3.8-1.79,2.25.08.68,1.97,1.61,2.07,2.56,2.15.2-.06h0ZM659.48,329.78l-1.31.04-.06-.28.08-.64.1-.28.26-.06h.3l.42.6.22.62h0Z"/>
        <polygon class="cls-2" points="675.13 60.11 673.91 60.78 671.79 62.47 670.34 63.96 669.56 65.27 668.43 66.03 666.92 66.21 665.71 66.76 663.56 68.69 661.95 69.68 659.31 70.4 655.59 70.86 652.49 72.11 650.01 74.16 647 75.88 643.49 77.3 642.26 77.55 642.16 77.77 642.53 78.77 643.49 78.51 643.9 79.1 644.48 79.36 645.55 79.84 646.07 80.97 646.59 82.1 647.1 83.24 647.62 84.37 649.97 85.03 652.31 85.68 654.66 86.34 657 86.99 659.35 87.65 661.69 88.31 664.04 88.96 666.38 89.62 667.69 90.37 669 91.13 670.32 91.88 671.63 92.64 673.69 92.78 675.52 93.23 678.09 93.25 680.67 93.83 684.46 95.08 685.36 96.16 685.52 96.87 685.14 98.54 688.76 100.03 690.31 101.14 690.88 102 690.78 102.77 691.14 104.4 690.76 105.28 690.76 106.81 689.95 108.42 689.67 109.29 689.65 110.03 689.83 110.5 690.27 110.68 691.64 110.58 692.99 110.09 693.59 110.38 693.71 110.64 693.61 111.08 692.51 113.8 692.55 114.9 693.01 115.97 693.77 117 694.66 117.36 694.72 116.09 694.9 115.53 695.3 115.29 696.51 113.64 698.52 110.58 700.32 107.4 701.93 104.12 703.11 102.28 703.84 101.86 704.4 100.86 705.25 97.8 705.89 96.39 706.31 95.86 706.52 96.19 706.11 97.88 706.11 99.28 706.44 101.04 707.12 101.66 708.13 101.1 709.01 99.93 709.74 98.14 710.58 97.41 711.53 97.73 712.33 97.61 712.94 97.07 714.14 96.81 714.35 97.49 714.21 98.84 713.84 99.49 713.22 99.45 712.53 100.17 711.75 101.66 711.79 102.83 712.65 103.71 713.06 103.75 713.06 102.97 713.46 102.18 714.71 100.73 714.83 100.25 717.22 98.98 718.11 98.16 718.35 97.23 719.6 95.32 720.77 94.7 722.38 94.45 723.93 94.61 725.44 95.2 726.3 95.18 726.5 94.57 727.79 94.15 730.15 93.93 731.9 93.05 733.02 91.5 734.45 90.71 736.17 90.69 738.54 91.25 741.52 92.38 743.93 93.91 747.11 96.99 747.94 97.31 748.5 97.35 748.75 97.11 748.77 96.81 748.54 96.45 748.69 95.14 748.56 94.76 749.49 92.74 750.3 92.22 751.24 92.42 751.83 92.86 752.07 93.53 752.37 93.77 752.95 93.79 753.27 93.89 753.46 93.83 753.76 93.45 755.75 93.61 762.53 94.64 763.46 94.49 764 94.13 764.12 93.57 763.68 93.05 761.91 91.96 761.37 91.25 761.23 90.57 761.49 89.93 761.12 89.36 760.1 88.84 757.9 88.7 757.5 88.19 757.68 87.67 758.33 87.01 758.35 86.04 758.15 85.48 757.86 83.81 757.38 82.68 756.41 81.01 756.01 80.42 755.43 80.06 755.43 80.06 754.96 79.96 754.26 80.28 753.45 80.99 752.29 81.75 751.12 81.55 750.31 80.5 749.13 80.28 747.6 80.87 746.25 80.85 745.08 80.2 742.83 79.88 742.57 79.38 742.61 78.87 742.97 78.33 743.17 77.04 743.21 74.99 743.51 73.54 744.09 72.7 743.21 72.35 740.89 72.51 738.22 73.2 735.22 74.45 731.96 74.89 728.44 74.51 725.78 74.57 722.82 75.19 722.3 74.99 720.46 75.82 717.26 77.69 714.85 79.4 712.86 81.33 712.57 81.35 712.09 80.91 711.08 80.32 710 80.3 708.85 80.85 707.7 80.5 706.52 79.22 705.45 78.87 704.48 79.42 702.89 79.68 699.39 79.38 699.01 78.96 698.69 77.59 698.32 77 697.64 76.58 696.55 75.05 694.14 71.15 693.49 70.7 691.52 69.49 689.65 68.95 684.94 68.19 683.93 67.66 683.31 67.76 680.19 69.86 680.05 70.32 679.87 70.78 679.36 71.51 678.94 71.85 678.68 71.51 678.42 70.9 678.46 69.55 678.8 67.46 679.78 66.07 679.78 66.07 680.61 64.58 682.88 62.23 682.82 61.7 683.15 60.8 683.15 60.8 686.97 57.78 687.72 56.85 687.57 56.49 686.75 55.99 686.87 55.83 691.18 55.32 692.12 54.7 691.14 53.77 689.57 53.31 687.39 53.31 685.22 53.63 681.29 55.04 679.89 55.93 676.75 59.13 675.13 60.11"/>
        <polygon class="cls-2" points="771.43 93.31 771.61 93.91 771.15 94.78 769.84 95.24 767.18 95.2 765.45 94.86 764.65 94.23 764.47 93.91 764.55 93.21 764.93 93.17 765.51 93.55 766.36 93.39 767.49 92.68 768.09 92.14 768.15 91.78 767.79 91.11 768.09 90.83 769.5 91.09 770.02 91.52 770.97 93.04 771.43 93.31 771.43 93.31"/>
        <polygon class="cls-2" points="747.88 99.24 749.21 99.73 751.62 101.38 753.88 102.34 756.03 102.61 757.6 103.19 758.59 104.08 759.31 105.08 759.74 106.17 760.78 106.79 762.39 106.93 763.66 107.38 764.59 108.18 769.74 110.23 771.89 111.3 773.08 112.35 773.42 113.03 773.32 113.7 773.44 114.42 774.31 115.81 774.65 115.93 774.85 116.6 774.93 117.82 775.19 118.63 775.62 119.05 775.36 119.21 773.77 118.51 772.88 118.73 772.46 119.64 772.4 120.5 772.7 121.31 774.73 123.74 775.26 125.94 775.36 128.61 775.11 129.64 774.89 131.93 774.73 135.46 774.69 136.68 774.01 137.85 772.2 139.54 772.18 139.22 771.75 139.14 771.27 139.4 770.61 140.85 770.06 143.49 769.38 144.92 768.59 145.14 768.11 145.52 767.95 146.06 767.1 146.41 765.53 146.59 764.45 147.39 763.66 149.63 763.7 150.71 763.32 152.04 763.34 153.19 763.76 154.14 765.03 155.1 767.14 156.05 768.39 156.19 769.26 155.79 770.18 154.22 771.05 153.61 772.12 153.35 772.52 152.63 774.29 149.51 774.29 148.82 773.66 148.56 773.75 148.36 774.59 148.24 775.3 147.82 775.92 147.11 776.99 146.57 779.62 145.76 781.03 144.82 781.92 144.66 783.21 145.16 784.9 146.31 786.23 147.98 787.23 150.17 788.48 155.83 789.99 164.94 791.02 170 791.58 171.08 791.86 171.61 790.53 178.69 789.45 181.59 787.59 183.28 785.74 184.91 783.43 187.65 780.89 189 779.6 189.8 779.32 190.31 779 190.15 778.31 191.64 777.69 193.69 777.45 195.26 777.67 196.14 777.13 196.69 776.18 197.73 776 198.1 776.06 198.72 775.86 199.02 775.4 199 775.05 199.3 774.19 200.39 772.7 203.23 772.46 203.75 772.28 203.91 766.06 204.15 759.84 204.38 753.62 204.62 747.4 204.86 747.4 203.41 741.74 203.41 736.08 203.41 730.41 203.41 724.75 203.41 719.08 203.41 713.42 203.41 708.79 203.41 710 202.71 711.99 201.08 713.1 199.63 714.18 197.73 715.21 195.36 717.32 191.8 718.35 189.66 719.34 186.92 720.1 184.05 720.59 181.05 720.83 177.93 720.81 174.69 720.32 171.43 719.34 168.14 718.81 166.45 718.61 165.99 716.84 161.76 714.83 155.83 714.85 155.34 716.72 151.8 716.76 151.32 716.56 148.44 716.16 146.99 715.21 145.04 715.25 144.55 717.2 142.06 718.37 140.17 719.42 137.87 720.12 135.19 720.44 132.11 720.44 130.06 720.1 129.03 720.14 128.23 720.56 127.67 722.64 126.96 723.34 125.75 723.5 123.6 723.91 122.53 724.61 122.55 725.26 122.11 725.86 121.22 726.66 120.96 727.65 121.35 729.02 120.02 730.79 116.96 732.14 115.25 733.09 114.9 733.27 115.17 732.68 116.09 732.5 117.1 732.74 118.19 732.54 119.25 732.1 120.7 732.38 121.16 731.62 123.48 731.58 124.63 732.04 125.51 732.6 125.21 733.23 123.72 733.43 122.92 733.17 122.83 733.27 122.19 733.71 121.02 734.11 120.46 734.45 120.52 734.55 121.16 734.39 122.37 733.37 125.25 733.17 126.12 733.39 126.36 734.61 124.57 735.62 121.71 736.39 119.51 736.53 118.31 736.29 115.21 736.33 113.94 736.63 113.07 737.69 112.07 739.49 110.96 741.28 110.36 743.05 110.29 744.28 109.99 744.98 109.45 744.74 109.03 743.55 108.72 742.65 108.02 742.04 106.95 741.84 105.71 742.04 104.32 742.79 102.95 744.1 101.62 744.52 100.63 744.05 99.99 744.6 99.77 746.21 99.95 747.32 99.77 747.96 99.24 747.88 99.24 747.88 99.24"/>
        <path id="US-MN" class="cls-2" d="M586.69,21.69l2.25-.34,1.93.1,1.93.16,1.03.24,2.98,1.23,1.95,1.01,2.8,1.89,1.55.83.74,1.95.87,2.5h1.23l.93-1.47,2.36-.26,3.12,1.03,2.74,2.92,3.95,2.6,2.4,1.29h2.44l3.12-1.29,3.32-2.48,2.38-.44,1.41.24.79,1.95.99.74,2.56-.22,5.37.38,4.27-.54.97,1.11.87,1.75,1.73.56,2.35-.56,3.7.38-.52.28-.54-.06-.72.42-.89.89-2.05,1.27-3.2,1.67-3.7,1.51-7.49,2.74-4.67,2.84-2.07,1.71-8.03,8.51-4.85,4.51-7.85,6.32-.74.79-.06.74-.34-.02-1.29,1.53-.56.97-1.27.28v15.58l-.62.4-.78.91-1.07.22-5.05,3.18-.83.91-.91,2.13-1.65,2.38-.42,1.27.08,1.71,2.52,1.37.93,1.31.46,1.61-.06,1.39-1.27,2.72-.22,1.09.14,3.32-.64,1.03.52,2.68.04.93-.4,2.94-.28.85.5,1.53.06.16,2.36,2.11,1.99,1.17,1.79.38,1.39.89,1.01,1.43,1.35.93,1.71.44,1.75,1.19,2.66,2.9,1.33,2.46,2.33,1.75,3.78,1.87,2.46,1.65,1.17,1.41.78,3.6.62,7.59-6.18.02h-91.22v-46.86l-1.43-1.97-3.12-1.59-.78-.95-1.45-2.38-.58-1.01-.1-.79.7-.89,2.82-2.58.89-1.19.44-1.15.66-2.66-.26-2.05.18-3.2-.58-2.4-.12-1.19-.36-1.49-2.13-3.93-.52-3.18-.54-1.57-.18-4.05.06-1.15.42-2.21-.89-1.49-.14-1.23-.42-9.74-.28-1.39.08-4.53-1.63-4.79-.78-1.63-.4-1.99.04-.95-1.33-3.28-.89-3.64.08-3.16-.28-2.38.1-1.87-.24-2.8.28-1.59.02-2.48-1.83-8.84h34.16l4.41.04.08-6.02.06-4.77,4.03.58,1.21.87.38.42-.12,1.31.34,3.97.74,3.32,1.69,3.95v.02l.14,1.55.56.97,1.01.89,3.88,1.09,6.72,1.27,3.82,1.45.89,1.65,1.79.66,2.68-.32,1.89-.7,1.73-1.57h0ZM586.69,21.69h-.08.08Z"/>
        <path id="US-MO" class="cls-2" d="M622.92,237.53l-1.09,3.76-.02,3.12.64,3.78.78,2.82.87,1.87,3.16,3.56,5.45,5.21,3.4,4.93,1.39,4.67,1.61,1.87,1.85-.91,2.33.42,2.5.78,1.31.91.3.32.14.34-.1.34-.36.89-3.1,7.71-1.07,3.52.16,1.31,1.25,1.91,2.35,2.48,2.05,1.61,1.77.76,2.74,2.01,3.74,3.22,1.87,2.42v1.61l.38,1.65.78,1.69v1.59l-.78,1.53.3,2.05,1.37,2.58,1.15,1.57.95.54.22-.02.06-.22-.12-.36-.06-.32.08-.44.2-.18.16-.04.89.64,1.31,1.41.6,1.87-.12,2.35-.52,2.23-.87,2.09-.99.72-.44-.12-.95-.38-.38.12-.87.54-.97,2.03-.04.06-.36.2-.26-.2-.04-.12-.18-.6-.42-.62h-.32l-.26.04-.1.3-.1.64.06.28.32,1.73-.28,1.23-.91.5-.14.7.52.79v.36l-.2.28-.64.1-.48.18-.38.64.76,1.21-.16,1.45-1.03,1.71-.14.68-3.42.04-3.08.06-3.08.04-3.08.06,1.47-2.46.93-.87.7-.93,1.25-.87,1.37-1.87.16-.87-.14-.85-.81-1.17-.81-1.83h-83.37v-14.67l-.02-3.04v-6.12l-.02-3.06v-3.06l-.02-3.08v-6.16l-.02-3.1v-3.08l-.02-3.12v-6.22l-.02-3.12v-3.12l.04-.91-2.9-1.67-1.31-1.57-.66-2.03-1.31-2.01-1.97-1.99-.32-2.15,1.31-2.27,1.11-1.17.87-.04.1-.97-.7-1.95-1.01-.72-1.33.5-1.13-.04-4.31-3.14-.3-.22-1.33-2.09-.56-2.48-1.07-1.63-1.61-.76-1.01-1.63-.44-2.54-1.03-2.56-.48-.76,4.67-.02,4.73-.04,4.71-.04,4.73-.04,4.71-.04,4.73-.02,4.71-.04,4.73-.04,4.71-.04,4.71-.04,4.73-.02,4.71-.04,4.73-.04,4.71-.04,4.73-.02,4.71-.04.93,1.79,1.01.52.2.58,1.33.91.3.91,1.65,1.29Z"/>
        <path id="US-MT" class="cls-2" d="M387.78,95.2l.02,6.22.04,6.18.02,6.18.04,6.14v.08l-.02.08v.16h-131.8v9.9l-.02,3.3-1.23-.7-.81-.79-.68-.91-1.27-2.54-.72-.93-.64-.56-.66-.04-.79.32-.62.6-.2,1.05-.6,1.23.04,1.03.26.52-.08.3-.4.22-2.98-.38-2.58.52-1.77-.4-3.4.2-2.94-.36-1.01.18-.66.56-.81,1.39-.22.26-.32.04-4.79-.76-1.27-.02-1.33.91-.42.64-.1.85-.3.24-.42-.04-1.07-.56-1.11-.91-.56-.68-.12-1.53-.89-1.73-.16-1.57-.58-1.33-.87-1.31-.87-.87-.87-.28-1.63.18-.34-.14-1.75-1.75-.54-.76-.16-.7.6-1.69-.18-.93-.44-1.15-.62-.95-1.01-.83-.91-1.81-1.69-2.54-.46-1.97-.66-1.65-.18-1.63-.64-.99.06-1.27-.1-.36-.2-.16-1.13-.72-1.29-1.27-.66-.3h-.28l-.16.32-.1.6-2.07,2.11-1.75.99-.85.97-.78.48-.42.06-.58-.32-1.83-1.43-1.51-.66-.16-.32.08-1.21.7-1.41-.72-2.56.22-.89.56-.62,1.63-.95.16-.46-.36-2.44-.91-.91-.26-.52.28-1.99-.4-1.31.72-1.11.06-1.91.58-1.99.62-2.94-.14-1.27.78-1.37.26-1.39.04-.97-.12-.6-.28-.22h-.56l-2.56.54-.83-.08-.74-.26-.42-.48-.12-1.11-.58-.74-.3-.12-1.17.44-.26-.02-.12-.2-.48-.95-1.89-1.85-.91-2.13-1.83-1.87-1.75-2.56-3.36-4.01-.81-.81-2.54-1.39-2.01-2.03-2.05-1.45-.2-.24-.02-.16.12-.12.58-.4.14-.74-.78-1.53.38-1.49-.52-2.07-.28-.7-1.45-1.93-.95-1.85-1.49-1.71-2.01-2.8V11.02h224.76l.04,5.39.04,5.39.02,5.37.02,5.37.02,5.33.04,5.31.02,5.29.02,5.27.04,5.27.02,5.23.02,5.21.04,5.21.02,5.17.02,5.17.04,5.13.02,5.13Z"/>
        <path id="US-ND" class="cls-2" d="M527.23,95.2h-139.45l-.02-5.13-.04-5.13-.02-5.17-.02-5.17-.04-5.21-.02-5.21-.02-5.23-.04-5.27-.02-5.27-.02-5.29-.04-5.31-.02-5.33-.02-5.37-.02-5.37-.04-5.39-.04-5.39h127.37l1.83,8.84-.02,2.48-.28,1.59.24,2.78-.1,1.87.28,2.38-.08,3.16.89,3.64,1.33,3.28-.04.95.4,1.97.78,1.63,1.65,4.81-.08,4.53.28,1.39.42,9.74.14,1.21.89,1.49-.42,2.21-.06,1.13.18,4.05.52,1.57.52,3.2,2.13,3.93.36,1.49.12,1.19.58,2.4-.18,3.2.26,2.05Z"/>
        <path id="US-NE" class="cls-2" d="M528.64,184.53l.58.12,1.25,2.23.52,3.97,1.13,3.22,1.77,2.42.87,1.77v1.13l.44,1.19.83,1.29.32,2.17-.16,3.08.36,1.63.87.2.4.42-.12.68.28.5.72.32.2.87-.32,1.45.26.89.83.38.16.72-.52,1.03.08.83.68.6.46,2.66.22,4.71-.08,2.74-.38.81.62,1.69,1.13,1.83.48.76,1.03,2.56.44,2.54,1.01,1.63,1.61.76,1.07,1.63.56,2.48,1.33,2.09.3.22h-124.92v-21.4l-.02-3.08h-37.34l-.02-6.2-.02-6.2-.02-6.24v-6.26l-.02-6.28-.02-6.32-.02-6.32-.02-6.36h104.53l5.58,3.8,3.32,1.17,1.59-1.11,3.42-.64,5.27-.16,3.32.52,1.39,1.19,2.7,1.35,4.03,1.49,2.4,1.63.79,1.75,1.41,1.09,1.43.36Z"/>
        <path id="US-NV" class="cls-2" d="M200.16,318.14l-.02,9.1-.04,9.98-.36.14-1.07,2.29-1.19,1.05-.91-.02-.91-.66-.93-1.29-1.41-.76-1.85-.18-1.63.2-1.43.6-.87.85-.48,1.65.16.68.85,1.53.06,2.38.12,1.93.52,1.05.08,1.23-.32,1.95.26,1.59,1.07,2.8-.36,8.09v.16l-5.09-4.83-4.75-4.51-4.75-4.53-4.75-4.55-4.75-4.55-4.75-4.57-4.75-4.59-4.75-4.59-3.42-3.2-3.44-3.2-3.44-3.2-3.42-3.22-3.44-3.22-3.42-3.24-3.44-3.24-3.44-3.24-4.37-3.86-4.39-3.86-4.37-3.88-4.37-3.88-4.39-3.9-4.37-3.9-4.39-3.9-4.37-3.91v-4.51l-.02-4.51v-64.53h69.73l6.96-.02h34.78v46.32l.02,3.8v48.65l.02,3.68v18.32Z"/>
        <path id="US-OH" class="cls-2" d="M827.25,230.97l-2.21,1.07-.42.99.68,1.25.36,1.63.04,1.99-1.23,4.37-2.54,6.72-1.27,4.21-.04,1.73-1.67,2.25-3.3,2.78-2.31,1.67-1.31.58-1.11-.04-.87-.68-.99.46-1.11,1.59-1.01.81-.95.04-.81,1.03-.68,1.99-.64,1.15-.6.3-.04,1.01.5,1.71-.04.62-.28.02-.26-.1-.66.38-.72.95-.28.02-.2-.16-.2-1.25-.6-.87-.95-.52-1.33,1.15-1.71,2.82-.74,1.83.28,1.27.16,1.85-.44.76-.91.28-.74,1.01-.5,1.71-1.29,1.09-2.07.46-2.17-.79-.16-.06-2.56-2.15-1.61-2.07-.68-1.97-2.23-.1-3.82,1.81-2.86.26-1.95-1.23-1.45-.5-1.45.42-1.39.79-1.15-.48-1.43-1.47-2.25-1.03-3.08-.58-2.15-1.61-1.17-2.6-1.27-1.81-1.33-.99-1.49-.28-1.59.4-1.23-.2-.87-.83-1.11.1-1.03.79.02-7.99.08-7.87.06-7.89.06-7.95.06-7.99.06-8.01.08-8.07.06-8.11,6.22-.24,6.24-.22,6.22-.26,6.24-.22.18-.16-.04.08.26.44,1.69.28,1.15.52.89.78,3.26,1.53.99.93.97.52.99.1.66-.3.38-.68.46-.06.56.6,1.83.66.06.2-5.07,1.13-1.05.54,1.27.36,1.27-.08,1.29-.54,1.49.02,1.29.26.42-.22.16-.12,2.21,1.49.83.24.85-.18.89-.56,1.95-.74,3.02-.89,2.9-.38,2.78.18,1.77-.26,1.61-.93,3.56-3.06,4.07-2.46,6.74-3.08,6.52-2.4v30.7l.02,2.6Z"/>
        <path id="US-OR" class="cls-2" d="M28.42,89.54l1.87-.68,1.47.52,1.87,1.21,1.85,3.68,1.81,6.1.4,2.03,1.41,1.25,1.67.06,6.7.89.99-.06h0l1.21-.24,3.8-2.33,4.11-.76,4.87.16,2.98.68,1.09,1.15,2.6.12,6.16-1.35,6.82-.95,3.66-.97,4.15-2.03,9.44-2.58,4.71-.3,2.38-.97.56-.5.34-.02h9.92l4.97-.02h9.94l4.97-.02h9.6l.52,1.17,1.95,2.31,2.76,1.97,1.81,2.07.81,2.15-1.35,4.91-3.52,7.63-1.91,4.85-.32,2.11-1.73,3.56-3.18,5.03-1.55,3.72.08,2.4,1.07,1.41,2.07.38,1.43.79.76,1.17.02,1.11-.72.99-.2,1.03.3,1.07-.24,1.91-1.19,3.9.02.14v6.32l.02,5.72v11.41l.02,5.66v5.64l.02,5.64v5.6H14.66l-5.11-.02-2.36-3.06-1.03-4.57-.2-1.93.28-5.13-.72-2.19-1.79-3.62.78-3.16.81-1.93,2.03-8.41.48-.68.85.02,1.47-1.45-.68-.32-1.03.68.91-3.34,1.03-2.88.66-1.03.34-9.42.6-7.21.97-2.4-.34-2.46.38-3.36-.28-3.4,2.09-16.45-.28-2.01.64-2.68-.6-7.09.26-7.99-.52-1.01-.28-1.11.5-.16.95,1.17,4.45-.02,2.86-1.07,1.03.36,1.19,1.45,1.51.3,1.89-.26Z"/>
        <path id="US-SD" class="cls-2" d="M527.23,95.2l-.64,2.66-.44,1.17-.91,1.17-2.82,2.58-.7.89.1.79.58,1.01,1.45,2.38.78.97,3.1,1.59,1.43,1.97v46.88l-2.7.1.32,1.61.74,1.57.14.91-.16.74-.5.66.12,1.03.14.3,1.23.66.4.91.14,1.03-.02.78-.76,1.43-.2,1.89-.91,2.8-1.01,1.71-.2.87.1.7,1.55,1.81.1.72.5.93.48,2.09-1.43-.36-1.41-1.09-.79-1.75-2.4-1.63-4.03-1.49-2.7-1.35-1.39-1.19-3.32-.52-5.27.16-3.42.64-1.59,1.11-3.32-1.17-5.58-3.8h-104.53l-.02-6.4-.02-6.4-.02-6.44-.02-6.48-.02-6.48-.02-6.52-.02-6.56-.02-6.58h.6v-.16l.02-.08v-.08l-.04-6.14-.02-6.18-.04-6.18-.02-6.22h139.45Z"/>
        <path id="US-TN" class="cls-2" d="M768.35,327.42l4.25.02,9.06.04,6.44.04,5.29.02,3.12.02,3.93.02.87-.48,1.97.08,2.64.1-.85,1.79-.06,1.19-.48,1.77-.02,1.17-1.37.06-.81.3-1.07.78-2.66,4.23-.93.38-1.53-1.09-2.11.46-1.37.79-2.05,2.07-.79.66-.62.24-.44-.02-.22-.34-.18-1.03-.24-.36h-.64l-1.03.4-1.03.7-1.07,1.19-1.41-.1-.26.3-.34,1.39-.56,1.01-.76.78-2.44.6-3.06,2.13-4.23,2.25-3.97.56-1.65.46-1.11.58-2.48,2.31-1.09,2.92-1.25.56-1.93.02-.54.26-.5,1.11-.7,4.83-6.08-.06-6.08-.08-6.06-.08-6.08-.06-3-.04-3-.04-3-.04-3-.02-3-.04-3-.04-3-.02-3-.04-3-.04-3-.04-3-.02-3-.04-3-.04-3-.02-3-.04-3-.04-.24.02.22.28.34.3h-5.09l-4.97-.02h-9.94l-4.97-.02h-9.94l-4.77-.02v-.06l.7-.95,2.13-1.55.93-2.05-.28-2.52.78-2.27,1.85-2.05.76-2.03-.32-2.01.91-1.63,2.17-1.27.3-.52-.08-.38-.04-.44.02-.18.1-.4.48-.22.64-.2.28-.32v-.52l-.38-.91.08-.42.14-.68,1.03-1.71.16-1.45-.76-1.21.38-.64.48-.18.64-.1.2-.28v-.36l-.52-.79.14-.7.91-.5.28-1.23-.32-1.73,1.31-.04.04.12.26.2.36-.2.04-.06h10.17l3.22.02h12.62l.06-.04v-2.07l-.76-2.38h.1l2.52.26,1.65.16.54.72,6.24-.12,6.22-.12,6.22-.12,6.24-.12,6.5.22,6.48.24,6.5.22,6.5.24,6.5.22,6.5.22,6.48.24,6.5.22.16-.06.14-.04.14-.06.16-.06.14-.04.16-.06.14-.04.14-.06Z"/>
        <path id="US-UT" class="cls-2" d="M256.08,197.37l.02,3.14v21.76h37.48v95.93h-17.53l-5.84-.02h-23.35l-5.84-.02h-17.51l-5.84-.02h-17.51v-18.32l-.02-3.68v-48.65l-.02-3.8v-46.32h55.96Z"/>
        <path id="US-WA" class="cls-2" d="M146.72,93.61h-39.73l-.56.5-2.38.97-4.71.3-9.46,2.58-4.15,2.03-3.66.99-6.82.95-6.16,1.35-2.6-.12-1.09-1.15-2.98-.66-4.87-.16-4.11.78-3.8,2.33-1.21.24h0l-.99.08-6.7-.91-1.67-.06-1.43-1.23-.38-2.03-1.81-6.12-1.85-3.68-1.87-1.21-1.47-.5-1.87.68-.58-.38-.89-.1-1.99-1.35-1.13-1.35-3.48.1-.72-.87-3.88.87-1.19-.89-2.11.58.52-2.52-.1-3.18.1-3.1.52,2.27,1.31,2.4.64-2.72.44-3.44-1.29-1.33-2.13-.97-.76-3.22,5.05-2.74-2.68-.58-1.05-1.23-1.29-.16-.1.95-.42,1.25-.46-1.65-.14-1.95-.54-3.34-2.07-5.39-1.25-7.02-1.57-3.48-3.02-3.34-.79-1.95-.72-4.95.4-3.76-.56-2.64,1.45.16,3.82,2.09,4.75,1.63,1.43,1.19,2.31.87,12.74,1.37.83-.14,1.65-.85.7.1,1.87,1.93.93.24,1.21-.1.89-.38,1.53-1.33.2.5-.02,1.23.56,1.75,1.13,2.27.42,1.41-2.29,3.95-.44.08-.06-1.33-.3-.26-4.29,6.68-1.51,3.16-.16,1.43.06.83.6.2,1.37-.32,2.03-1.31.1-.28-1.89.46-.91.04.12-1.49.22-.72,1.23-2.21,1.29-1.33,1.85-1.41,1.07-1.17.74-1.71,2.05-2.05.38-.58-.08-1.69.14-.32.99.22.42,2.88-.24,1.29-1.77,1.57-.22.56.32,2.15-.28.2-.68-.26-.22.14,1.67,2.33.54,1.81.08,1.61-.46,3.08-.5.52-.83-.18-1.11-.95-.24.32-.87,2.38-.3-.22-.56-2.82-.3-.22-1.71,1.29-.68,1.23-.6,1.97-.76.91,2.13.2,1.91-.4,1.53.93.52.02,1.41-.91.44-.62,1.15-2.98.58-.54.87-.02.83-.46,1.23-1.63.04-.66-.46-3.68.14-2.09-.24-.66-.56-.7.08-.68.44-1.09.04-.99-.38-.89.16-1.01,1.17-2.17.22-.95,1.43-2.17-.36-.87-1.05-1.07-.66-.93-.68-1.47-.52-.5-.16.22.72,2.4-.16.16-1.85-1.29-.44-.81-.22-1.11.16-.83.99-.81,1.19-.3-.1-.7-1.49-2.25-.99-1.03-.78-.5-1.03-.14-.46-.38-.12-.54.22-.7.56-.22,1.59.28.85-.5-.08-.89-.26-.5.04-3.22-.62-2.62-.32-.44-.34-.04-.36.36-.99.1-.62-.85-.68-1.67-1.23-3.97h107.45l.04,4.53.02,4.53.02,4.53.02,4.51.02,4.49.02,4.47.02,4.47.02,4.45.02,4.43.02,4.43.02,4.41.02,4.39.02,4.39.02,4.37.02,4.35.02,4.35-.14.26-.12.64.54,1.81,1.25,2.62.4,1.85-.48,1.05.34,1.83.78,1.41h0ZM36.62,20.1l.26.62-.76.6-.54.1-.85-.95-.38-.12.3,1.47-.1.5-1.75-.91-.32-.72.5-.76,1.09-.79.38-.1,2.17,1.07h0ZM32.29,24.95l.5.91-2.01-.6-.85-.54-.26-.52-.3-1.71.14-.56.89-.2,1.69,2.11.2,1.09h0ZM35.89,26.9l-.3.28-.99-.38-.6-.64-.2-.78.38-1.49.5-.38.32.08.14,1.31.89,1.39-.14.6ZM40.54,34.61l.91,3.66.4-1.53,2.54,2.64v1.29l-.32.44-.54.16-.5-.38-.46-.91-.58-.48-1.21-.32-.64-1.03-.22-.72-.06-2.05-.3-.64-.66-.14-.62-.5-.95-1.43-.14-.38.46-1.17,1.03-1.97.76-.93.48.1.58.6.7,1.07-.12.76-2.8,1.49-.1.34,1.35.42.5.38.5,1.23h0ZM41.95,50.23l-.1.54-1.03-.64-.34-.58.04-1.31.26-.85.2-.18.62.38.18.22.18,2.42h0ZM43.88,55.73l-.08.64-.72.5-.38-.12-.02-.74-.2-.12-.78.89.06-1.75.38-1.85.34-.04.5,1.21.89,1.37h0ZM35.29,60.98l-.18.54-.26-.02-.58-1.09-.08-.78.5-.56.68,1.61-.08.3h0Z"/>
        <polygon class="cls-2" points="642.25 77.67 642.16 77.89 642.53 78.89 643.49 78.63 643.9 79.22 644.48 79.48 645.55 79.96 646.07 81.09 646.59 82.22 647.1 83.36 647.62 84.49 649.97 85.15 652.31 85.8 654.66 86.46 657 87.11 659.35 87.77 661.69 88.42 664.04 89.08 666.38 89.74 667.69 90.49 669 91.25 670.32 92 671.63 92.76 673.69 92.9 675.52 93.35 678.09 93.37 680.67 93.95 684.46 95.2 685.36 96.27 685.52 96.99 685.14 98.66 688.76 100.15 690.31 101.26 690.88 102.12 690.78 102.89 691.14 104.52 690.76 105.4 690.76 106.93 689.95 108.54 689.67 109.41 689.65 110.15 689.83 110.62 690.27 110.8 691.64 110.7 692.99 110.21 693.59 110.5 693.71 110.76 693.61 111.2 692.51 113.92 692.55 115.01 693.01 116.09 693.77 117.12 694.66 117.48 694.62 118.15 694.26 119.49 693.21 120.54 690.47 121.87 690.03 122.76 689.97 123.5 688.2 126.56 687.33 128.43 686.75 130.38 686.93 131.61 687.86 132.11 688.62 131.91 689.19 131.01 690.07 130.22 691.26 129.5 692.14 128.45 693.35 125.87 694.7 124.37 695.41 124.3 695.61 124.33 697.02 123.66 698.16 123.88 698.83 124.89 699.53 125.59 699.69 126.24 699.33 127.69 698.69 129.22 697.76 130.83 696.91 133.24 696.15 136.46 695.99 138.88 696.43 140.51 696.01 141.96 694.74 143.23 693.71 144.94 692.93 147.09 692.49 148.88 692.39 150.33 692.51 151.42 692.99 152.89 692.95 153.63 691.56 156.85 691.06 158.42 690.98 159.65 690.64 160.86 689.59 163.33 689.25 164.7 689.19 165.95 689.43 168 689.29 168.69 689.35 169.21 689.61 169.57 689.61 170.2 689.33 171.14 689.43 171.87 689.91 172.39 690.23 173.38 690.37 174.85 690.72 176.06 691.32 177.04 691.42 178.45 691.04 180.3 690.84 183.77 690.84 184.93 688.46 184.91 680.03 184.85 671.61 184.79 663.18 184.73 654.75 184.67 646.33 184.61 637.72 184.55 637.6 184.35 637.03 182.09 635.14 180.4 631.94 179.3 629.89 177.57 629 175.21 628.42 172.55 628.18 169.59 628.44 167.1 629.2 165.09 629 163.74 627.85 163.03 627.09 162.09 626.73 160.94 626.59 159.35 625.98 151.76 625.2 148.16 624.03 146.75 621.57 145.1 617.79 143.23 615.47 141.48 614.13 139.02 611.47 136.12 609.72 134.93 608.01 134.49 606.66 133.56 605.65 132.12 604.26 131.23 602.47 130.85 600.48 129.68 598.12 127.57 598.06 127.41 597.56 125.88 597.84 125.03 598.24 122.09 598.2 121.15 597.68 118.47 598.31 117.44 598.18 114.12 598.39 113.03 599.67 110.3 599.73 108.91 599.27 107.3 598.33 105.99 595.81 104.62 595.73 102.91 596.15 101.64 597.8 99.25 598.71 97.13 599.55 96.21 604.59 93.03 605.67 92.82 606.44 91.9 607.06 91.5 607.06 87.63 607.06 83.73 607.06 79.84 607.06 75.92 608.33 75.65 608.89 74.67 610.18 73.14 610.52 73.16 610.52 73.18 611.15 73.88 612.74 74.89 613.99 75.01 615.58 74.79 621.88 73.04 624.55 71.83 627.15 69.78 627.41 69.72 628.5 70.1 628.84 70.28 632.24 67.93 633.35 67.64 634.23 67.7 635.32 68.61 635.58 69.17 635.22 70.24 634.25 71.83 633.77 73.16 633.79 74.25 633.37 75.43 632.3 77.02 632.68 77.45 635.54 76.3 635.95 75.86 635.99 75.61 635.82 75.29 636.15 75.15 638.4 76.72 639.91 77.59 641.16 78.01 642.25 77.67 642.25 77.67"/>
        <polygon class="cls-2" points="706.17 113.9 705.83 114.24 705.25 114.02 705.03 114.52 705.15 115.73 704.95 116.29 704.44 116.19 704.42 116.41 704.87 116.94 704.91 117.54 704.56 118.17 704.22 118.47 703.88 118.43 703.36 119.17 702.67 120.68 702.43 121.55 702.65 121.79 702.49 122.29 700.76 124.57 700.11 124.79 699.37 124.47 698.85 123.8 698.56 122.78 698.48 121.99 698.59 121.43 700.11 119.41 700.78 118.07 701.16 116.58 701.85 115.63 702.89 115.21 703.72 114.28 704.36 112.83 705.09 112.19 705.93 112.37 706.29 112.93 706.17 113.9 706.17 113.9"/>
      </g>
      <g id="BW_abv" data-name="BW abv">
        <g>
          <path class="cls-1" d="M84.82,318.42c0-2.41,1.45-4.29,3.9-4.29,1.92,0,3.08,1.1,3.3,2.62h-1.01c-.2-1.02-1.01-1.72-2.31-1.72-1.81,0-2.82,1.46-2.82,3.39s1.11,3.37,2.83,3.37c1.55,0,2.29-1.06,2.39-2.26h1.02c-.01.82-.4,1.74-.99,2.31-.57.56-1.41.86-2.46.86-2.33,0-3.85-1.78-3.85-4.28Z"/>
          <path class="cls-1" d="M95.47,314.32h1.16l3.04,8.22h-1.13l-.87-2.51h-3.28l-.89,2.51h-1.06l3.02-8.22ZM94.69,319.19h2.69l-.94-2.76c-.16-.46-.37-1.16-.37-1.16h-.02s-.22.69-.38,1.16l-.98,2.76Z"/>
        </g>
        <g>
          <path class="cls-1" d="M73.26,149.33c0-2.46,1.54-4.29,4.02-4.29s4.02,1.83,4.02,4.29-1.54,4.29-4.02,4.29-4.02-1.83-4.02-4.29ZM80.25,149.33c0-1.93-1.03-3.39-2.97-3.39s-2.97,1.46-2.97,3.39,1.03,3.38,2.97,3.38,2.97-1.45,2.97-3.38Z"/>
          <path class="cls-1" d="M82.53,145.22h3.84c1.45,0,2.43.91,2.43,2.25,0,1-.44,1.71-1.43,2.04v.03c.84.3,1.1.87,1.18,2.09.09,1.32.23,1.66.38,1.76v.05h-1.12c-.17-.15-.21-.46-.3-1.84-.08-1.21-.56-1.63-1.67-1.63h-2.29v3.47h-1.03v-8.22ZM83.57,149.13h2.44c1.15,0,1.72-.57,1.72-1.51,0-1-.46-1.51-1.67-1.51h-2.49v3.01Z"/>
        </g>
        <g>
          <path class="cls-1" d="M72.58,50.9h1.08l1.3,5.35c.14.55.31,1.39.31,1.39h.02s.2-.87.35-1.41l1.48-5.32h1.12l1.44,5.32c.15.55.33,1.41.33,1.41h.02s.2-.89.32-1.39l1.37-5.35h1.05l-2.29,8.22h-.99l-1.51-5.79c-.13-.48-.3-1.25-.3-1.25h-.02s-.17.77-.31,1.25l-1.61,5.79h-1.03l-2.13-8.22Z"/>
          <path class="cls-1" d="M85.43,50.9h1.16l3.04,8.22h-1.13l-.87-2.51h-3.28l-.89,2.51h-1.06l3.02-8.22ZM84.64,55.77h2.69l-.94-2.76c-.16-.46-.37-1.16-.37-1.16h-.02s-.22.69-.38,1.16l-.98,2.76Z"/>
        </g>
        <g>
          <path class="cls-1" d="M187.79,145.22h1.03v8.22h-1.03v-8.22Z"/>
          <path class="cls-1" d="M190.39,145.22h2.99c2.47,0,3.64,1.68,3.64,4.14s-1.25,4.08-3.73,4.08h-2.91v-8.22ZM193.26,152.53c1.93,0,2.7-1.24,2.7-3.17s-.69-3.24-2.62-3.24h-1.92v6.42h1.84Z"/>
        </g>
        <g>
          <path class="cls-1" d="M239.05,265.69v-5.56h1.03v5.46c0,1.4.79,2,2.15,2s2.08-.6,2.08-2v-5.46h1.03v5.56c0,1.99-1.39,2.78-3.15,2.78s-3.15-.79-3.15-2.78Z"/>
          <path class="cls-1" d="M246.23,260.13h6.51v.91h-2.74v7.31h-1.03v-7.31h-2.74v-.91Z"/>
        </g>
        <g>
          <path class="cls-1" d="M285.82,50.9h1.32l2.67,6.83h.02l2.64-6.83h1.35v8.22h-.99v-6.76h-.02s-.22.64-.37,1.03l-2.25,5.73h-.79l-2.25-5.73c-.16-.41-.37-1.03-.37-1.03h-.02v6.76h-.93v-8.22Z"/>
          <path class="cls-1" d="M294.84,50.9h6.51v.91h-2.74v7.31h-1.03v-7.31h-2.74v-.91Z"/>
        </g>
        <g>
          <path class="cls-1" d="M449.99,50.9h1.09l3.75,5.71c.28.43.6,1.06.6,1.06h.02v-6.77h.97v8.22h-1.06l-3.77-5.73c-.26-.4-.61-1.02-.61-1.02h-.02v6.75h-.97v-8.22Z"/>
          <path class="cls-1" d="M457.95,50.9h2.99c2.47,0,3.64,1.68,3.64,4.14s-1.25,4.08-3.73,4.08h-2.91v-8.22ZM460.83,58.21c1.93,0,2.7-1.24,2.7-3.17s-.69-3.24-2.62-3.24h-1.92v6.42h1.84Z"/>
        </g>
        <g>
          <path class="cls-1" d="M451.81,137.43h1.01c.14,1.39.99,2.12,2.54,2.12,1.14,0,1.95-.52,1.95-1.54,0-1.13-.99-1.39-2.46-1.71-1.45-.32-2.69-.74-2.69-2.29,0-1.36,1.13-2.17,2.79-2.17,2.06,0,2.91,1.05,3.12,2.56h-.98c-.15-1.17-.91-1.76-2.12-1.76-1.12,0-1.85.47-1.85,1.32,0,.93.92,1.21,2.15,1.45,1.6.32,3.06.71,3.06,2.56,0,1.54-1.25,2.4-3.02,2.4-2.31,0-3.41-1.29-3.51-2.94Z"/>
          <path class="cls-1" d="M459.52,131.99h2.99c2.47,0,3.64,1.68,3.64,4.14s-1.25,4.08-3.73,4.08h-2.91v-8.22ZM462.4,139.3c1.93,0,2.7-1.24,2.7-3.17s-.69-3.24-2.62-3.24h-1.92v6.42h1.84Z"/>
        </g>
        <g>
          <path class="cls-1" d="M461.7,205.13h1.09l3.75,5.71c.28.43.6,1.06.6,1.06h.02v-6.77h.97v8.22h-1.06l-3.77-5.73c-.26-.4-.61-1.02-.61-1.02h-.02v6.75h-.97v-8.22Z"/>
          <path class="cls-1" d="M469.66,205.13h5.81v.91h-4.77v2.6h4.33v.87h-4.33v2.89h4.91v.95h-5.94v-8.22Z"/>
        </g>
        <g>
          <path class="cls-1" d="M578.87,191.13h1.03v8.22h-1.03v-8.22Z"/>
          <path class="cls-1" d="M583.84,191.13h1.16l3.03,8.22h-1.13l-.87-2.51h-3.28l-.88,2.51h-1.06l3.02-8.22ZM583.06,196h2.69l-.94-2.76c-.16-.46-.37-1.16-.37-1.16h-.02s-.22.69-.38,1.16l-.98,2.76Z"/>
        </g>
        <g>
          <path class="cls-1" d="M558.85,100.51h1.32l2.67,6.83h.02l2.64-6.83h1.35v8.22h-.99v-6.76h-.02s-.22.64-.37,1.03l-2.25,5.73h-.79l-2.25-5.73c-.16-.41-.37-1.03-.37-1.03h-.02v6.76h-.93v-8.22Z"/>
          <path class="cls-1" d="M568.39,100.51h1.09l3.75,5.71c.28.43.6,1.06.6,1.06h.02v-6.77h.97v8.22h-1.06l-3.77-5.73c-.26-.4-.61-1.02-.61-1.02h-.02v6.75h-.97v-8.22Z"/>
        </g>
        <g>
          <path class="cls-1" d="M647.1,127.72h1.08l1.3,5.35c.14.55.31,1.39.31,1.39h.02s.2-.87.35-1.41l1.48-5.32h1.11l1.44,5.32c.15.55.33,1.41.33,1.41h.02s.2-.89.32-1.39l1.37-5.35h1.05l-2.29,8.22h-.99l-1.51-5.79c-.13-.48-.3-1.25-.3-1.25h-.02s-.17.77-.31,1.25l-1.61,5.79h-1.03l-2.13-8.22Z"/>
          <path class="cls-1" d="M658.24,127.72h1.03v8.22h-1.03v-8.22Z"/>
        </g>
        <g>
          <path class="cls-1" d="M721.06,227.42h1.03v8.22h-1.03v-8.22Z"/>
          <path class="cls-1" d="M723.66,227.42h1.09l3.75,5.71c.28.43.6,1.06.6,1.06h.02v-6.77h.97v8.22h-1.06l-3.77-5.73c-.26-.4-.61-1.02-.61-1.02h-.02v6.75h-.97v-8.22Z"/>
        </g>
        <g>
          <path class="cls-1" d="M779.14,231.53c0-2.46,1.54-4.29,4.02-4.29s4.02,1.83,4.02,4.29-1.54,4.29-4.02,4.29-4.02-1.83-4.02-4.29ZM786.13,231.53c0-1.93-1.03-3.39-2.97-3.39s-2.97,1.46-2.97,3.39,1.03,3.38,2.97,3.38,2.97-1.45,2.97-3.38Z"/>
          <path class="cls-1" d="M788.42,227.43h1.03v3.5h4.39v-3.5h1.03v8.22h-1.03v-3.89h-4.39v3.89h-1.03v-8.22Z"/>
        </g>
        <g>
          <path class="cls-1" d="M739.88,303.78h1.03v4.08l4.05-4.08h1.3l-3.32,3.29,3.6,4.93h-1.21l-3.09-4.23-1.32,1.32v2.91h-1.03v-8.22Z"/>
          <path class="cls-1" d="M749.61,308.52l-2.98-4.74h1.15l2.36,3.91h.02l2.39-3.91h1.1l-3.01,4.76v3.46h-1.03v-3.48Z"/>
        </g>
        <g>
          <path class="cls-1" d="M711.62,340.84h6.51v.91h-2.74v7.31h-1.03v-7.31h-2.74v-.91Z"/>
          <path class="cls-1" d="M719.15,340.84h1.09l3.75,5.71c.28.43.6,1.06.6,1.06h.02v-6.77h.97v8.22h-1.06l-3.77-5.73c-.26-.4-.61-1.02-.61-1.02h-.02v6.75h-.97v-8.22Z"/>
        </g>
        <g>
          <path class="cls-1" d="M746.77,162.28h1.32l2.67,6.83h.02l2.64-6.83h1.35v8.22h-.99v-6.76h-.02s-.22.64-.37,1.03l-2.25,5.73h-.79l-2.25-5.73c-.16-.41-.37-1.03-.37-1.03h-.02v6.76h-.93v-8.22Z"/>
          <path class="cls-1" d="M756.33,162.28h1.04v8.22h-1.04v-8.22Z"/>
        </g>
        <g>
          <path class="cls-1" d="M662.33,227.42h1.03v8.22h-1.03v-8.22Z"/>
          <path class="cls-1" d="M664.93,227.42h1.03v7.27h4.31v.95h-5.35v-8.22Z"/>
        </g>
        <g>
          <path class="cls-1" d="M594.73,277.5h1.32l2.67,6.83h.02l2.64-6.83h1.35v8.22h-.99v-6.76h-.02s-.22.64-.37,1.03l-2.25,5.73h-.79l-2.25-5.73c-.16-.41-.37-1.03-.37-1.03h-.02v6.76h-.93v-8.22Z"/>
          <path class="cls-1" d="M604,281.78c0-2.55,1.21-4.12,3.07-4.12s3.05,1.54,3.05,4.12-1.09,4.12-3.06,4.12-3.06-1.61-3.06-4.12ZM609.12,281.78c0-2-.68-3.29-2.05-3.29s-2.07,1.25-2.07,3.29.68,3.28,2.07,3.28,2.05-1.24,2.05-3.28Z"/>
        </g>
        <g>
          <path class="cls-1" d="M241.89,373.11h1.16l3.04,8.22h-1.13l-.87-2.51h-3.28l-.89,2.51h-1.06l3.02-8.22ZM241.1,377.99h2.69l-.94-2.76c-.16-.46-.37-1.16-.37-1.16h-.02s-.22.69-.38,1.16l-.98,2.76Z"/>
          <path class="cls-1" d="M246.54,380.34l4.92-6.32v-.03h-4.63v-.87h5.91v.81l-4.99,6.45v.03h5.19v.93h-6.39v-.99Z"/>
        </g>
        <g>
          <path class="cls-1" d="M146.59,260.19h1.09l3.75,5.71c.28.43.6,1.06.6,1.06h.02v-6.77h.97v8.22h-1.06l-3.77-5.73c-.26-.4-.61-1.02-.61-1.02h-.02v6.75h-.97v-8.22Z"/>
          <path class="cls-1" d="M153.9,260.19h1.12l2.02,6.12c.13.38.32,1.1.32,1.1h.02s.2-.74.32-1.1l2-6.12h1.08l-2.89,8.22h-1.14l-2.86-8.22Z"/>
        </g>
        <g>
          <path class="cls-1" d="M284.49,558.12h1.03v3.5h4.39v-3.5h1.03v8.22h-1.03v-3.89h-4.39v3.89h-1.03v-8.22Z"/>
          <path class="cls-1" d="M292.51,558.12h1.03v8.22h-1.03v-8.22Z"/>
        </g>
        <g>
          <path class="cls-1" d="M98.46,486.89h1.16l3.04,8.22h-1.13l-.87-2.51h-3.28l-.89,2.51h-1.06l3.02-8.22ZM97.67,491.77h2.69l-.94-2.76c-.16-.46-.37-1.16-.37-1.16h-.02s-.22.69-.38,1.16l-.98,2.76Z"/>
          <path class="cls-1" d="M103.53,486.89h1.03v4.08l4.05-4.08h1.3l-3.32,3.29,3.6,4.93h-1.21l-3.09-4.23-1.32,1.32v2.91h-1.03v-8.22Z"/>
        </g>
      </g>
    </g>
  </g>
</svg>