<?xml version="1.0" encoding="UTF-8"?>
<svg id="Layer_2" data-name="Layer 2" xmlns="http://www.w3.org/2000/svg" viewBox="0 0 1080.37 576.93">
  <defs>
    <style>
      .cls-1 {
        fill: #dbdce2;
        stroke: #dbdce2;
        stroke-miterlimit: 10;
        stroke-width: .25px;
      }
    </style>
  </defs>
  <g id="USA_Base" data-name="USA Base">
    <g id="USA_MAP" data-name="USA MAP">
      <path id="HI" class="cls-1" d="M206.38,514.86l5.67,2.39,1.94-.3,1.49-3.58-.6-3.13-3.88-.45-3.73,1.64-.9,3.43h0ZM234.73,524.11l3.43,5.07,2.24-.3,1.04-.45,1.34,1.19,3.43-.15.9-1.34-2.69-1.64-1.79-3.43-1.94-3.28-5.37,2.69-.6,1.64h0ZM253.38,532.31l1.19-1.79,4.33.9.6-.45,5.67.6-.3,1.19-2.39,1.34-4.03-.3-5.07-1.49ZM258.31,537.09l1.79,3.58,2.84-1.04.3-1.49-1.49-1.94-3.43-.3v1.19h0ZM264.72,536.04l2.09-2.69,4.33,2.24,4.03,1.04,4.03,2.54v1.79l-3.28,1.64-4.48.9-2.24-1.34-4.48-6.12h0ZM280.09,550.37l1.49-1.19,3.13,1.49,7.01,3.28,3.13,1.94,1.49,2.24,1.79,4.03,3.73,2.39-.3,1.19-3.58,2.98-3.88,1.34-1.34-.6-2.84,1.64-2.24,2.98-2.09,2.69-1.64-.15-3.28-2.39-.3-4.18.6-2.24-1.49-5.22-1.94-1.64-.15-2.39,2.09-.9,1.94-2.84.45-.9-1.49-1.64-.3-1.94h0Z"/>
      <path id="AK" class="cls-1" d="M140.65,452.04l-.3,78.79,1.49.9,2.84.15,1.34-1.04h2.39l.15,2.69,6.42,6.27.45,2.39,3.13-1.79.6-.15.3-2.84,1.34-1.49,1.04-.15,1.79-1.34,2.84,1.94.6,2.69,1.79,1.04,1.04,2.24,3.58,1.64,3.13,5.52,2.54,3.58,2.09,2.54,1.34,3.43,4.63,1.64,4.77,1.94.9,4.03.45,2.84-.9,3.13-1.64,2.09-1.49-.75-1.34-2.84-2.54-1.34-1.64-1.04-.75.75,1.34,2.54.15,3.43-1.04.45-1.79-1.79-1.94-1.19.45,1.49,1.19,1.64-.75.75s-.75-.3-1.19-.9c-.45-.6-1.94-3.13-1.94-3.13l-.9-2.09s-.3,1.19-.9.9c-.6-.3-1.19-1.34-1.19-1.34l1.64-1.79-1.34-1.34v-4.63h-.75l-.75,3.13-1.04.45-.9-3.43-.6-3.43-.75-.45.3,5.22v1.04l-1.34-1.19-3.28-5.52-1.94-.45-.6-3.43-1.49-2.69-1.49-1.04v-2.09l1.94-1.19-.45-.3-2.39.6-3.13-2.24-2.39-2.69-4.48-2.39-3.73-2.39,1.19-2.98v-1.49l-1.64,1.49-2.69,1.04-3.43-1.04-5.22-2.24h-5.07l-.6.45-5.97-3.58-1.94-.3-2.54-5.37-3.28.3-3.28,1.34.45,4.18,1.04-2.69.9.3-1.34,4.03,2.98-2.54.6,1.49-3.58,4.03-1.19-.3-.45-1.79-1.19-.75-1.19,1.04-2.54-1.64-2.84,1.94-1.64,1.94-3.13,1.94-4.33-.15-.45-1.94,3.43-.6v-1.19l-2.09-.6.9-2.24,2.09-3.58v-1.64l.15-.75,4.03-2.09.9,1.19h2.54l-1.19-2.39-3.43-.3-4.63,2.54-2.24,3.13-1.64,2.39-1.04,2.09-3.88,1.34-2.84,2.39-.3,1.49,2.09.9.75,1.94-2.54,2.98-5.97,3.88-7.16,3.88-1.94,1.04-4.92,1.04-4.92,2.09,1.64,1.19-1.34,1.34-.45,1.04-2.54-.9-2.98.15-.75,2.09h-.9l.3-2.24-3.28,1.19-2.69.9-3.13-1.19-2.69,1.79h-2.98l-1.94,1.19-1.49.75-1.94-.3-2.39-1.04-2.09.6-.9.9-1.49-1.04v-1.79l2.84-1.19,5.82.6,4.03-1.49,1.94-1.94,2.69-.6,1.64-.75,2.54.15,1.49,1.19.9-.3,2.09-2.54,2.84-.9,3.13-.6,1.19-.3.6.45h.75l1.19-3.43,3.73-1.34,1.79-3.43,2.09-4.18,1.49-1.34.3-2.39-1.49,1.19-3.13.6-.6-2.24-1.19-.3-.9.9-.15,2.69-1.34-.15-1.34-5.37-1.19,1.19-1.04-.45-.3-1.79-3.73.15-1.94,1.04-2.39-.3,1.34-1.34.45-2.39-.6-1.79,1.34-.9,1.19-.15-.6-1.64v-4.03l-.9-.9-.75,1.34h-5.67l-1.34-1.19-.6-3.58-1.94-3.28v-.9l1.94-.75.15-1.94,1.04-1.04-.75-.45-1.19.45-1.04-2.54.9-4.63,4.18-2.98,2.39-1.49,1.79-3.43,2.54-1.19,2.39,1.04.3,2.24,2.24-.3,2.98-2.24,1.49.6.9.6h1.49l2.09-1.19.75-4.03s.3-2.69.9-3.13.9-.9.9-.9l-1.04-1.79-2.39.75-2.98.75-1.79-.45-3.28-1.64-4.63-.15-3.28-3.43.45-3.58.6-2.24-1.94-1.64-1.79-3.43.45-.75,6.27-.45h1.94l.9.9h.6l-.15-1.49,3.58-.6,2.39.3,1.34,1.04-1.34,1.94-.45,1.34,2.54,1.49,4.63,1.64,1.64-.9-2.09-4.03-.9-2.98.9-.75-3.13-1.79-.45-1.04.45-1.49-.75-3.58-2.69-4.33-2.24-3.88,2.69-1.79h2.98l1.64.6,3.88-.15,3.43-3.28,1.04-2.84,3.43-2.24,1.49.9,2.54-.6,3.43-1.94,1.04-.15.9.75,4.18-.15,2.54-2.84h1.04l3.28,2.24,1.79,1.94-.45,1.04.6,1.04,1.49-1.49,3.58.3.3,3.43,1.79,1.34,6.57.6,5.82,3.88,1.34-.9,4.77,2.39,1.94-.6,1.79-.75,4.48,1.79,4.03,2.69h0ZM.24,564.1l3.13-2.09,3.13-.9,2.39.3.45,1.49,1.79.45,1.79-1.79-.3-1.49,2.54-.6,2.69,2.39-1.04,1.64-4.03,1.04-2.54-.45-3.43-1.04-4.03,1.34-1.49.3-1.04-.6ZM77.98,549.47l1.04,5.37,2.69.75,4.63-2.69,4.03-2.39-1.49-2.24.45-2.24-1.94,1.19-2.69-.75,1.49-1.04,1.79.75,3.58-1.64.45-1.34-2.24-.75.75-1.79-2.54,1.79-4.33,3.28-4.48,2.69-1.19,1.04ZM117.07,531.12l2.24-1.34-.9-1.64-1.64.9.3,2.09Z"/>
      <path id="US-AZ" class="cls-1" d="M293.34,318.05v8.27l-.02,8.21v111.31h-4.25l-6.62.02-6.62.02-6.6.02h-6.62l-6.62.02-8.86-3.22-8.88-3.24-8.86-3.24-8.86-3.24-8.88-3.26-8.86-3.26-8.88-3.26-8.86-3.26.89-1.25,1.17-3.32.08-.2h0l2.6-.24,1.23-.83.72-1.53.16-1.57-.4-1.57-1.13-1.19-1.81-.78-1.05-2.17-.28-3.6.32-1.95.95-.28.91-.87.85-1.47.66-1.61.42-1.75.08-2.21-.26-2.68,1.69-3.3,1.67-2.05,3.1-2.5.72-.76v-.68l-.64-.87-2.78-1.75-1.19-1.25-.1-1.15-.04-.02-.36-1.11-2.98-4.65-.99-2.54v-2.07l.36-8.09-1.07-2.8-.26-1.59.32-1.95-.08-1.23-.52-1.05-.12-1.93-.06-2.38-.85-1.53-.16-.68.48-1.65.87-.85,1.43-.6,1.63-.2,1.85.18,1.41.76.93,1.29.91.66.91.02,1.19-1.05,1.07-2.29.36-.14.04-9.98.02-9.1h17.51l5.84.02h17.51l5.84.02h23.35l5.84.02h17.53Z"/>
      <polygon class="cls-1" points="88.41 197.24 88.41 201.93 88.41 206.62 88.41 211.29 88.41 215.94 88.41 220.6 88.41 225.23 88.41 229.84 88.41 234.45 88.41 239.04 88.41 243.61 88.41 248.18 88.41 252.73 88.41 257.26 88.41 261.79 88.41 266.3 88.41 270.81 92.81 274.73 97.2 278.64 101.57 282.54 105.96 286.43 110.33 290.31 114.73 294.19 119.12 298.04 123.49 301.9 126.93 305.14 130.37 308.37 133.8 311.61 137.24 314.83 140.68 318.05 144.12 321.27 147.56 324.47 150.99 327.67 155.74 332.26 160.49 336.83 165.24 341.4 169.99 345.95 174.74 350.51 179.49 355.04 184.24 359.57 189.33 364.38 189.33 366.28 190.32 368.85 193.3 373.48 193.66 374.59 193.7 374.61 193.82 375.76 194.99 377.02 197.78 378.76 198.41 379.62 198.41 379.7 198.39 380.31 197.68 381.07 194.58 383.57 192.91 385.62 191.22 388.92 191.48 391.6 191.4 393.81 190.98 395.56 190.34 397.17 189.47 398.64 188.55 399.51 187.6 399.79 187.26 401.74 187.54 405.32 188.59 407.5 190.42 408.28 191.54 409.45 191.95 411.04 191.79 412.59 191.06 414.12 189.83 414.95 187.22 415.17 187.22 415.17 187.14 415.37 185 415.61 179.65 416.09 174.31 416.56 168.96 417.04 163.61 417.52 158.27 417.99 152.92 418.47 147.58 418.95 142.23 419.42 142.19 419.29 142.07 416.86 141.2 416.01 140.08 416.54 139.57 413.4 139.85 411.91 139.71 410.46 138.65 406.89 135.87 402.53 129.87 397.11 126.81 395.3 124.4 392.99 122.87 392.36 120.97 392.18 120.41 393.21 118.24 392.5 118.56 389.93 116.44 386.36 114.71 385.96 110.35 386.2 104.53 384.23 102.8 383.06 102.21 380.95 99.46 379.12 95.87 377.33 93.86 377.75 91.24 377.47 87.5 376.18 85.31 376.02 81.06 376.4 79.47 376.12 78 374.49 76.41 373.68 76.75 371.67 76.55 369.84 76.79 368.43 76.07 365.31 76.63 362.41 76.15 361.36 75.26 360.56 72.44 359.37 71.92 357.88 72.38 355.81 71.64 354.44 69.34 353.17 67.19 350.27 64.47 348.68 63.35 346.01 61.67 344.36 61.09 342.89 57.35 337.67 53.36 333.57 52.74 331.21 52.58 327.97 54.15 326 54.99 324.25 54.91 322.66 54.67 321.49 53.3 319.44 47.99 318.23 43.68 313.18 43.42 309.31 41.73 305.33 41.71 302.75 41.45 299.95 42.75 299.33 43.9 299.55 43.78 300.66 44.16 302.67 45.51 304.18 46.8 304.84 47.97 306.31 48.85 306.74 49.76 306.84 49.26 305.91 48.75 305.31 48.11 303.37 46.92 300.88 45.55 299.51 44.85 297.01 44.26 296.43 43.88 295.5 45.21 294.38 47.04 293.59 49.48 293.37 56.4 293.73 57.87 293.09 59.08 293.31 59.98 293.23 58.11 292.58 57.05 292.79 55.8 292.65 53.34 292.79 52.34 292.52 51.23 291.72 50.52 291.64 48.23 293.01 47.22 292.85 44.81 291.36 43.76 291.14 42.07 292 41.87 295.68 42.39 298.4 41.37 298.68 40.2 297.54 38.39 296.87 36.9 295.85 34.8 293.95 33.68 293.25 32.43 294.84 32.39 294.11 33.01 292.28 32.83 289.2 34.72 291.66 34.14 289.93 32.67 288.02 31.56 287.37 30.15 283.95 26.99 281.88 24.46 278.54 19.3 273 18.96 268.11 17.07 261.91 17.87 258.37 17.77 255.87 16.83 252.07 15.86 250.01 11.66 244.32 7.63 240.49 7.01 237.59 6.74 234.65 7.61 232.02 8.37 229.26 8.92 228.52 9.14 228.82 8.98 229.42 9.56 229.6 9.78 228.39 10.11 227.75 9.52 227.67 9.58 227.29 9.94 226.52 11.19 222.88 11.07 218.29 12.4 212.63 12.34 210.76 11.49 206.72 10.63 204.3 9.1 202.57 9.78 200.05 9.72 197.64 9.4 197.24 14.51 197.24 19.44 197.24 24.36 197.24 29.29 197.24 34.22 197.24 39.15 197.24 44.08 197.24 49.01 197.24 53.93 197.24 58.86 197.24 63.79 197.24 68.72 197.24 73.65 197.24 78.58 197.24 83.51 197.24 88.41 197.24 88.41 197.24"/>
      <path id="US-ID" class="cls-1" d="M255.82,133.29v4.07l.02,4.05v55.8h-90.74l-6.96.02h-13.91v-5.6l-.02-5.64v-5.64l-.02-5.66v-11.41l-.02-5.72v-6.32l-.02-.14,1.19-3.9.24-1.91-.3-1.07.2-1.03.72-.99-.02-1.11-.76-1.17-1.43-.79-2.07-.38-1.07-1.41-.08-2.4,1.55-3.72,3.18-5.03,1.73-3.56.32-2.11,1.91-4.85,3.52-7.63,1.35-4.91-.81-2.15-1.81-2.07-2.76-1.97-1.95-2.31-.52-1.17-.64-1.45-.32-1.83.48-1.05-.4-1.85-1.25-2.64-.54-1.79.12-.64.14-.26-.02-4.33v-4.37l-.02-4.37-.02-4.37-.02-4.39-.02-4.41v-4.43l-.02-4.43-.02-4.45-.02-4.45v-4.49l-.02-4.49-.02-4.51-.02-4.51v-4.53l-.04-4.53h18.52v27.82l2.01,2.8,1.49,1.71.95,1.85,1.45,1.93.28.7.52,2.07-.38,1.49.78,1.53-.14.74-.58.4-.12.12.02.16.2.24,2.05,1.45,2.01,2.03,2.54,1.39.81.81,3.36,4.01,1.75,2.56,1.83,1.87.91,2.13,1.89,1.85.48.95.12.2.26.02,1.17-.44.3.12.58.74.12,1.11.42.48.74.26.83.08,2.56-.54h.56l.28.22.12.6-.04.97-.26,1.39-.78,1.37.14,1.27-.62,2.94-.58,1.99-.06,1.91-.72,1.11.4,1.31-.28,1.99.26.52.91.91.36,2.44-.16.46-1.63.95-.56.62-.22.89.72,2.56-.7,1.41-.08,1.21.16.32,1.51.66,1.83,1.43.58.32.42-.06.78-.48.85-.97,1.75-.99,2.07-2.11.1-.6.16-.32h.28l.66.3,1.29,1.27,1.13.72.2.16.1.36-.06,1.27.64.99.18,1.63.66,1.65.46,1.97,1.69,2.54.91,1.81,1.01.83.62.95.44,1.15.18.93-.6,1.69.16.7.54.76,1.75,1.75.34.14,1.63-.18.87.28.87.87.87,1.31.58,1.33.16,1.57.89,1.73.12,1.53.56.68,1.11.91,1.07.56.42.04.3-.24.1-.85.42-.64,1.33-.91,1.27.02,4.79.76.32-.04.22-.26.81-1.39.66-.56,1.01-.18,2.94.36,3.4-.2,1.77.4,2.58-.52,2.98.38.4-.22.08-.3-.26-.52-.04-1.03.6-1.23.2-1.05.62-.6.79-.32.66.04.64.56.72.93,1.27,2.54.68.91.81.79,1.23.7Z"/>
      <path id="US-KS" class="cls-1" d="M563.26,318.05h-138.34l-.02-4.37v-4.39l-.02-4.39-.02-4.41v-4.43l-.02-4.43-.02-4.45-.02-4.45v-4.47l-.02-4.49-.02-4.49v-4.49l-.02-4.53-.02-4.53v-4.53l-.02-4.57h124.92l4.31,3.14,1.13.04,1.33-.5,1.01.72.7,1.95-.1.97-.87.04-1.11,1.17-1.31,2.27.32,2.15,1.97,1.99,1.31,2.01.66,2.03,1.31,1.57,2.9,1.67-.04.91v3.12l.02,3.12v6.22l.02,3.12v3.08l.02,3.1v6.16l.02,3.08v3.06l.02,3.06v6.12l.02,3.04v3.04Z"/>
      <path id="US-KY" class="cls-1" d="M787.85,283.97l.44.66.2,3.52-.14.7-.64,1.43.04.76.54,1.19,1.99,2.74.2,1.07.78,1.05.68,1.55,2.13,3.32,3.3,2.74,2.58.74-7.07,5.7-3.24,2.07-3.08,1.65-.26.28-.7,1.83-1.87,1.61-1.17,1.69-2.8,1.41-1.99,1.93-4.99,1.89-2.8.66-1.89,1.11-.14.06-.14.06-.14.06-.14.06-.14.06-.14.06-.14.06-.14.06-6.5-.22-6.5-.22-6.5-.22-6.5-.22-6.5-.22-6.5-.22-6.5-.22-6.5-.22-6.22.12-6.22.12-6.22.12-6.22.12-.56-.72-1.63-.16-2.52-.26h-.1l.74,2.38.02,2.07-.06.02h-26.07l.99-2.03.85-.54.4-.1.93.38.46.14.99-.72.87-2.09.5-2.23.14-2.35-.6-1.87-.2-1.15.58-1.43,1.65-1.89,3.24-.06,4.85,1.77,2.66.52.48-.76-.14-1.35-.74-1.95-.26-1.45.22-.95,1.97-1.09,3.72-1.25,1.55-1.63-.62-2.03.22-1.85,1.03-1.69.58-.42.38-.28.87.3.68-.14.48-.56.2-.87-.08-1.11.26-.26.34-.06.91.58,1.03.14,1.03-.34.66.32.28.97.4.3.52-.38.28-.89.02-1.41.22-.22.22.18.28.44.79.18,1.15-.4,1.59.34,3.06,1.63,1.27,1.17.89-.38.91-1.53,1.41-1.21,1.87-.89,1.85.38,1.83,1.67,1.39.34.95-.99.5-1.09.04-1.21.38-.78.7-.34.26-.58-.16-.81.52-.46,1.21-.12.2-.34-.14-.32.02-.16h.36l.52.36.58.79.3,1.11,1.13,1.09,1.95,1.05,1.53.18,1.13-.7,1.03-1.83.95-2.94,1.25-1.67,1.53-.38,1.11-1.09.7-1.81,1.17-1.45,1.65-1.09.64-1.59-.38-2.07.74-1.11,1.85-.18,1.13.24.66.56.48.26h0l.3.08.64-.16.78-.4,3.6-1.33,1.89-1.19.2-1.17-.34-.76-.87-.32-.18-.5.52-.66.02-.85-.48-1.05.44-1.03.3-.22,1.05-.79,1.09-.1.87.83,1.23.2,1.61-.42,1.47.28,1.35.99,1.27,1.81,1.17,2.62,2.13,1.59,3.08.58,2.25,1.03,1.41,1.47,1.17.48,1.37-.79,1.45-.42,1.45.5,1.95,1.25,2.88-.28,3.8-1.79,2.25.08.68,1.97,1.61,2.07,2.56,2.15.2-.06h0ZM659.25,329.64l-1.31.04-.06-.28.08-.64.1-.28.26-.06h.3l.42.6.22.62h0Z"/>
      <polygon class="cls-1" points="771.19 93.17 771.37 93.77 770.91 94.64 769.6 95.1 766.94 95.06 765.21 94.72 764.42 94.08 764.24 93.77 764.32 93.07 764.69 93.03 765.27 93.41 766.12 93.25 767.26 92.53 767.85 92 767.91 91.64 767.56 90.96 767.85 90.69 769.26 90.94 769.78 91.38 770.73 92.89 771.19 93.17 771.19 93.17"/>
      <path id="US-MO" class="cls-1" d="M622.68,237.39l-1.09,3.76-.02,3.12.64,3.78.78,2.82.87,1.87,3.16,3.56,5.45,5.21,3.4,4.93,1.39,4.67,1.61,1.87,1.85-.91,2.33.42,2.5.78,1.31.91.3.32.14.34-.1.34-.36.89-3.1,7.71-1.07,3.52.16,1.31,1.25,1.91,2.35,2.48,2.05,1.61,1.77.76,2.74,2.01,3.74,3.22,1.87,2.42v1.61l.38,1.65.78,1.69v1.59l-.78,1.53.3,2.05,1.37,2.58,1.15,1.57.95.54.22-.02.06-.22-.12-.36-.06-.32.08-.44.2-.18.16-.04.89.64,1.31,1.41.6,1.87-.12,2.35-.52,2.23-.87,2.09-.99.72-.44-.12-.95-.38-.38.12-.87.54-.97,2.03-.04.06-.36.2-.26-.2-.04-.12-.18-.6-.42-.62h-.32l-.26.04-.1.3-.1.64.06.28.32,1.73-.28,1.23-.91.5-.14.7.52.79v.36l-.2.28-.64.1-.48.18-.38.64.76,1.21-.16,1.45-1.03,1.71-.14.68-3.42.04-3.08.06-3.08.04-3.08.06,1.47-2.46.93-.87.7-.93,1.25-.87,1.37-1.87.16-.87-.14-.85-.81-1.17-.81-1.83h-83.37v-14.67l-.02-3.04v-6.12l-.02-3.06v-3.06l-.02-3.08v-6.16l-.02-3.1v-3.08l-.02-3.12v-6.22l-.02-3.12v-3.12l.04-.91-2.9-1.67-1.31-1.57-.66-2.03-1.31-2.01-1.97-1.99-.32-2.15,1.31-2.27,1.11-1.17.87-.04.1-.97-.7-1.95-1.01-.72-1.33.5-1.13-.04-4.31-3.14-.3-.22-1.33-2.09-.56-2.48-1.07-1.63-1.61-.76-1.01-1.63-.44-2.54-1.03-2.56-.48-.76,4.67-.02,4.73-.04,4.71-.04,4.73-.04,4.71-.04,4.73-.02,4.71-.04,4.73-.04,4.71-.04,4.71-.04,4.73-.02,4.71-.04,4.73-.04,4.71-.04,4.73-.02,4.71-.04.93,1.79,1.01.52.2.58,1.33.91.3.91,1.65,1.29Z"/>
      <path id="US-MT" class="cls-1" d="M387.54,95.06l.02,6.22.04,6.18.02,6.18.04,6.14v.08l-.02.08v.16h-131.8v9.9l-.02,3.3-1.23-.7-.81-.79-.68-.91-1.27-2.54-.72-.93-.64-.56-.66-.04-.79.32-.62.6-.2,1.05-.6,1.23.04,1.03.26.52-.08.3-.4.22-2.98-.38-2.58.52-1.77-.4-3.4.2-2.94-.36-1.01.18-.66.56-.81,1.39-.22.26-.32.04-4.79-.76-1.27-.02-1.33.91-.42.64-.1.85-.3.24-.42-.04-1.07-.56-1.11-.91-.56-.68-.12-1.53-.89-1.73-.16-1.57-.58-1.33-.87-1.31-.87-.87-.87-.28-1.63.18-.34-.14-1.75-1.75-.54-.76-.16-.7.6-1.69-.18-.93-.44-1.15-.62-.95-1.01-.83-.91-1.81-1.69-2.54-.46-1.97-.66-1.65-.18-1.63-.64-.99.06-1.27-.1-.36-.2-.16-1.13-.72-1.29-1.27-.66-.3h-.28l-.16.32-.1.6-2.07,2.11-1.75.99-.85.97-.78.48-.42.06-.58-.32-1.83-1.43-1.51-.66-.16-.32.08-1.21.7-1.41-.72-2.56.22-.89.56-.62,1.63-.95.16-.46-.36-2.44-.91-.91-.26-.52.28-1.99-.4-1.31.72-1.11.06-1.91.58-1.99.62-2.94-.14-1.27.78-1.37.26-1.39.04-.97-.12-.6-.28-.22h-.56l-2.56.54-.83-.08-.74-.26-.42-.48-.12-1.11-.58-.74-.3-.12-1.17.44-.26-.02-.12-.2-.48-.95-1.89-1.85-.91-2.13-1.83-1.87-1.75-2.56-3.36-4.01-.81-.81-2.54-1.39-2.01-2.03-2.05-1.45-.2-.24-.02-.16.12-.12.58-.4.14-.74-.78-1.53.38-1.49-.52-2.07-.28-.7-1.45-1.93-.95-1.85-1.49-1.71-2.01-2.8V10.87h224.76l.04,5.39.04,5.39.02,5.37.02,5.37.02,5.33.04,5.31.02,5.29.02,5.27.04,5.27.02,5.23.02,5.21.04,5.21.02,5.17.02,5.17.04,5.13.02,5.13Z"/>
      <path id="US-ND" class="cls-1" d="M526.99,95.06h-139.45l-.02-5.13-.04-5.13-.02-5.17-.02-5.17-.04-5.21-.02-5.21-.02-5.23-.04-5.27-.02-5.27-.02-5.29-.04-5.31-.02-5.33-.02-5.37-.02-5.37-.04-5.39-.04-5.39h127.37l1.83,8.84-.02,2.48-.28,1.59.24,2.78-.1,1.87.28,2.38-.08,3.16.89,3.64,1.33,3.28-.04.95.4,1.97.78,1.63,1.65,4.81-.08,4.53.28,1.39.42,9.74.14,1.21.89,1.49-.42,2.21-.06,1.13.18,4.05.52,1.57.52,3.2,2.13,3.93.36,1.49.12,1.19.58,2.4-.18,3.2.26,2.05Z"/>
      <path id="US-NE" class="cls-1" d="M528.4,184.39l.58.12,1.25,2.23.52,3.97,1.13,3.22,1.77,2.42.87,1.77v1.13l.44,1.19.83,1.29.32,2.17-.16,3.08.36,1.63.87.2.4.42-.12.68.28.5.72.32.2.87-.32,1.45.26.89.83.38.16.72-.52,1.03.08.83.68.6.46,2.66.22,4.71-.08,2.74-.38.81.62,1.69,1.13,1.83.48.76,1.03,2.56.44,2.54,1.01,1.63,1.61.76,1.07,1.63.56,2.48,1.33,2.09.3.22h-124.92v-21.4l-.02-3.08h-37.34l-.02-6.2-.02-6.2-.02-6.24v-6.26l-.02-6.28-.02-6.32-.02-6.32-.02-6.36h104.53l5.58,3.8,3.32,1.17,1.59-1.11,3.42-.64,5.27-.16,3.32.52,1.39,1.19,2.7,1.35,4.03,1.49,2.4,1.63.79,1.75,1.41,1.09,1.43.36Z"/>
      <path id="US-NV" class="cls-1" d="M199.92,317.99l-.02,9.1-.04,9.98-.36.14-1.07,2.29-1.19,1.05-.91-.02-.91-.66-.93-1.29-1.41-.76-1.85-.18-1.63.2-1.43.6-.87.85-.48,1.65.16.68.85,1.53.06,2.38.12,1.93.52,1.05.08,1.23-.32,1.95.26,1.59,1.07,2.8-.36,8.09v.16l-5.09-4.83-4.75-4.51-4.75-4.53-4.75-4.55-4.75-4.55-4.75-4.57-4.75-4.59-4.75-4.59-3.42-3.2-3.44-3.2-3.44-3.2-3.42-3.22-3.44-3.22-3.42-3.24-3.44-3.24-3.44-3.24-4.37-3.86-4.39-3.86-4.37-3.88-4.37-3.88-4.39-3.9-4.37-3.9-4.39-3.9-4.37-3.91v-4.51l-.02-4.51v-64.53h69.73l6.96-.02h34.78v46.32l.02,3.8v48.65l.02,3.68v18.32Z"/>
      <path id="US-OR" class="cls-1" d="M28.18,89.39l1.87-.68,1.47.52,1.87,1.21,1.85,3.68,1.81,6.1.4,2.03,1.41,1.25,1.67.06,6.7.89.99-.06h0l1.21-.24,3.8-2.33,4.11-.76,4.87.16,2.98.68,1.09,1.15,2.6.12,6.16-1.35,6.82-.95,3.66-.97,4.15-2.03,9.44-2.58,4.71-.3,2.38-.97.56-.5.34-.02h9.92l4.97-.02h9.94l4.97-.02h9.6l.52,1.17,1.95,2.31,2.76,1.97,1.81,2.07.81,2.15-1.35,4.91-3.52,7.63-1.91,4.85-.32,2.11-1.73,3.56-3.18,5.03-1.55,3.72.08,2.4,1.07,1.41,2.07.38,1.43.79.76,1.17.02,1.11-.72.99-.2,1.03.3,1.07-.24,1.91-1.19,3.9.02.14v6.32l.02,5.72v11.41l.02,5.66v5.64l.02,5.64v5.6H14.43l-5.11-.02-2.36-3.06-1.03-4.57-.2-1.93.28-5.13-.72-2.19-1.79-3.62.78-3.16.81-1.93,2.03-8.41.48-.68.85.02,1.47-1.45-.68-.32-1.03.68.91-3.34,1.03-2.88.66-1.03.34-9.42.6-7.21.97-2.4-.34-2.46.38-3.36-.28-3.4,2.09-16.45-.28-2.01.64-2.68-.6-7.09.26-7.99-.52-1.01-.28-1.11.5-.16.95,1.17,4.45-.02,2.86-1.07,1.03.36,1.19,1.45,1.51.3,1.89-.26Z"/>
      <path id="US-SD" class="cls-1" d="M526.99,95.06l-.64,2.66-.44,1.17-.91,1.17-2.82,2.58-.7.89.1.79.58,1.01,1.45,2.38.78.97,3.1,1.59,1.43,1.97v46.88l-2.7.1.32,1.61.74,1.57.14.91-.16.74-.5.66.12,1.03.14.3,1.23.66.4.91.14,1.03-.02.78-.76,1.43-.2,1.89-.91,2.8-1.01,1.71-.2.87.1.7,1.55,1.81.1.72.5.93.48,2.09-1.43-.36-1.41-1.09-.79-1.75-2.4-1.63-4.03-1.49-2.7-1.35-1.39-1.19-3.32-.52-5.27.16-3.42.64-1.59,1.11-3.32-1.17-5.58-3.8h-104.53l-.02-6.4-.02-6.4-.02-6.44-.02-6.48-.02-6.48-.02-6.52-.02-6.56-.02-6.58h.6v-.16l.02-.08v-.08l-.04-6.14-.02-6.18-.04-6.18-.02-6.22h139.45Z"/>
      <path id="US-TN" class="cls-1" d="M768.11,327.27l4.25.02,9.06.04,6.44.04,5.29.02,3.12.02,3.93.02.87-.48,1.97.08,2.64.1-.85,1.79-.06,1.19-.48,1.77-.02,1.17-1.37.06-.81.3-1.07.78-2.66,4.23-.93.38-1.53-1.09-2.11.46-1.37.79-2.05,2.07-.79.66-.62.24-.44-.02-.22-.34-.18-1.03-.24-.36h-.64l-1.03.4-1.03.7-1.07,1.19-1.41-.1-.26.3-.34,1.39-.56,1.01-.76.78-2.44.6-3.06,2.13-4.23,2.25-3.97.56-1.65.46-1.11.58-2.48,2.31-1.09,2.92-1.25.56-1.93.02-.54.26-.5,1.11-.7,4.83-6.08-.06-6.08-.08-6.06-.08-6.08-.06-3-.04-3-.04-3-.04-3-.02-3-.04-3-.04-3-.02-3-.04-3-.04-3-.04-3-.02-3-.04-3-.04-3-.02-3-.04-3-.04-.24.02.22.28.34.3h-5.09l-4.97-.02h-9.94l-4.97-.02h-9.94l-4.77-.02v-.06l.7-.95,2.13-1.55.93-2.05-.28-2.52.78-2.27,1.85-2.05.76-2.03-.32-2.01.91-1.63,2.17-1.27.3-.52-.08-.38-.04-.44.02-.18.1-.4.48-.22.64-.2.28-.32v-.52l-.38-.91.08-.42.14-.68,1.03-1.71.16-1.45-.76-1.21.38-.64.48-.18.64-.1.2-.28v-.36l-.52-.79.14-.7.91-.5.28-1.23-.32-1.73,1.31-.04.04.12.26.2.36-.2.04-.06h10.17l3.22.02h12.62l.06-.04v-2.07l-.76-2.38h.1l2.52.26,1.65.16.54.72,6.24-.12,6.22-.12,6.22-.12,6.24-.12,6.5.22,6.48.24,6.5.22,6.5.24,6.5.22,6.5.22,6.48.24,6.5.22.16-.06.14-.04.14-.06.16-.06.14-.04.16-.06.14-.04.14-.06Z"/>
      <path id="US-UT" class="cls-1" d="M255.84,197.22l.02,3.14v21.76h37.48v95.93h-17.53l-5.84-.02h-23.35l-5.84-.02h-17.51l-5.84-.02h-17.51v-18.32l-.02-3.68v-48.65l-.02-3.8v-46.32h55.96Z"/>
      <path id="US-WA" class="cls-1" d="M146.48,93.47h-39.73l-.56.5-2.38.97-4.71.3-9.46,2.58-4.15,2.03-3.66.99-6.82.95-6.16,1.35-2.6-.12-1.09-1.15-2.98-.66-4.87-.16-4.11.78-3.8,2.33-1.21.24h0l-.99.08-6.7-.91-1.67-.06-1.43-1.23-.38-2.03-1.81-6.12-1.85-3.68-1.87-1.21-1.47-.5-1.87.68-.58-.38-.89-.1-1.99-1.35-1.13-1.35-3.48.1-.72-.87-3.88.87-1.19-.89-2.11.58.52-2.52-.1-3.18.1-3.1.52,2.27,1.31,2.4.64-2.72.44-3.44-1.29-1.33-2.13-.97-.76-3.22,5.05-2.74-2.68-.58-1.05-1.23-1.29-.16-.1.95-.42,1.25-.46-1.65-.14-1.95-.54-3.34-2.07-5.39-1.25-7.02-1.57-3.48-3.02-3.34-.79-1.95-.72-4.95.4-3.76-.56-2.64,1.45.16,3.82,2.09,4.75,1.63,1.43,1.19,2.31.87,12.74,1.37.83-.14,1.65-.85.7.1,1.87,1.93.93.24,1.21-.1.89-.38,1.53-1.33.2.5-.02,1.23.56,1.75,1.13,2.27.42,1.41-2.29,3.95-.44.08-.06-1.33-.3-.26-4.29,6.68-1.51,3.16-.16,1.43.06.83.6.2,1.37-.32,2.03-1.31.1-.28-1.89.46-.91.04.12-1.49.22-.72,1.23-2.21,1.29-1.33,1.85-1.41,1.07-1.17.74-1.71,2.05-2.05.38-.58-.08-1.69.14-.32.99.22.42,2.88-.24,1.29-1.77,1.57-.22.56.32,2.15-.28.2-.68-.26-.22.14,1.67,2.33.54,1.81.08,1.61-.46,3.08-.5.52-.83-.18-1.11-.95-.24.32-.87,2.38-.3-.22-.56-2.82-.3-.22-1.71,1.29-.68,1.23-.6,1.97-.76.91,2.13.2,1.91-.4,1.53.93.52.02,1.41-.91.44-.62,1.15-2.98.58-.54.87-.02.83-.46,1.23-1.63.04-.66-.46-3.68.14-2.09-.24-.66-.56-.7.08-.68.44-1.09.04-.99-.38-.89.16-1.01,1.17-2.17.22-.95,1.43-2.17-.36-.87-1.05-1.07-.66-.93-.68-1.47-.52-.5-.16.22.72,2.4-.16.16-1.85-1.29-.44-.81-.22-1.11.16-.83.99-.81,1.19-.3-.1-.7-1.49-2.25-.99-1.03-.78-.5-1.03-.14-.46-.38-.12-.54.22-.7.56-.22,1.59.28.85-.5-.08-.89-.26-.5.04-3.22-.62-2.62-.32-.44-.34-.04-.36.36-.99.1-.62-.85-.68-1.67-1.23-3.97h107.45l.04,4.53.02,4.53.02,4.53.02,4.51.02,4.49.02,4.47.02,4.47.02,4.45.02,4.43.02,4.43.02,4.41.02,4.39.02,4.39.02,4.37.02,4.35.02,4.35-.14.26-.12.64.54,1.81,1.25,2.62.4,1.85-.48,1.05.34,1.83.78,1.41h0ZM36.39,19.96l.26.62-.76.6-.54.1-.85-.95-.38-.12.3,1.47-.1.5-1.75-.91-.32-.72.5-.76,1.09-.79.38-.1,2.17,1.07h0ZM32.05,24.81l.5.91-2.01-.6-.85-.54-.26-.52-.3-1.71.14-.56.89-.2,1.69,2.11.2,1.09h0ZM35.65,26.75l-.3.28-.99-.38-.6-.64-.2-.78.38-1.49.5-.38.32.08.14,1.31.89,1.39-.14.6ZM40.3,34.46l.91,3.66.4-1.53,2.54,2.64v1.29l-.32.44-.54.16-.5-.38-.46-.91-.58-.48-1.21-.32-.64-1.03-.22-.72-.06-2.05-.3-.64-.66-.14-.62-.5-.95-1.43-.14-.38.46-1.17,1.03-1.97.76-.93.48.1.58.6.7,1.07-.12.76-2.8,1.49-.1.34,1.35.42.5.38.5,1.23h0ZM41.71,50.08l-.1.54-1.03-.64-.34-.58.04-1.31.26-.85.2-.18.62.38.18.22.18,2.42h0ZM43.64,55.59l-.08.64-.72.5-.38-.12-.02-.74-.2-.12-.78.89.06-1.75.38-1.85.34-.04.5,1.21.89,1.37h0ZM35.05,60.84l-.18.54-.26-.02-.58-1.09-.08-.78.5-.56.68,1.61-.08.3h0Z"/>
      <polyline class="cls-1" points="696.79 123.52 698.36 121.29 699.87 119.26 700.54 117.93 700.92 116.44 701.62 115.49 702.65 115.07 703.48 114.14 704.12 112.68 704.86 112.05 705.69 112.23 706.05 112.78 705.93 113.76 705.93 113.76 705.59 114.1 705.01 113.88 704.8 114.37 704.92 115.59 704.72 116.14 704.2 116.04 704.18 116.26 704.64 116.8 704.68 117.39 704.32 118.03 703.98 118.33 703.64 118.29 703.13 119.02 702.43 120.53 702.19 121.41 702.41 121.65 702.25 122.14 699.45 126.1"/>
      <polygon class="cls-1" points="731.53 364.12 732.02 367.02 732.52 369.92 733.02 372.82 733.51 375.7 734.01 378.59 734.51 381.47 735 384.35 735.5 387.23 736 390.09 736.49 392.95 736.99 395.82 737.49 398.68 737.98 401.52 738.48 404.36 738.98 407.2 739.47 410.05 739.93 411.34 740.31 413.42 742.95 419.56 743.73 422.15 743.51 423.22 743.85 424.14 744.72 424.89 744.56 425.76 743.37 426.76 742.59 427.95 742.04 430.08 742.04 430.08 740.93 433.81 740.91 436.08 741.98 439.18 741.98 439.18 742.2 440.55 741.48 446.59 741.96 450.47 743.09 452.99 737.05 453.01 731.01 453.01 724.97 453.01 718.93 453.01 712.88 453.01 706.84 453.01 700.8 453.01 694.76 453.01 694.5 454.56 694.62 456.05 695.28 457.46 697.98 460.15 698.24 460.8 697.76 462.87 697.84 464.34 697.54 465.09 696.89 465.77 696.71 466.5 696.27 466.7 694.22 468.93 687.05 469.66 687.45 469.17 688.96 469.07 691.08 468.35 690.65 467.16 689.83 465.85 689.08 465.71 688.58 464.93 688.6 462.51 688.12 461.1 686.95 459.65 686.55 459.93 685.7 462.41 684.98 465.67 684.63 466.72 682.5 466.8 680.61 466.58 679.68 466.64 679.44 462.19 679.24 458.14 679.04 454.06 678.84 449.99 678.64 445.9 678.44 441.8 678.25 437.69 678.05 433.58 678.5 429.52 678.96 425.47 679.42 421.39 679.88 417.32 680.33 413.23 680.79 409.13 681.25 405.02 681.7 400.9 682.16 396.79 682.62 392.66 683.08 388.52 683.53 384.37 683.99 380.22 684.45 376.04 684.9 371.87 685.36 367.68 685.48 366.6 685.5 366.25 685.56 365.71 683.91 364.22 683.59 363.92 683.35 363.64 683.59 363.62 686.59 363.66 689.59 363.7 692.59 363.74 695.6 363.78 698.6 363.82 701.6 363.86 704.6 363.9 707.6 363.94 710.6 363.98 713.6 364.02 716.6 364.06 719.6 364.1 722.6 364.14 725.6 364.18 728.6 364.22 731.53 364.12 731.53 364.12"/>
      <path id="US-AR" class="cls-1" d="M655.17,341.22l-.08.42.38.91v.52l-.28.32-.64.2-.48.22-.1.4-.02.18.04.44.08.38-.3.52-2.17,1.27-.91,1.63.32,2.01-.76,2.03-1.85,2.05-.78,2.27.28,2.52-.93,2.05-2.13,1.55-.7.95v.78l.22.56-.72,1.05-1.79,1.07-.97,1.05-.14,1.03-.42.5-.78.22-.46,1.51-.4,3.58-.95,2.03-1.55.5-.81.79-.12,1.09-.91,1.25-1.73,1.43-.58,1.35.6,1.29-.12.52-.54.42-1.87.62-.32.3-.18.34.38.66.22.97-.28,1.65-.46.7-.44.66-1.55,1.17-.44.89.7.62-.06.7-.78.74.22.81.18.56.74.5.24,1.37-.52,1.77.1,1.45.87,1.19.18.52-.85,3.93.06.56h-3.68l-3.36.02h-10.1l-3.36.02h-10.08l-3.36.02h-10.1l-3.36.02h-6.72l-.02-3.02-.04-3.02-.02-3.02-.04-3.02-.95-.52-1.73-.26-.89.18-1.05-.14-.7.5-.48.1-.38-.12-.22-.44-.79-.32-.97-1.09.06-2.42.04-2.44.06-2.42.06-2.44.04-2.44.06-2.44.06-2.46.04-2.44.06-2.46.06-2.46.04-2.46.06-2.46.06-2.46.04-2.48.06-2.48.04-2.46-.42-3.2-.42-3.18-.42-3.2-.42-3.2-.42-3.2-.42-3.22-.42-3.2-.42-3.24h83.37l.81,1.83.81,1.17.14.85-.16.87-1.37,1.87-1.25.87-.7.93-.93.87-1.47,2.46,3.08-.06,3.08-.04,3.08-.06,3.42-.04Z"/>
      <path id="US-CO" class="cls-1" d="M424.71,246.61l.02,4.57v4.53l.02,4.53.02,4.53v4.49l.02,4.49.02,4.49v4.47l.02,4.45.02,4.45.02,4.43v4.43l.02,4.41.02,4.39v4.39l.02,4.37h-131.58v-95.93h131.34l.02,3.08v21.4Z"/>
      <path id="US-CT" class="cls-1" d="M990.11,196.95l.02,1.35v1.89l.02,1.37.02,1.87v2.15l.02,1.97.02,1.71-.06,1.01-.1,1.55-.48.6-.24,1.43-1.63-.14-2.7.36-3.58.85-1.99-.5-2.03.89-6.88.26-1.45-.48-1.85,1.69-2.96,1.01-7.51,3.8-.87.76-.97-1.55-.76-1.23,1.51-.97,1.15-.74,1.09-.68.72-.46-.58-.95-.56-.95.14-2.36.16-2.35.14-2.36.16-2.36.14-2.38.16-2.36.14-2.38.16-2.38,1.57.08,1.57.06,1.57.06,1.59.08,1.57.06,1.57.08,1.57.06,1.57.06.02.66.81-.08.1-.58,2.25.04,2.23.04,2.25.04,2.23.04,2.25.02,2.23.04,2.25.04,2.23.04.02.26Z"/>
      <path id="US-DE" class="cls-1" d="M922.39,251.12l-.81.85-.7,1.53-1.61,1.85.12,1.25.28.87-.14,1.85,1.01,1.79,2.01,2.92.38,4.53,1.53,3.02,2.35,3.54,1.81.99.08,1.31-.81,2.15-1.11.99,1.43-.2.72.5.7,1.79-.04,1.13-2.01.02h-10.51l-.18-3.78-.18-3.78-.18-3.8-.2-3.8-.18-3.82-.18-3.82-.18-3.82-.18-3.84,1.41-1.95.6-.6.79-.3,2.33-.1,1.67.68Z"/>
      <polygon class="cls-1" points="808.59 458.79 809.47 460.76 810.8 468.77 811.71 471.55 813.36 479.02 816.07 486.24 819.9 494.92 826.18 505.4 826.94 506.89 826.12 508.14 825.86 509.45 825.78 511.42 826 513.33 826.74 515.67 828.17 519.25 827.37 518.53 825.31 513.4 825.07 510.38 825.37 506.09 824.89 506.19 824.49 507.58 824.27 509.21 823.76 509.85 823.04 507.34 823.1 506.21 823.86 504.9 823.64 504.42 822.4 503.75 822.15 502.67 822.31 501.62 821.61 501.06 821.05 501.08 821.43 503.67 822.01 505.26 822.72 509.05 823.9 511.36 824.57 513.29 832.5 533.75 834.37 536.36 835.06 538.23 835.78 542.12 835.94 547.11 834.65 556.19 834.35 562.35 834.17 562.17 834.05 561.52 833.75 561.44 832.62 564.26 831.09 566.8 830.59 570.76 829.86 572.73 827.65 574.81 826.28 574.75 822.94 576.32 820.6 575.9 817.79 576.78 815.95 576.68 814.87 574.81 815.03 573.98 815.45 573.14 816.16 572.94 818.65 574.89 819.11 574.08 818.35 573.1 816.92 572.57 815.87 571.97 813.74 567.52 811.53 564.46 811.16 562.41 807.36 561.16 804.6 559.27 802.81 555.89 801.78 549.89 800.56 549.22 800.05 548.74 801.24 546.51 802.49 544.64 801.5 545.1 800.76 545.8 799.83 547.45 799.15 547.7 798.54 547.45 797.82 544.29 798.02 540.39 799.03 538.92 797.48 538.88 795.89 539.44 796.13 540.75 795.91 541.46 794.74 541.29 793.87 540.83 792.67 539.48 791.04 536.89 787.69 529.76 787.03 528.75 785.92 527.69 786.43 527.35 787.39 527.16 789.53 523.94 791.22 521.99 791.78 520.64 791.68 520.06 790.93 519.23 789.95 519.96 789.53 519.74 788.42 518.05 787.37 517.58 786.63 517.96 787.41 519.35 788.1 519.86 787.83 521.89 787.55 522.55 786.89 523.12 785.88 522.8 785.36 523.3 784.75 522.78 784.15 521.89 783.47 520.42 785.24 512.17 786.89 506.91 787.07 500.88 787.19 499.99 787.05 498.38 784.84 494.88 775.09 486.34 767.54 476.18 761 472.37 756.03 473.2 755.17 473.98 754.8 474.99 755.11 476.12 754.66 476.6 753.33 476.54 751.54 476.8 746.85 479.48 745.2 479.38 743.69 480.08 742.55 480.59 739.61 480.87 737.13 481.47 736.06 481.15 735.36 479.6 735.36 477.99 735.94 479.22 736.81 480.18 737.21 479.8 737.37 478.94 736.49 477.27 733.67 475.13 730.47 471.99 731.45 472.09 731.68 471.41 730.69 470.54 731.11 469.52 731.8 468.45 730.45 468.61 729.24 469.37 729.2 470.3 728.96 471.03 728.31 470.94 727.09 470.02 721.11 467.48 715.89 466.05 719.9 465.39 722.07 465.89 721.81 465.11 721.29 464.62 719.58 464 717.4 464.24 716.02 463.94 714.61 464.56 713.06 465.47 711.69 465.95 706.31 466.6 701.93 467.32 702.63 466.56 703.39 466.09 705.97 465.35 706.35 463.82 705.73 462.35 705.05 462.71 704.34 463.86 703.46 463.03 702.49 463.03 702.23 464.87 700.98 466.11 700.42 467.34 696.79 468.31 696.31 467.99 697.38 466.82 697.3 466.17 696.53 466.52 696.71 465.79 697.36 465.11 697.66 464.36 697.58 462.89 698.06 460.82 697.8 460.16 695.1 457.48 694.44 456.07 694.32 454.58 694.58 453.03 700.62 453.03 706.66 453.03 712.71 453.03 718.75 453.03 724.79 453.03 730.83 453.03 736.87 453.03 742.91 453.01 743.69 454.72 745.18 458.26 745.24 459.09 746.99 459.21 749.97 459.41 752.95 459.61 755.93 459.81 758.91 460 761.89 460.2 764.87 460.4 767.85 460.6 770.83 460.8 773.81 461 776.8 461.2 779.78 461.4 782.76 461.59 785.74 461.79 788.72 461.99 791.7 462.19 794.68 462.39 794.7 463.1 795.2 464.22 795.32 465.49 795.54 466.1 796.13 466.48 797.07 466.58 798.02 465.87 798.62 464.3 798.78 462.53 798.42 460.5 798.48 458.79 798.95 457.8 799.51 457.56 799.99 457.02 800.39 456.9 801.42 457.18 805.29 458.61 808.59 458.79 808.59 458.79"/>
      <path id="US-GA" class="cls-1" d="M820.42,430.49l-.95,1.85-2.29,1.15-.7-.04-.58.34.34.83.58.6-.02.56-.6.76-1.19.22-.68.87.22.81.4.46-.08.78-1.35.79-.32.78.68.22.52-.22.38.16-.81,1.29-.74.79-.7,1.41-1.61.4.06.46.91.4.76,1.09-1.43,2.01-.89-.16-.54-.44-.34,1.59.14.83-.34,1.73-.56,2.07-.38.85.08,1.57.24,1.53-3.16-.2-3.88-1.43-1.03-.28-.4.12-.48.54-.56.24-.48.99-.06,1.71.36,2.03-.16,1.77-.6,1.57-.95.72-.93-.1-.6-.38-.22-.62-.12-1.27-.5-1.11-.02-.72-2.98-.2-2.98-.2-2.98-.2-2.98-.2-2.98-.2-2.98-.2-2.98-.2-2.98-.2-2.98-.2-2.98-.2-2.98-.2-2.98-.2-2.98-.2-2.98-.2-2.98-.2-2.98-.2-1.75-.12-.06-.83-1.49-3.54-.78-1.71-1.13-2.52-.48-3.88.72-6.04-.22-1.37h0l-1.07-3.1.02-2.27,1.11-3.74h0l.56-2.13.78-1.19,1.19-.99.16-.87-.87-.76-.34-.91.22-1.07-.78-2.58-2.64-6.14-.38-2.09-.46-1.29-.5-2.84-.5-2.84-.5-2.84-.5-2.84-.5-2.86-.5-2.86-.5-2.86-.5-2.86-.5-2.88-.5-2.88-.5-2.88-.5-2.88-.5-2.88-.5-2.9-.5-2.9-.5-2.9,6.08.08,6.08.08,6.08.08,6.08.08,5.66-.08,5.66-.08,5.66-.08,5.66-.08-.12.02-.91,1.53-2.74,2.88-.74,2.21,3.54,2.46.02.02,2.11,1.99,1.45.78,1.47.24.91.66.54,1.59h0l4.29,7.85h0l4.45,4.03,1.79,1.99.89,1.91,3.8,3.14,1.29,1.69.06,1.27.46.91.83.54.79,1.15.78,1.75,1.51,1.53,2.27,1.29,1.65,2.96,1.05,4.59,1.07,2.66,1.63,1.11,2.23,3.91.72,2.33-.04,2.05,1.13,1.59,3.74,1.71h0ZM810.18,453.59l-.83,5.29-.36-1.87-.04-1.81.64-1.07.6-.54Z"/>
      <polygon class="cls-1" points="658.61 470.42 657.34 471 650.5 468.79 648.79 467 647.28 466.62 645.44 466.4 643.45 468.59 641.94 471.55 644.34 473.16 646.39 473.94 649.79 473.28 651.66 471.85 653.19 471.89 653.92 471.59 654.6 470.84 655.91 471.43 655.95 472.03 655.01 472.86 653.84 473.56 653.13 474.39 654.46 476.06 656.56 476.62 657.36 476.38 657.86 474.51 659.15 473.3 660.9 473.56 660.64 474.31 660.88 475.03 661.69 476.24 661.59 477.99 661.75 478.41 659.86 479.18 658.45 479.44 657.32 480.45 657.92 481.03 656.76 481.55 655.99 481.35 655.59 481.55 655.47 482.16 654.88 482.74 655.73 484.47 657.5 485.6 658.75 487.01 663.76 488.86 664.97 488.8 666.16 490.67 667.12 491.31 668.05 491.62 667.95 492.92 666.3 493.85 665.86 494.96 665.45 495.6 664.71 494.8 663.96 494.23 662.19 495.98 661.33 496.35 661.75 494.47 661.08 493.73 660.06 491.82 658.59 490.65 657.56 490.25 656.74 489.5 655.77 489.2 654.93 489.28 653.52 488.84 653.42 487.83 653.03 487.07 651.93 486.18 646.67 484.49 646.63 485.18 646.99 485.7 647.74 486.06 648.65 486.73 648.65 488.76 648.26 489.62 648.1 490.83 647.76 492.06 647.1 493.03 645.67 493.69 645.04 493.13 644 490.47 642.55 489.64 640.25 489.54 638.68 490.13 636.97 492.72 635.6 493.13 630.89 491.8 625.5 489.78 625.64 489.1 626.5 488.88 628.13 489.16 628.05 488.46 626.4 486.18 626.1 485.14 626.32 483.89 625.78 483.91 624.79 484.97 621.37 484.07 620.42 483 618.41 479.98 615.57 479.88 614.23 478.09 611.91 478.86 610.74 479.72 609.7 481.03 610.1 481.71 611.13 482.78 610.66 483.3 607.36 484.07 599.69 483.22 597.44 482.4 594.42 480.69 590.25 479.3 588.24 479.08 586.27 479.36 580.55 479.5 579.22 479.88 578.09 480.47 577.35 479.82 577.01 478.65 577.67 478.45 578.4 477.77 579.08 476.42 579.16 475.61 578.7 475.07 579.95 472.92 580.25 472.15 580.05 468.49 579.5 467.16 579.58 466.38 580.17 464.38 580.07 462.55 581.11 460.32 581.86 459.17 582.72 456.81 582.92 455.28 583.27 454.12 583.01 452.87 583.61 451.98 583.21 450.72 583.09 449.07 582.36 448.44 581.07 445.97 581.11 444.9 579.76 442.6 579.74 441.8 578.44 440.61 578.19 439.83 578.07 436.63 577.71 435.7 576.6 433.85 574.01 431.17 574.01 428.39 574.01 425.6 574.01 422.82 574.01 420.02 574.01 417.22 574.01 414.42 574.01 411.61 574.01 408.81 577.37 408.81 580.73 408.81 584.09 408.81 587.45 408.81 590.8 408.81 594.16 408.81 597.52 408.81 600.88 408.81 604.24 408.81 607.6 408.81 610.96 408.81 614.31 408.81 617.67 408.81 621.03 408.81 624.39 408.81 628.07 408.79 628.17 409.89 629.06 410.54 629.12 411.71 628.32 413.4 628.32 414.58 629.14 415.23 629.1 415.93 628.21 416.66 628.07 417.46 628.7 418.31 628.98 419.31 628.92 420.44 629.76 421.91 631.05 422.84 631.9 423.96 631.98 424.57 632.04 425.15 631.86 425.96 630.79 427.16 629.97 428.03 629.48 428.35 629.22 428.94 629.14 430.22 627.95 431.86 625.52 433.77 623.91 436.2 623.12 439.12 622.28 440.97 621.41 441.76 620.97 443.29 620.97 445.56 620.42 446.81 619.3 447.05 619.06 448.34 619.7 450.68 619.42 451.66 618.65 452.43 618.57 453.03 623.04 453.05 627.53 453.05 632.02 453.05 636.51 453.05 641 453.05 645.5 453.05 649.99 453.05 654.48 453.05 653.92 455.55 652.61 458.91 652.55 459.79 652.89 460.88 652.89 461.5 653.38 462.41 654.46 463.32 655.41 464.7 656.25 467.16 656.47 468.29 657.16 469.86 657.52 470.16 658.03 470.34 658.61 470.42 658.61 470.42"/>
      <polygon class="cls-1" points="1008.71 175.11 1008.28 176.42 1008.81 177.73 1009.17 179.06 1010.03 180.37 1010.76 180.49 1011.56 180.25 1012.13 180.31 1012.51 180.87 1012.35 181.54 1011.44 181.7 1009.75 182.88 1008.26 183.33 1007.52 184.74 1006.41 186.37 1004.24 188.92 1005.18 189.69 1008.52 190.57 1010.01 191.48 1012.27 196.21 1011.75 196.69 1011.56 197.56 1013.56 198.77 1014.2 202.15 1015.85 203.31 1018.31 204.02 1021.31 203.01 1023.82 201.6 1023.74 200.44 1022.17 197.76 1021.79 196.49 1020.62 195.67 1020.18 196.37 1019.43 195.48 1019.35 194.96 1020.04 194.72 1020.86 194.82 1021.81 195.3 1024.25 198.24 1024.93 202.07 1025.07 204.52 1024.79 205.35 1024.08 205.17 1022.7 205.33 1016.25 206.58 1014.82 207.7 1011.54 208.89 1011.34 208.29 1011.58 207.04 1011.38 204.5 1010.72 204.38 1005.61 208.53 1003.65 208.79 1002 210 1001.62 209.33 1001.32 206.23 1002.35 203.62 1001.8 203.66 1000.77 204.6 1000.13 203.48 999.43 202.89 998.76 202.31 998.78 201.38 998.82 199.97 998.04 199.69 997.96 197.96 997.9 196.83 996.49 196.85 995.34 196.87 993.49 196.91 991.56 196.93 990.15 196.95 990.13 196.67 987.89 196.63 985.64 196.59 983.4 196.55 981.15 196.51 978.9 196.47 976.68 196.43 974.43 196.39 972.19 196.35 972.09 196.93 971.27 197.01 971.25 196.35 969.68 196.29 968.11 196.23 966.54 196.17 964.97 196.11 963.4 196.05 961.83 195.99 960.26 195.93 958.69 195.87 958.2 195.26 958.79 193.15 959.39 191.04 959.99 188.92 960.58 186.79 961.18 184.66 961.77 182.54 962.37 180.41 962.97 178.28 964.8 178.36 966.64 178.44 968.49 178.52 970.32 178.6 972.17 178.68 974 178.74 975.84 178.82 977.69 178.9 980.36 178.98 983.02 179.06 985.68 179.14 988.34 179.22 991.01 179.3 993.67 179.38 996.33 179.46 999 179.54 1000.63 178.84 1002.55 176.85 1003.73 176.42 1005.63 175.22 1006.59 174.97 1008.71 175.1 1008.71 175.11"/>
      <path id="US-MD" class="cls-1" d="M915.59,253.39l.18,3.84.18,3.82.18,3.82.18,3.82.18,3.8.18,3.8.18,3.78.18,3.78h10.51l2.01-.02-.02.7-.24,1.03-.44.42.02-1.05-.3-.36-.5.46-.32.52-.14,2.05-.34,1.01-1.23.3-1.25,2.68-1.15,1.51-.42.95-1.75.24-2.82.38-.74,1.07-1.41-.46-2.17.06.42-1.45.64-1.27-1.13-1.27-.68-.16-.7-.52.81-1.05.4-1.11-.24-1.37.34-1.03-.56.16-.91,1.09-.56.44-.34-.97-.4.22-.26.66-.58.36-1.21-.91-1.79-1.03-.99-1.79-.56-1.39.58-2.5,1.23-.44,1.59.42h2.09l-.3-.56-.76.1-2.21-2.05-.72-1.23-1.23-.34-.56,1.19-.62.32.76-2.6.99-.1,1.47-.72-.44-1.51-.93-.66-1.69.83.02-1.05.32-1.35h1.27l1.11.44.95-2.19.04-.97-1.57,1.43-.36-3.08,1.55-2.96,1.47-1.29,1.85.04,1.87-.22-1.17-.54-1.21-.3.91-1.17.78-.22.76-1.03-1.83.16.22-1.95-.89.4-1.05.18-.42.83.08,1.37-.32.89-.83.72-1.39.56-.14-.97-.46-.44-.18,2.09-.36.72-1.01-1.95-.3.4.04.56-.26.95-.87.5.06,1.23-.34.68-2.8-1.07-.06.36,1.59,2.31,1.15.78.14,1.25-.99,1.03-1.37-.89-.24.06.74,1.53.48,1.33-.48,1.13.08,1.37-.1,1.25-.3,1.09.66,5.03.79,1.35.79,1.31.42,1.21-.83.18-1.33-.99-1.17-.76-1.39-2.44-.24-.97-.34-.78.16,1.77.5,1.99,4.37,4.41.81,1.69.62,1.33-.16,1.27-1.13-.89-.97-1.15-2.6-1.29-3.28-.81-1.85-3.02v1.27l-.42,1.07-1.13-1.31-.72-1.11-.24-1.21-1.41.08-1.49,1.05-1.43-.26-.16-2.07.38-1.09,1.61-2.6,1.51-1.33.68-1.71-.22-2.66.2,1.99,1.65-1.95-1.07-1.53-.99-1.43-1.49,1.63-1.27-.62-2.07-2.03-3.36-1.43-.48-.72.06-.79.46-1.09-1.03-1.07-2.52-1.05-1.07-.89-.24-.2-.1-1.09-.34-.7-.56-.3-.1-.48.34-.66-.34-.7-1.03-.76-.36-.66.32-.58-.52-.26-1.35.04-1.33-.54-1.31-1.13-1.57-.2-2.7,1.13-1.53.28-.68.64-.34,1.09-.66.56-1.49.02-.24-.04-1.69-.36-1.19-.68-.22-.28.14-.58-.22-.26-.36-.04-.34.34-.36,1.03-2.92,2.82-1.41-.56-.54.02-4.07,3.97-1.23.64-2.4,1.79.04-3.08.04-3.08.06-3.1.04-3.1h69.08v-.18ZM926.04,293.65l-.5.06.5-.83,1.65-3.97.74-1.37-.72,2.78-1.25,2.56-.42.78h0Z"/>
      <polygon class="cls-1" points="1041.5 58.35 1041.6 58.93 1042.46 59.94 1043.69 60.64 1044.62 60.88 1045.72 60.86 1048.72 59.48 1052.24 58.59 1054.16 57.76 1054.52 56.98 1055.4 56.7 1056.81 56.94 1059.41 58.89 1062.43 61.83 1064.84 64.15 1064.92 68.17 1064.96 72.42 1065.01 76.89 1065.05 80.07 1065.11 84.43 1065.15 87.88 1065.21 92.37 1065.25 94.78 1065.59 95.47 1065.39 96.41 1065.31 96.89 1065.33 97.26 1065.47 97.74 1065.45 98.4 1065.15 98.99 1065 99.69 1064.96 100.82 1065.29 101.52 1065.85 101.93 1066.31 101.93 1066.9 102.35 1067.68 103.07 1068.85 103.68 1070.06 103.9 1070.9 103.74 1071.91 104.16 1072.27 105.15 1072.07 106.09 1071.49 106.52 1070.88 106.86 1070.78 107.58 1071.08 108.33 1071.51 108.99 1071.99 110.14 1071.79 111.13 1071.35 111.97 1071.16 112.84 1071.53 113.6 1072.53 114.59 1073.14 115.55 1074.12 116.08 1074.57 115.71 1074.95 115.21 1075.35 114.83 1076.02 115.05 1076.82 115.33 1077.67 115.67 1077.57 116.48 1078.09 117.83 1078.51 120.44 1077.87 121.61 1078.01 123.18 1079.74 123.63 1080.16 124.11 1080.24 124.69 1076.42 128.68 1073.18 128.13 1071.43 129.18 1069.61 129.5 1068.79 131.29 1067.78 131.66 1066.41 131.56 1065.21 131.07 1064.3 131.31 1063.03 134.51 1061.99 134.23 1061.58 135.38 1061.04 135.88 1060.25 136.31 1059.55 134.88 1059.11 133.53 1058.46 133.23 1057.6 132.9 1056.71 132.92 1056.11 133.11 1055.38 133.99 1054.3 134.74 1053.49 134.13 1052.85 133.11 1052.32 134.72 1051.54 136.43 1051.68 138.42 1051.34 139.59 1050.59 139.27 1049.85 138.24 1047.76 137.41 1046.12 137.49 1046.45 136.37 1048.02 134.78 1047.55 134.47 1046.77 134.68 1046.43 134.47 1046.99 133.01 1047.05 131.42 1046.35 131.98 1045.48 133.67 1043.35 135 1043.45 137.25 1041.45 141.82 1041.35 143.77 1040.05 145.32 1038.39 146.65 1036.16 146.27 1034.47 147.42 1033.62 148.75 1032.86 148.95 1032.46 147.26 1032.18 146.75 1031.57 149.23 1030.93 149.39 1030.69 147.62 1030.4 146.45 1029.52 147.46 1028.95 150.13 1028.35 149.91 1028.15 148.91 1027.71 148.61 1027.57 149.75 1027.79 151.34 1027.47 152.19 1026.88 151.74 1026.28 150.98 1025.29 151.56 1024.37 151.79 1024.37 151.02 1024.55 150.07 1022.75 150.6 1020.56 152.37 1018.87 154.82 1019.45 155.21 1020.1 155.99 1017.16 159.74 1014.14 163.12 1011.85 168.61 1010.94 169.24 1010.15 170.24 1008.66 167.85 1008.36 165.92 1006.67 163.64 1005.99 162.07 1005.77 160.3 1005.87 158.39 1005.73 155.53 1005.59 152.67 1005.46 149.81 1005.32 146.95 1005.18 144.06 1005.04 141.18 1004.9 138.3 1004.76 135.42 1004.62 132.52 1004.48 129.62 1004.34 126.71 1004.2 123.79 1004.06 120.87 1003.93 117.95 1003.79 115.03 1003.65 112.41 1004.1 112.01 1005.24 111.25 1005.97 111.35 1006.61 112.49 1007.14 113.24 1007.76 113.02 1008.3 111.97 1008.28 110.5 1008.99 109.47 1009.85 109.31 1010.64 109.35 1011.04 108.85 1011 108.13 1010.72 106.98 1010.82 105.59 1012.81 103.13 1015.23 101.46 1016.09 100.62 1016.33 98.91 1017.72 97.14 1018.41 96.13 1018.59 95.24 1018.23 94.14 1018.27 92.06 1018.75 89.57 1019.33 86.85 1020.62 84.41 1022.73 81.72 1023.26 78.18 1023.84 74.45 1026.38 70.79 1029.26 66.64 1030.91 64.27 1033.87 59.96 1035.98 56.88 1037.03 55.47 1038.15 53.78 1039.96 54.28 1041.74 54.77 1041.49 57.22 1041.51 58.35 1041.5 58.35"/>
      <polygon class="cls-1" points="683.83 364.16 685.48 365.65 685.42 366.19 685.4 366.54 685.28 367.62 684.82 371.81 684.37 375.98 683.91 380.16 683.45 384.31 683 388.46 682.54 392.6 682.08 396.73 681.62 400.84 681.17 404.96 680.71 409.07 680.25 413.16 679.8 417.26 679.34 421.33 678.88 425.41 678.43 429.46 677.97 433.51 678.17 437.63 678.37 441.74 678.56 445.84 678.76 449.93 678.96 454 679.16 458.08 679.36 462.13 679.6 466.58 674.13 466.92 671.75 465.83 670.75 465.61 670.16 465.63 667.38 466.64 664.2 467.42 663.44 467.18 662.37 467.14 660.06 469.78 658.61 470.44 658.15 470.26 657.64 470.08 657.28 469.78 656.58 468.21 656.37 467.08 655.53 464.62 654.58 463.24 653.5 462.33 653.01 461.42 653.01 460.8 652.67 459.71 652.73 458.83 654.04 455.47 654.6 452.97 650.11 452.97 645.61 452.97 641.12 452.97 636.63 452.97 632.14 452.97 627.65 452.97 623.16 452.97 618.69 452.95 618.77 452.35 619.54 451.58 619.82 450.61 619.18 448.26 619.42 446.97 620.53 446.73 621.09 445.48 621.09 443.21 621.53 441.68 622.4 440.89 623.24 439.04 624.03 436.12 625.64 433.69 628.07 431.79 629.26 430.14 629.34 428.86 629.6 428.27 630.09 427.95 630.91 427.08 631.98 425.88 632.16 425.07 632.1 424.49 632.02 423.88 631.17 422.76 629.88 421.83 629.04 420.36 629.1 419.23 628.82 418.23 628.19 417.38 628.32 416.58 629.22 415.85 629.26 415.15 628.44 414.5 628.44 413.32 629.24 411.63 629.18 410.46 628.29 409.81 628.19 408.71 628.13 408.16 628.98 404.22 628.78 403.71 627.93 402.51 627.83 401.06 628.34 399.29 628.09 397.92 627.37 397.43 627.19 396.87 626.97 396.05 627.75 395.3 627.79 394.6 627.09 393.97 627.53 393.07 629.1 391.92 629.54 391.26 629.99 390.57 630.27 388.92 630.05 387.93 629.68 387.27 629.86 386.93 630.17 386.63 632.04 386.04 632.58 385.62 632.7 385.1 632.1 383.83 632.68 382.48 634.41 381.05 635.32 379.8 635.42 378.7 636.25 377.91 637.8 377.41 638.76 375.39 639.14 371.83 639.59 370.32 640.39 370.1 640.81 369.6 640.94 368.57 641.92 367.52 643.71 366.44 644.42 365.39 644.2 364.83 644.2 364.12 648.97 364.12 653.94 364.12 658.91 364.12 663.88 364.12 668.85 364.12 673.81 364.12 678.78 364.12 683.83 364.16 683.83 364.16"/>
      <polygon class="cls-1" points="912.19 328.51 911.69 330.31 911.95 331.35 912.95 332.42 914.04 335.08 914.91 338.66 913.74 337.21 912.49 336.44 910.54 335.84 908.79 334.81 908.91 336.3 908.75 337.91 907.42 337.41 906.51 336.87 907.32 338.58 905.57 338.06 904.4 338.16 903.65 339.67 902.63 340.59 901.12 340.89 898.88 339.5 898.16 337.83 897.86 335.96 897.74 338.16 898.14 340.47 898 342.22 900.15 342.54 902.15 342.26 904.88 342.34 906.65 342 907.72 341.44 910.28 341.92 910.46 344.03 910.16 346.11 910.02 348.34 910.74 348.32 911.57 347.6 911.99 343.61 914.34 342.14 915.11 342.24 915.87 343.53 916.13 344.84 916.38 346.63 915.83 349.35 912.23 352.53 909.67 355.45 908.36 356.05 906.47 355.71 904.32 354.98 903.27 354.84 902.47 355.08 901.98 354.18 901.66 352.53 900.82 351.98 900.19 352.03 899.75 353.78 897.74 354.28 895.02 353.57 892.16 352.09 893.39 353.66 900.49 356.61 901.28 357.16 902.04 357.96 901.04 359.21 900.27 360.62 900.15 361.73 899.87 362.43 897.05 364.32 895.52 363.98 891.6 360.58 893.39 363.52 894.82 364.77 897.7 365.43 903.09 364.34 904.86 365.53 903.41 367.66 901.96 369.15 900.07 369.3 898.4 369.7 897.9 370.72 896.71 370.78 894.86 370.84 891.98 370.93 890.41 370.7 888.2 372.78 887.37 373.06 886.22 372.66 885.72 370.99 885.2 370.16 885.18 373.3 885.38 374.13 885.8 374.77 883.22 376.48 880.75 378.61 879.86 379.18 878.84 380.23 876.78 383.3 876.26 385.52 875.53 388.01 875.43 386.89 875.55 385 875.03 382.86 874.71 386.81 873.92 388.64 866.56 388.52 863.6 389.44 860.9 386.71 858.37 384.15 855.85 381.59 853.33 379.02 850.8 376.44 848.28 373.86 845.76 371.27 843.23 368.69 840.59 368.59 837.95 368.51 835.3 368.41 832.66 368.33 830.02 368.23 827.37 368.15 824.73 368.05 822.09 367.97 821.99 366.19 821.91 364.91 820.26 362.75 819.28 361.48 817.2 362.57 817.08 362.03 817.16 361.08 816.98 360.74 816.4 360.5 813.44 360.36 810.48 360.22 807.52 360.08 804.56 359.94 801.6 359.81 798.64 359.67 795.68 359.53 792.71 359.39 792.04 359.17 790.71 359.92 787.19 361.06 785.46 362.05 784.82 361.99 781.84 362.97 778.86 363.94 778.52 363.94 772.86 364.02 767.2 364.1 761.53 364.18 755.87 364.26 756.57 359.41 757.04 358.3 757.58 358.04 759.53 358.02 760.76 357.46 761.85 354.54 764.34 352.23 765.45 351.66 767.12 351.2 771.07 350.64 775.33 348.4 778.39 346.27 780.81 345.68 781.57 344.9 782.12 343.89 782.46 342.5 782.72 342.2 784.13 342.3 785.2 341.08 786.24 340.39 787.27 339.99 787.9 339.97 788.14 340.33 788.32 341.36 788.54 341.7 788.98 341.72 789.57 341.48 790.37 340.83 792.44 338.76 793.81 337.96 795.91 337.51 797.44 338.6 798.36 338.22 801.04 333.99 802.11 333.22 802.91 332.92 804.3 332.86 804.32 331.68 804.8 329.92 804.86 328.7 805.71 326.94 806.03 327.29 812.81 327.35 819.58 327.41 826.36 327.47 833.14 327.53 839.91 327.59 846.69 327.65 853.47 327.71 860.24 327.77 867.02 327.83 873.8 327.89 880.57 327.95 887.35 328.01 894.13 328.07 900.9 328.13 907.68 328.19 912.19 328.51 912.19 328.51"/>
      <path id="US-NH" class="cls-1" d="M1010.09,170.18l-.83,3.3-.54,1.63-2.19-.12-.95.26-1.91,1.17-1.17.44-1.93,1.99-1.63.7-2.66-.1-2.66-.08-2.66-.08-2.66-.1-2.64-.08-2.66-.1-2.66-.08-2.66-.1-.32-.89-1.03-1.63-.26-.68.06-.76.58-2.05.42-.64.44-1.19.66-4.75.58-2.76.42-5.05.42-1.49.48-.91.76-2.38,1.39-1.97.91-2.4,1.09-2.11.18-1.23.81-2.68.58-4.79.56-.76,2.5-.66.79-.5,2.66-1.99.83-.83.54-.83.42-1.35.3-.36.06-.74-.93-3.16-.04-1.15,2.07-3.6-.44-2.09.3-.52,1.83-5.11,1.73-2.36,2.35.79,1.25-.08.93-.81.14,2.62.14,2.92.16,2.92.14,2.92.14,2.92.14,2.9.14,2.9.16,2.9.14,2.88.14,2.88.14,2.88.14,2.88.16,2.86.14,2.86.14,2.86.14,2.86-.1,1.89.24,1.77.68,1.57,1.69,2.29.3,1.93,1.49,2.38Z"/>
      <path id="US-NJ" class="cls-1" d="M950.67,222.32l-.32,1.93-1.85,3.9-.78.89-.91.79-.7.34-.64.62-.74.97-.7,1.95.42,1.77,3.58.66.95-.56.5,1.27.28,1.77-.28,1.91-.6,1.93-.46,2.4-.38,3.64-.58,3.28-.08-.99.36-3.97-.58.42-.4.91-1.09,5.13-1.51,2.72-1.39,1.89-1.43-.32.32,1.49-.4.78-.34,1.63-.85,1.07-.79-.1-1.15.74-.46.58-.04,1.07-.78.95-2.78,4.95-2.4,1.45-.58-.22.64-2.33.44-2.36-1.47-1.03-1.41-.54-1.61.08-1.77-1.83-2.29-1.33-3.2-3.62.1-1.01-.08-1.69.97-2.68.93-1.87,1.29-.97,3.74-.99.93-1.49.56-1.25.95-.83,2.15-1.51,3.26-1.83-4.51-6.14-1.07-.36-1.19-3-1.37-.83-.34-.48-.06-2.31.12-1.33.2-.78,1.17-.66.68-1.33.02-.7-.89-2.15v-.68l1.71-1.31,2.23-2.56,1.33-2.8.54-.81.66-.58,1.47-.79,1.85,1.13,1.85,1.13,1.85,1.13,1.85,1.13,1.85,1.13,1.85,1.13,1.85,1.13,1.81,1.13h0ZM946.47,254.4l-2.19,3.66-.04-.7,2.74-4.55-.52,1.59h0Z"/>
      <path id="US-NM" class="cls-1" d="M406.44,329.68l-.78.02-.02,6.5-.04,6.48-.02,6.46-.04,6.42-.02,6.42-.02,6.38-.04,6.38-.02,6.34-.02,6.32-.04,6.3-.02,6.28-.04,6.26-.02,6.24-.02,6.22-.04,6.2-.02,6.18h-12.62l-4.21.02h-33.63l-4.21.02h-12.72l1.91,3.97h-.02l2.27,1.13-.14-.04-4.11-.04-4.11-.02-4.11-.02-4.11-.02-4.11-.04-4.11-.02-4.11-.02-4.11-.02v2.46l-.02,2.44v2.46l-.02,2.44-6.62.02-6.6.02h-2.36v-111.31l.02-8.21v-8.27h113.1v11.63Z"/>
      <path id="US-NY" class="cls-1" d="M962.95,178.27l-.6,2.13-.6,2.13-.6,2.13-.6,2.13-.6,2.13-.6,2.13-.6,2.11-.6,2.11.5.62-.16,2.38-.16,2.38-.16,2.38-.16,2.36-.16,2.36-.16,2.36-.16,2.36-.16,2.36.58.95.58.95-.7.44-1.09.7-1.15.74-1.51.95.76,1.23.97,1.55-.78.64-2.01,2.15-1.35,1.15-1.11.38-.68.97-.76.64.72-2.15.78-1.81.66-3.52-.2-2.86-.81-1.17-.83-.79.97,2.82.16,3.46-.02.1-1.79-1.11-1.85-1.13-1.85-1.13-1.85-1.13-1.85-1.13-1.85-1.13-1.85-1.13-1.85-1.13-.4-.93-.68-.72-3.34-1.25-.85-.83-.78-1.13-.54-1.39-.28-1.45-.02-1.15.24-1.29-.78-.85-.02-.81-.5-.54-2.19-.97-.66-1.37-1.45-1.29h-82.67v-6.9l1.09-.62,3.6-2.29,1.79-1.67,1.89-1.39,1.99-1.09,1.57-1.41,1.17-1.73,1.29-1.29,1.41-.85.76-.89.1-.93-.26-1.27-.62-1.59-.08-1.25.46-.91.1-.62-.26-.32-2.96-.91.12-4.39-.04-.12.16-.06,6.8-1.95,4.33-.68,5.29-.18,6.3.95,2.44.87,1.55,1.11,1.79.3,2.03-.52,2.8-.18,3.6.18,1.93.26.26.36.24-.1.24-.56.95-.62,2.68-.93.36.2.56-.48.76-1.13,1.37-1.25,2.01-1.37,1.81-.72,1.61-.06,1.07-.34.54-.62.16-.56-.22-.48.1-.52.08-.26-.08-.22-.2-.44-.16-2.27-.32-1.05-.44-.78-.28-.62.06-.54.97-.66-.08.62.26.18.46-.28,1.03-1.35.12-.52.72-.54.52-.81-.58-.12-1.37.24-.32-.24.72-1.09-.14-.62-.22-.26-.46-.1-1.55.95-.48.08-.06-.5-.79-1.13,2.15-2.01,7.59-5.58.78-.85.28-.76-.2-.66-.22-.16.12-.16,7.31-7.21,4.15-3.34,3.44-1.87,2.6-.89,1.77.12.99-.12h5.21l7.79-.02,7.79-.02h4.61l.14,1.75-.4,2.07.32,2.25-.44,4.67,1.17,3.6-.28,2.4.08,2.58-.2.64-.91,1.49-.54,1.45-.3,1.47.02.95.79,4.21.16,1.85-.02,1.07-.7,3.46-.04.97.2.28h.26l.79-1.07.36-.16.46.26,1.11,1.63-.06,2.92-.04,2.11-.04,2.35-.08,3.52-.06,2.56-.04,2.35-.04,1.79-.26,1.31.38,1.57h0ZM909.47,139.08l-.6.22-.14-.3.1-.3.5-.36h.81l-.1.28-.58.46h0ZM906.67,146.53l-.28.08.02-.56.28-.36.56-.16-.02.28-.56.72h0ZM856.75,171.39l-.58.87-.56-.08-.4-.28-.14-.56.1-.7.5-.3,1.33.26.04.28-.3.5h0ZM976.86,222.48l-1.33,1.59,1.19.16,1.03-.48.97-.95,2.27-1.29,1.95-.56.62-.12.91.89,1.83-.72,1.89-.4-8.15,4.11-1.67.46-2.38,1.21-2.25.87-1.63.32-8.07,3.04-.64.06-.7-.3-6.66,1.57-2.72.18-2.48.54,1.83-1.25.04-.48-.44-.38-.97.1-1.01,1.29-1.61.44-.32-1.41.54-1.09.74-1.03,1.59-1.63,2.29-1.03,1.15-.89.79.79.18-1.07.62-.62.68-.34h1.61l.87-.16.64-.36.66-.06,1.77.48,1.73-.14,1.39-.68,1.45-.22,3.84-.16,3.82-.5,1.53-.87,3.2-2.44,1.85-.68-2.86,2.82-1.55,1.37h0ZM945.46,233.87l-.89.1.89-2.35,1.65-1.07.6.22.02.83-.24.72-1.09,1.09-.93.46h0Z"/>
      <path id="US-OK" class="cls-1" d="M563.26,329.68l.42,3.24.42,3.2.42,3.22.42,3.2.42,3.2.42,3.2.42,3.18.42,3.2-.04,2.46-.06,2.48-.04,2.48-.06,2.46-.06,2.46-.04,2.46-.06,2.46-.06,2.46-.04,2.44-.06,2.46-.06,2.44-.04,2.44-.06,2.44-.06,2.42-.04,2.44-.06,2.42-4.21-1.13-1.05-.72-1.95-.83-1.73-1.67-3.44-2.11-1.31-.5-.42.06-.7,1.03-1.85.81-.99.02-1.79-.3-.36-.26-.26-.64-.72-.42-.54.34-2.62.85-.38.62-1.49.02-1.47-.44-3.7,1.37-1.27,1.07-1.33.36-.68,1.05-.42-.16-1.39-1.29-1.41-.38-1.97-1.27-.06-1.13-.22-.14-.34-.12-.44.1-.85.97-.5.24-.48-.04-1.91-.64-.79-1.15-.38-.36-.44-.08-.81.36-.46,1.25-.38.36-.78.2.04.64-.7,1.75-.38.36-.5-.06-.5-.44-.38-.62-.16-.54.28-1.37-.18-.48-.38-.14-.91.66-.81-.04-1.05.66-.64.2-.6-.16-.97-1.05-1.67-.68-.66-1.25-.3-.36-.36-.1-.36.04-.6.4-1.93,1.65-.87.52-.76.1-.74-.16-.46-.42-.08-1.67-.44-.5-1.79-1.05-.38-.97-.16-1.37-2.17.22-2.66-.14-1.19,1.19-.64.22-.74-.24-2.15-1.63-2.29.34-1.29-.18-3.18-1.21-2.48-.12-1.03-.22-.56-.28-.24-1.87-.99-1.57-.32-.44-1.69-1.09-.28-.04-.18.24-.38,1.25-.52.06-1.95-.36-1.79.38-.99-.62-3.4-2.88-1.37-.76-1.11-.24v-10.85l-.02-2.72v-13.69l-.02-2.74v-11.03l-.02-2.78h-56.08v-11.63h156.82v11.63Z"/>
      <path id="US-PA" class="cls-1" d="M935.9,213.28l-1.47.81-.66.58-.54.81-1.33,2.82-2.23,2.54-1.71,1.31v.68l.89,2.15-.02.7-.68,1.33-1.17.66-.2.78-.12,1.33.06,2.31.34.48,1.37.81,1.17,3.02,1.09.36,4.51,6.14-3.26,1.81-2.15,1.53-.93.81-1.85,2.17-2.76.72-1.51.81-.38.38-1.67-.68-2.33.1-.79.3-.6.6-1.41,1.95h-60.45l-4.31-.02h-4.31l-2.44.02h-17.05v-5.62l-.02-2.8v-11.31l.02-2.82-.02-2.6v-30.7l3.48-1.29,1.55-.87,1.55-.83.81-.5.91-.44,5.86-3.26v6.9h2.58l2.56.02h23.23l2.56.02h23.21l2.58.02h23.21l2.58.02,1.45,1.29.66,1.35,2.19.97.5.56v.79l.78.85-.24,1.31v1.15l.28,1.45.54,1.39.78,1.11.85.83,3.36,1.25.68.74.4.91Z"/>
      <path id="US-RI" class="cls-1" d="M1000.73,204.6l-.7.64-.74-.97-.38-1.05-.54-.6-.58-.22.5,2.31-1.17,1.73-.32,4.47-1.49,1.85-4.61,1.19-1.37-.12.24-1.43.48-.6.1-1.55.06-1.01-.02-1.71-.02-1.97-.02-2.15-.02-1.89-.02-1.37-.02-1.89v-1.35l1.41-.02,1.93-.02,1.85-.04,1.15-.02,1.41-.02.06,1.13.08,1.73.78.28-.04,1.41-.02.93.68.58.7.6.66,1.15h0ZM1000.59,209.94l-.93.68-1.03-.12.52-.91.2-1.35.52-1.49.3-.46.62-.4-.18,4.05ZM998.26,210.1l-.52.46-.2-1.21.36-1.39.38-.04.18.74-.2,1.45h0Z"/>
      <path id="US-SC" class="cls-1" d="M863.58,389.5l-.24.08-4.95,3.34-1.47,1.47-4.07,5.64-1.03,3.6-.83-1.51.2-1.13.02-.93-1.03,1.99.97,2.9-.87,1.11-2.68,2.07-1.47.34-1.67.58-.52,2.05-2.25,1.87-1.31.83-2.38-.52.74,1.81-.87,1.35-1.53,1.05-1.89.68-1.07-.08-.91.36-.74.87-1.77.81-1.83-.46-2.09-.28-1.15.48,1.95.81,1.03,1.15-.2,1.57-.54.6-1.23.81-.54-.12-.32-.74-.4-1.53-.58.32-.1.72-.5.26-1.75-2.44.1,1.87.6,1.43.6.74.6.42.14.68-1.19,1.61-.62.36-1.09.26-.62.99.2.87-3.8-1.77-1.13-1.59.04-2.05-.72-2.33-2.23-3.9-1.61-1.11-1.07-2.66-1.05-4.61-1.65-2.94-2.27-1.29-1.51-1.53-.78-1.75-.79-1.15-.83-.54-.46-.89-.06-1.29-1.29-1.69-3.8-3.14-.89-1.91-1.79-1.99-4.45-4.03h0l-4.27-7.85h-.02l-.54-1.59-.91-.66-1.47-.24-1.45-.78-2.11-1.99-.02-.02-3.54-2.46.74-2.21,2.72-2.9.91-1.53.14-.02h.34l2.98-.97,2.98-.95.64.04,1.73-.99,3.5-1.13,1.35-.76.68.22,2.96.12,2.98.14,2.96.12,2.96.14,2.96.14,2.98.12,2.96.14,2.96.12.58.24.18.34-.08.95.12.54,2.09-1.09.97,1.25,1.65,2.17.08,1.27.1,1.79,2.64.08,2.64.1,2.64.08,2.64.1,2.64.08,2.64.1,2.64.08,2.64.1,2.52,2.58,2.52,2.58,2.52,2.58,2.52,2.56,2.52,2.58,2.54,2.56,2.52,2.56,2.68,2.72Z"/>
      <polygon class="cls-1" points="565.76 394.6 566.74 395.7 567.51 396.01 567.75 396.45 568.13 396.57 568.61 396.47 569.32 395.97 570.37 396.11 571.25 395.93 572.98 396.19 573.93 396.71 573.95 399.73 573.97 402.75 573.99 405.77 574.01 408.79 574.01 411.59 574.01 414.4 574.01 417.2 574.01 420 574.01 422.8 574.01 425.59 574.01 428.37 574.01 431.15 576.6 433.83 577.71 435.68 578.07 436.61 578.18 439.81 578.44 440.59 579.74 441.78 579.76 442.58 581.11 444.88 581.07 445.96 582.36 448.42 583.09 449.06 583.21 450.7 583.61 451.96 583.01 452.85 583.27 454.1 582.91 455.26 582.72 456.79 581.86 459.15 581.11 460.3 580.07 462.53 580.17 464.36 579.58 466.36 579.5 467.14 580.05 468.47 580.25 472.13 579.95 472.9 578.7 475.05 577.81 474.99 575.84 478.53 576.95 480.51 576.87 481.23 572.96 481.63 564.08 485.6 560.62 487.75 560.8 487.03 564.99 484.25 563.52 483.83 561.13 484.53 560.28 484.27 561.29 481.97 560.96 479.94 559.27 479.88 558.19 481.51 557.44 481.43 556.46 480.73 555.71 480.95 556.27 484.63 557.34 486.14 558.23 488.07 555.81 490.43 553.54 492.38 553.3 494.27 551.04 496.73 548.91 498.12 543.88 501.38 542.45 502.08 540.19 503.59 537.07 504.72 534.07 506.53 533.05 506.81 534.96 505.28 537.23 503.77 535.28 503.96 532.28 503.27 530.45 503.23 530.43 503.79 529.04 504.56 527.59 503.43 526.95 502.65 526.65 502 526.04 501.84 525.44 502.16 527.61 506.83 528.52 507.02 529.54 507.48 528.26 508.57 526.89 509.39 524.75 509.95 522.92 508.24 522.52 510.36 522.28 512.49 521.67 513.03 520.69 513.8 520.16 513.23 519.9 512.41 519.28 513.15 518.37 513.7 516.86 513.8 515.72 514.1 515.74 514.97 516.06 515.85 518.07 515.15 517.33 517.42 515.49 519.66 514 520.2 511.71 519.86 511.13 520.08 510.64 520.54 513.3 524.04 511.59 529.3 510.5 531.21 509.74 531.45 508.91 531.51 505.95 529.82 504.34 528.51 505.77 532.09 509.64 533.12 509.84 534.47 509.82 535.62 509.07 536.97 508.35 538.76 508.89 540.01 509.5 543.09 510.02 544.51 510.6 548.8 511.21 550.65 514.73 557.46 515.92 557.52 516.12 558.26 516 559.67 513.46 560.09 512.39 560.72 512.19 561.26 512.03 561.56 511.71 561.54 510.5 561.14 507.76 559.21 503.74 558.02 498.47 557.56 494.88 556.59 492.95 555.12 490.94 554.24 488.84 553.97 487.09 553.17 485.72 551.84 483.69 550.98 481.03 550.61 479.3 549.61 478.09 547.17 478.09 547.13 477.01 543.06 475.66 540.49 473.02 537.31 472.78 536.89 472.78 536.89 472.76 536.38 473.1 534.53 472.82 533.2 471.98 532.11 471.79 530.95 472.24 529.74 472.28 528.29 471.88 526.6 470.2 524.77 467.21 522.79 464.69 519.9 462.6 516.09 460.54 513.44 458.49 511.97 457.1 510.19 456.34 508.06 456.13 506.83 456.42 506.49 455.17 504.12 452.35 499.73 450.72 496.51 450.3 494.47 448.51 492.04 445.33 489.22 443.61 487.39 443.19 486.12 443.19 486.12 438.24 482.4 436.81 480.08 435.68 479.34 434.38 479.42 433.73 479.2 433.69 478.69 433.27 478.67 432.48 479.14 429.85 479.24 425.38 478.97 422.16 478.33 420.17 477.34 418.78 477.47 417.99 478.73 416.3 479.54 413.7 479.9 411.47 482.22 409.6 486.5 408.79 489.24 409.03 490.47 408.53 491.37 407.32 491.92 406.08 493.15 404.83 495.08 403.36 496.02 401.69 495.96 398.59 494.47 394.08 491.56 390.54 489.78 387.98 489.1 385.71 487.75 383.75 485.74 381.94 484.41 380.29 483.73 378.36 481.51 376.16 477.71 375.04 474.79 375.04 471.69 372.14 464.93 370.61 461.99 369.48 460.64 367.25 459.03 363.93 457.14 359.48 453.39 353.9 447.72 349.94 444.31 347.62 443.15 345.61 441.11 343.9 438.17 342.23 436.3 342.05 436.22 339.79 435.11 339.79 435.11 337.88 431.13 338 431.13 342.21 431.13 346.43 431.13 350.64 431.13 354.85 431.13 359.07 431.13 363.28 431.13 367.49 431.13 371.7 431.13 375.92 431.13 380.13 431.13 384.34 431.13 388.56 431.13 392.77 431.13 396.98 431.13 401.2 431.13 405.41 431.13 405.43 424.95 405.45 418.75 405.47 412.53 405.49 406.29 405.51 400.03 405.53 393.75 405.55 387.45 405.57 381.13 405.59 374.79 405.61 368.43 405.63 362.05 405.65 355.63 405.67 349.19 405.69 342.74 405.71 336.26 405.73 329.76 406.5 329.74 410 329.74 413.5 329.74 417 329.74 420.49 329.74 423.99 329.74 427.49 329.74 430.99 329.74 434.48 329.74 437.98 329.74 441.48 329.74 444.98 329.74 448.47 329.74 451.97 329.74 455.47 329.74 458.97 329.74 462.47 329.74 462.47 332.5 462.47 335.26 462.47 338.03 462.47 340.79 462.47 343.55 462.47 346.29 462.47 349.04 462.47 351.78 462.47 354.52 462.47 357.26 462.47 359.99 462.47 362.71 462.47 365.43 462.47 368.15 462.47 370.86 462.47 373.56 463.56 373.8 464.93 374.55 468.33 377.43 469.32 378.05 471.11 377.69 473.06 378.05 473.57 377.99 473.95 376.76 474.13 376.5 474.41 376.54 476.1 377.63 476.42 378.07 477.41 379.64 477.67 381.51 478.2 381.79 479.24 382 481.74 382.12 484.92 383.34 486.21 383.51 488.5 383.18 490.65 384.81 491.4 385.05 492.02 384.83 493.23 383.63 495.87 383.77 498.04 383.55 498.2 384.93 498.57 385.92 500.36 386.97 500.8 387.47 500.88 389.14 501.34 389.56 502.05 389.72 502.81 389.62 503.68 389.1 505.61 387.45 506.21 387.05 506.56 387.01 506.92 387.09 507.22 387.45 507.88 388.7 509.54 389.38 510.5 390.43 511.09 390.59 511.75 390.39 512.78 389.74 513.6 389.78 514.53 389.12 514.91 389.26 515.07 389.72 514.79 391.11 514.95 391.62 515.33 392.24 515.84 392.68 516.34 392.74 516.72 392.38 517.41 390.63 517.37 389.99 518.17 389.78 518.53 389.44 518.98 388.17 519.8 387.83 520.24 387.89 520.63 388.25 521.43 389.4 523.32 390.05 523.81 390.09 524.31 389.85 525.16 388.9 525.6 388.78 525.96 388.92 526.16 389.06 526.24 390.19 528.19 391.46 529.62 391.84 531.01 393.13 531.4 393.27 532.08 392.24 533.41 391.86 534.68 390.79 538.38 389.42 539.85 389.86 541.34 389.84 541.74 389.24 544.36 388.36 544.9 388.03 545.63 388.46 545.89 389.1 546.23 389.36 548.04 389.68 549.03 389.64 550.86 388.82 551.58 387.79 551.99 387.73 553.3 388.23 556.74 390.31 558.49 392 560.44 392.82 561.49 393.53 565.76 394.6 565.76 394.6"/>
      <path id="US-VA" class="cls-1" d="M879.26,262.47l1.07.89,2.52,1.05,1.03,1.07-.46,1.09-.06.79.48.72,3.36,1.43,2.07,2.03,1.27.62.38.18.91.5.42.62-.28,2.72-.87,1.35-1.37,1.03-1.79,1.83-.44,1.69-.56,3.16.76,1.07.78.28,2.29-.72,1.17.32,2.62,3.8,4.89,1.49,1.79.93,1.45,1.97,2.19,1.13,1.69,1.65.04,1.07-.6,1.27-.24,1.71-.72,1.07-1.73.12-1.05-.28-5.62-6.04-.68-.56-2.09-3.16-2.44-1.71-.76.04,3.48,3.14,1.41,2.19,2.5,3.06,1.79,1.29,1.31,2.03,1.23.95,3.34,1.35-1.15.97,1.85.83.26,1.51-.18,1.73-2.56-.68-.08,1.27.24.76-1.13.62-1.57-.83-4.09-4.59.04.62.34.72,2.38,2.96,2.13,1.77,1.81.79,1.39,1.49.5.89.32,1.35-1.03.91-1.17.52-1.15-.91-.83-.97-1.79-1.65-.54-1.85-1.35.1-5.68-2.35-4.57-.28.44.48.58.32,3.64.58,1.43,1.07,2.98.95,1.75.26.72,2.92,2.42,2.01.32,1.49,1.65.16,2.9-1.47,1.87.52,2.7.42.62,1.17.46,2.25.95,2.52.62,2.46h-.6l-1.45-.02-4.65-.04-6.78-.06-6.78-.06-6.78-.06-6.78-.06-6.78-.06-6.78-.06-6.78-.06-6.78-.06-6.78-.06-6.78-.06-6.78-.06-6.78-.06-6.78-.06-6.78-.06-6.78-.06-.32-.36-2.66-.1-1.95-.08-.87.48-3.91-.02-3.12-.02-5.29-.02-6.44-.04-9.08-.04-4.23-.02,1.89-1.11,2.8-.66,4.99-1.89,1.99-1.93,2.8-1.41,1.17-1.69,1.87-1.61.7-1.83.26-.28,3.08-1.65,3.24-2.07,7.07-5.7.14.76-.26.81.6.95.5,1.49.7.91.87.74,1.45.66,1.71,1.15,1.35.32.46-.04,1.49-1.11,1.23-.6,1.29-1.21,2.31,1.65h.91l2.27-.72,2.13-.2.54-.22.79-.68.02-1.37.18-.36.36-.16.42-.04.95.5.93.02,3.97-1.59.3.12.5.74,1.75-.93,1.03-.87.46-1.31.85-1.29-.18-.58-.56-.76.74-1.75,1.07-1.73,4.05-5.25,1.29-3.18,1.69-2.05.56-1.63,1.27-1.61.87-3.34.54-.68.78-.12.79.42.58.62.38.99,2.05.87,1.71.1,1.19-.64.7-1.17.93-2.21.89-1.31.58-1.65.6-1.13.91-.72,2.31.04,1.19-1.01.91-1.15.56-.38.66.06,2.09-1.85,2.74-3.88.6-2.44.72-1.77.28-1.81.54-.99,2.42,1.97,1.39,1.13,3.18,2.58,2.11,1.71.83-1.97,1.35-2.94h0ZM925.55,293.71l.5-.06h0l-2.01,3.6-.85.38,2.36-3.91ZM917.93,295.7l.74-1.07,2.82-.38,1.75-.24-4.13,9.28.18,1.71-.83.56-1.25.44-1.27,1.01-.83,1.11-.78,3.02-1.51,3.38-.93-1.41-.24-1.21.42-3.16,1.63-5.19,1.79-3.24,1.37-1.53,1.09-3.08h0Z"/>
      <path id="US-VT" class="cls-1" d="M977.65,178.82l-1.83-.06-1.85-.08-1.83-.06-1.85-.08-1.85-.06-1.83-.08-1.85-.06-1.83-.08-.5-1.53.24-1.31.04-1.81.06-2.33.04-2.58.08-3.52.04-2.35.06-2.13.06-2.9-1.11-1.63-.46-.28-.36.18-.78,1.07-.26-.02-.2-.28.04-.97.7-3.46.02-1.09-.14-1.85-.79-4.21-.02-.95.32-1.45.54-1.47.91-1.49.2-.62-.06-2.58.28-2.4-1.17-3.6.44-4.67-.32-2.23.38-2.07-.12-1.75,3.18-.02h7.79l7.77-.02,7.79-.02h7.79l-.3.52.44,2.09-2.07,3.6.04,1.15.93,3.16-.06.74-.3.36-.42,1.35-.54.83-.83.83-2.66,1.99-.79.5-2.5.66-.56.76-.58,4.79-.81,2.68-.18,1.23-1.09,2.11-.91,2.4-1.39,1.97-.76,2.38-.48.91-.42,1.49-.42,5.05-.58,2.76-.66,4.75-.44,1.19-.42.64-.58,2.05-.06.76.26.68,1.03,1.63.32.89Z"/>
      <path id="US-WV" class="cls-1" d="M846.51,253.37l-.06,3.1-.04,3.1-.06,3.08-.04,3.08,2.38-1.79,1.25-.64,4.07-3.95.54-.02,1.41.56,2.92-2.82.36-1.01.34-.34.38.04.22.26-.14.6.22.28,1.21.68,1.67.38.24.04,1.49-.02.66-.56.34-1.09.68-.64,1.51-.28,2.7-1.11,1.55.18,1.33,1.13,1.33.54,1.35-.04.54.26-.32.58.36.68,1.01.76.36.7-.34.64.12.48.54.32.34.7.1,1.09.24.2-1.21,2.88-.83,1.97-2.11-1.71-3.18-2.58-1.39-1.13-2.42-1.97-.54.99-.28,1.81-.72,1.77-.58,2.44-2.74,3.88-2.09,1.85-.64-.04-.56.38-.91,1.15-1.17.99-2.31-.04-.93.72-.6,1.15-.58,1.65-.89,1.29-.95,2.21-.7,1.17-1.19.64-1.73-.1-2.03-.89-.38-.99-.58-.62-.79-.42-.78.1-.54.68-.87,3.34-1.27,1.61-.56,1.65-1.69,2.05-1.29,3.18-4.03,5.25-1.09,1.73-.74,1.73.56.76.18.58-.85,1.29-.46,1.31-1.03.87-1.73.93-.52-.74-.3-.12-3.97,1.61-.93-.02-.95-.52-.42.04-.36.18-.18.34-.02,1.39-.79.68-.54.22-2.13.2-2.25.72h-.91l-2.31-1.65-1.29,1.21-1.25.58-1.47,1.11-.46.04-1.35-.32-1.71-1.15-1.43-.66-.87-.72-.7-.93-.5-1.49-.6-.93.26-.81-.14-.76-2.58-.74-3.32-2.74-2.13-3.32-.68-1.55-.78-1.05-.2-1.05-1.99-2.76-.54-1.19-.04-.76.64-1.43.14-.7-.22-3.54-.44-.66,2.17.79,2.07-.46,1.29-1.09.5-1.71.74-1.01.91-.28.44-.76-.16-1.85-.28-1.27.74-1.83,1.71-2.82,1.33-1.15.95.52.6.87.2,1.25.2.16.28-.02.72-.95.66-.38.26.1.28-.02.04-.62-.5-1.71.04-1.01.6-.3.64-1.15.68-1.99.81-1.03.95-.04,1.01-.81,1.11-1.59.99-.46.87.68,1.11.04,1.31-.58,2.31-1.67,3.3-2.78,1.67-2.25.04-1.73,1.27-4.21,2.54-6.72,1.23-4.37-.04-1.99-.36-1.63-.68-1.25.42-.99,2.21-1.07-.02,2.82v11.31l.02,2.8v5.62h17.05l2.44-.02Z"/>
      <path id="US-WY" class="cls-1" d="M387.21,171.95l.02,6.36.02,6.32.02,6.32.02,6.28v6.26l.02,6.24.02,6.2.02,6.2h-131.48v-21.76l-.02-3.14v-55.8l-.02-4.05v-4.07l.02-3.3v-9.9h131.2l.02,6.58.02,6.56.02,6.52.02,6.48.02,6.48.02,6.44.02,6.4.02,6.4Z"/>
      <path id="US-IA" class="cls-1" d="M637.49,184.33l1.13,1.73,1.97,1.55,1.11,1.45.28,1.35,1.19,1.45,2.13,1.53,1.23,1.35.34,1.17-.06,1.81-.46,2.44-.78,1.77-1.09,1.07-.79,1.51-.54,1.95-1.67,1.77-2.8,1.65-3.14,1.11-3.44.6-2.05,1.41-.64,2.21.28,1.83,1.23,1.49.7,1.57.18,1.65-.85,2.74-1.91,3.82-2.13,2.46-2.31,1.11-1.03,1.65.26,2.19-.2,1.23-.95.44-1.65-1.29-.3-.91-1.33-.91-.2-.58-1.01-.52-.93-1.79-4.71.04-4.73.02-4.71.04-4.73.04-4.71.04-4.73.02-4.71.04-4.71.04-4.73.04-4.71.04-4.73.02-4.71.04-4.73.04-4.71.04-4.73.04-4.67.02-1.13-1.83-.62-1.69.38-.81.08-2.74-.22-4.71-.46-2.66-.68-.6-.08-.83.52-1.03-.16-.72-.83-.38-.26-.89.32-1.45-.2-.87-.72-.32-.28-.5.12-.68-.4-.42-.87-.2-.36-1.63.16-3.08-.32-2.17-.83-1.29-.44-1.19v-1.13l-.87-1.77-1.77-2.42-1.13-3.22-.52-3.97-1.25-2.23-.58-.12-.48-2.09-.5-.93-.1-.72-1.55-1.81-.1-.7.2-.87,1.01-1.71.91-2.8.2-1.89.76-1.43.02-.78-.14-1.03-.4-.91-1.23-.66-.14-.3-.12-1.03.5-.66.16-.74-.14-.91-.74-1.57-.32-1.61,2.7-.1h24.34l6.08-.02h60.83l6.18-.02.14,1.61.36,1.15.76.93,1.15.7.18,1.37-.76,2.01-.26,2.48.24,2.96.58,2.66.89,2.36,2.07,1.73,3.2,1.11,1.89,1.67.56,2.29.14.18Z"/>
      <path id="US-IL" class="cls-1" d="M690.59,184.74l-.02,3.93.3,3.26.56,1.45.66,1.07.7.68.81,2.11.91,3.54.85,2.33.68.95-.04,6.66-.02,7.43-.02,7.41-.04,7.35-.02,7.35-.02,7.29-.04,7.27-.02,6.84v.12l-.87.74-.6,1.27.16,1.37-.24.97-.6.6.3,1.49,1.17,2.38.72,2.36.24,2.33-.22,1.65-1.01,1.51-.97,3.26-.83,1.29-1.03.44-.91,1.21-.79,1.99-.85.95-.91-.06-.68.38-.44.78.06.81.54.87-.18.79-.89.74.02.36.28.22-.1.34-.58.36-.34,1.09.04,1.81-.32.91-.6.04-.08.5.99,2.05-.58.42-1.03,1.69-.22,1.85.62,2.03-1.55,1.65-3.74,1.23-1.97,1.11-.22.95.26,1.45.74,1.95.14,1.35-.48.76-2.66-.52-4.85-1.77-3.24.06-1.65,1.89-.58,1.43.2,1.15-1.31-1.41-.89-.64-.16.04-.2.18-.08.44.06.32.12.36-.06.22-.22.02-.95-.54-1.15-1.57-1.37-2.58-.3-2.05.78-1.53v-1.59l-.78-1.69-.38-1.65v-1.61l-1.87-2.42-3.74-3.22-2.74-2.01-1.77-.76-2.05-1.61-2.35-2.48-1.25-1.91-.16-1.31,1.07-3.52,3.1-7.71.36-.89.1-.34-.14-.34-.3-.32-1.31-.91-2.5-.78-2.33-.42-1.85.91-1.61-1.87-1.39-4.67-3.4-4.93-5.45-5.21-3.16-3.56-.87-1.87-.78-2.82-.64-3.78.02-3.12,1.09-3.76.95-.44.2-1.23-.26-2.19,1.03-1.65,2.31-1.11,2.13-2.46,1.91-3.82.85-2.74-.18-1.65-.7-1.57-1.23-1.49-.28-1.83.64-2.21,2.05-1.41,3.44-.6,3.14-1.11,2.8-1.65,1.67-1.77.54-1.95.79-1.51,1.09-1.07.78-1.77.46-2.44.06-1.81-.34-1.17-1.23-1.35-2.13-1.53-1.19-1.45-.28-1.35-1.11-1.45-1.97-1.55-1.13-1.73,8.59.08,8.43.06,8.43.06,8.43.06,8.43.08,8.43.06,2.38.02Z"/>
      <path id="US-IN" class="cls-1" d="M747.01,204.72l-.06,8.11-.08,8.07-.06,8.01-.06,7.99-.06,7.95-.06,7.89-.08,7.87-.02,7.99-.3.22-.44,1.03.48,1.05-.02.85-.52.66.18.48.87.32.34.76-.2,1.17-1.89,1.17-3.6,1.35-.79.38-.64.18-.3-.08h0l-.48-.26-.66-.54-1.13-.26-1.85.18-.74,1.11.38,2.07-.64,1.59-1.63,1.09-1.17,1.45-.7,1.81-1.13,1.09-1.53.38-1.25,1.67-.95,2.94-1.03,1.81-1.11.72-1.55-.18-1.95-1.07-1.11-1.07-.3-1.13-.58-.79-.54-.36h-.36l-.02.16.16.32-.2.34-1.21.12-.52.46.18.81-.28.56-.7.34-.38.78-.04,1.21-.5,1.11-.93.99-1.39-.34-1.81-1.67-1.85-.4-1.89.91-1.39,1.21-.93,1.53-.87.38-1.29-1.17-3.04-1.61-1.59-.34-1.15.38-.79-.18-.28-.44-.22-.18-.22.22-.02,1.41-.28.87-.52.38-.4-.3-.28-.95-.66-.32-1.03.34-1.05-.14-.91-.58-.34.06-.26.28.08,1.09-.2.87-.48.58-.68.14-.89-.3-.38.28-.99-2.05.08-.5.6-.04.32-.91-.04-1.81.34-1.09.58-.36.1-.34-.28-.22-.02-.36.89-.74.18-.79-.54-.87-.06-.81.44-.78.68-.38.91.06.85-.95.79-1.99.91-1.21,1.03-.44.83-1.29.97-3.26,1.01-1.51.22-1.65-.24-2.33-.72-2.36-1.17-2.38-.3-1.49.6-.6.24-.97-.16-1.37.6-1.27.87-.74v-.12l.02-6.84.04-7.27.02-7.29.02-7.35.04-7.35.02-7.41.02-7.43.04-6.66.12.18.7.64.56.36.42.06.24.56,1.05.32,1.93.14,1.77-.22,1.61-.58,3.93-2.27h10.29l5.66.02h22.69v1.45Z"/>
      <polygon class="cls-1" points="674.89 59.96 673.68 60.64 671.55 62.33 670.1 63.82 669.32 65.13 668.19 65.88 666.68 66.06 665.47 66.62 663.32 68.55 661.71 69.54 659.07 70.26 655.35 70.71 652.25 71.97 649.77 74.01 646.77 75.74 643.25 77.15 642.02 77.41 641.92 77.63 642.3 78.62 643.25 78.36 643.67 78.96 644.24 79.22 645.32 79.7 645.83 80.83 646.35 81.96 646.87 83.09 647.38 84.23 649.73 84.88 652.07 85.54 654.42 86.19 656.76 86.85 659.11 87.51 661.45 88.16 663.8 88.82 666.14 89.47 667.45 90.23 668.77 90.98 670.08 91.74 671.39 92.49 673.46 92.63 675.28 93.09 677.85 93.11 680.43 93.69 684.23 94.94 685.12 96.01 685.28 96.73 684.9 98.4 688.52 99.89 690.07 101 690.65 101.85 690.55 102.63 690.9 104.26 690.53 105.13 690.53 106.66 689.71 108.27 689.43 109.15 689.41 109.88 689.59 110.36 690.03 110.54 691.4 110.44 692.75 109.94 693.35 110.24 693.47 110.5 693.37 110.94 692.28 113.66 692.32 114.75 692.77 115.82 693.53 116.86 694.42 117.22 694.48 115.94 694.66 115.39 695.06 115.15 696.27 113.5 698.28 110.44 700.09 107.26 701.7 103.98 702.87 102.13 703.6 101.71 704.16 100.72 705.01 97.66 705.65 96.25 706.07 95.71 706.29 96.05 705.87 97.74 705.87 99.13 706.21 100.9 706.88 101.52 707.9 100.96 708.77 99.79 709.51 98 710.34 97.26 711.29 97.58 712.09 97.46 712.71 96.93 713.9 96.67 714.12 97.34 713.98 98.69 713.6 99.35 712.98 99.31 712.29 100.03 711.51 101.52 711.55 102.69 712.41 103.56 712.82 103.6 712.82 102.83 713.22 102.03 714.47 100.58 714.59 100.11 716.98 98.83 717.87 98.02 718.11 97.08 719.36 95.18 720.54 94.56 722.15 94.3 723.7 94.46 725.21 95.06 726.06 95.04 726.26 94.42 727.55 94 729.92 93.79 731.66 92.91 732.78 91.36 734.21 90.57 735.94 90.55 738.3 91.1 741.28 92.24 743.69 93.77 746.87 96.85 747.7 97.16 748.26 97.2 748.52 96.97 748.54 96.67 748.3 96.31 748.46 95 748.32 94.62 749.25 92.59 750.07 92.08 751 92.28 751.6 92.71 751.84 93.39 752.13 93.63 752.71 93.65 753.03 93.75 753.23 93.69 753.52 93.31 755.51 93.47 762.29 94.5 763.22 94.34 763.76 93.98 763.88 93.43 763.44 92.91 761.67 91.82 761.14 91.1 761 90.43 761.26 89.79 760.88 89.21 759.86 88.7 757.66 88.56 757.26 88.04 757.44 87.53 758.1 86.87 758.12 85.9 757.92 85.34 757.62 83.67 757.14 82.54 756.17 80.87 755.77 80.27 755.19 79.91 755.19 79.91 754.72 79.81 754.02 80.13 753.21 80.85 752.06 81.6 750.88 81.4 750.07 80.35 748.9 80.13 747.36 80.73 746.01 80.71 744.84 80.05 742.6 79.74 742.34 79.24 742.38 78.72 742.73 78.19 742.93 76.89 742.97 74.85 743.27 73.4 743.85 72.56 742.97 72.2 740.65 72.36 737.98 73.06 734.98 74.31 731.72 74.75 728.21 74.37 725.54 74.43 722.58 75.05 722.07 74.85 720.22 75.68 717.02 77.55 714.61 79.26 712.63 81.19 712.33 81.21 711.85 80.77 710.84 80.17 709.76 80.15 708.61 80.71 707.46 80.35 706.29 79.08 705.21 78.72 704.24 79.28 702.65 79.54 699.15 79.24 698.78 78.82 698.46 77.45 698.08 76.85 697.4 76.44 696.31 74.91 693.91 71.01 693.25 70.55 691.28 69.34 689.41 68.81 684.7 68.05 683.69 67.51 683.08 67.61 679.96 69.72 679.82 70.18 679.64 70.63 679.12 71.37 678.7 71.71 678.44 71.37 678.19 70.75 678.23 69.4 678.56 67.31 679.54 65.92 679.54 65.92 680.37 64.43 682.64 62.09 682.58 61.55 682.92 60.66 682.92 60.66 686.73 57.64 687.49 56.7 687.33 56.34 686.51 55.85 686.63 55.69 690.94 55.17 691.88 54.56 690.91 53.62 689.34 53.16 687.15 53.16 684.98 53.48 681.05 54.89 679.66 55.79 676.52 58.99 674.89 59.96"/>
      <polygon class="cls-1" points="747.64 99.09 748.97 99.59 751.38 101.24 753.64 102.19 755.79 102.47 757.36 103.05 758.35 103.94 759.07 104.93 759.51 106.03 760.54 106.64 762.15 106.78 763.42 107.24 764.36 108.03 769.5 110.08 771.65 111.15 772.84 112.21 773.18 112.88 773.08 113.56 773.2 114.27 774.07 115.67 774.41 115.78 774.61 116.46 774.69 117.67 774.95 118.49 775.38 118.9 775.13 119.06 773.54 118.37 772.64 118.59 772.23 119.5 772.17 120.36 772.46 121.17 774.49 123.59 775.03 125.8 775.13 128.46 774.87 129.5 774.65 131.78 774.49 135.32 774.45 136.53 773.78 137.7 771.97 139.39 771.95 139.08 771.51 139 771.03 139.25 770.38 140.71 769.82 143.35 769.14 144.78 768.35 145 767.87 145.38 767.71 145.91 766.86 146.27 765.29 146.45 764.22 147.24 763.42 149.49 763.46 150.56 763.08 151.89 763.1 153.05 763.52 154 764.79 154.95 766.9 155.91 768.15 156.05 769.03 155.65 769.94 154.08 770.81 153.46 771.89 153.21 772.28 152.49 774.05 149.37 774.05 148.67 773.42 148.42 773.52 148.22 774.35 148.1 775.07 147.68 775.68 146.97 776.76 146.43 779.38 145.61 780.79 144.68 781.68 144.52 782.98 145.02 784.67 146.17 786 147.84 786.99 150.03 788.24 155.69 789.75 164.79 790.79 169.86 791.34 170.93 791.62 171.47 790.29 178.54 789.22 181.45 787.35 183.13 785.5 184.76 783.2 187.51 780.65 188.86 779.36 189.65 779.08 190.17 778.76 190.01 778.07 191.5 777.45 193.55 777.21 195.12 777.43 195.99 776.9 196.55 775.94 197.58 775.76 197.96 775.82 198.58 775.62 198.87 775.17 198.85 774.81 199.15 773.95 200.25 772.46 203.09 772.23 203.6 772.05 203.76 765.83 204 759.61 204.24 753.39 204.48 747.17 204.72 747.17 203.27 741.5 203.27 735.84 203.27 730.17 203.27 724.51 203.27 718.85 203.27 713.18 203.27 708.55 203.27 709.76 202.57 711.75 200.94 712.86 199.49 713.94 197.58 714.97 195.22 717.08 191.66 718.11 189.51 719.1 186.77 719.86 183.91 720.36 180.91 720.6 177.79 720.58 174.55 720.08 171.29 719.1 167.99 718.57 166.3 718.37 165.85 716.6 161.61 714.59 155.69 714.61 155.19 716.48 151.66 716.52 151.18 716.32 148.3 715.93 146.85 714.97 144.9 715.01 144.4 716.96 141.92 718.13 140.03 719.18 137.72 719.88 135.04 720.2 131.96 720.2 129.91 719.86 128.88 719.9 128.09 720.32 127.53 722.4 126.81 723.1 125.6 723.26 123.46 723.68 122.38 724.37 122.4 725.03 121.97 725.62 121.07 726.42 120.81 727.41 121.21 728.78 119.88 730.55 116.82 731.9 115.11 732.86 114.75 733.04 115.03 732.44 115.94 732.26 116.96 732.5 118.05 732.3 119.1 731.86 120.55 732.14 121.01 731.39 123.34 731.35 124.49 731.8 125.36 732.36 125.07 733 123.58 733.2 122.78 732.94 122.68 733.04 122.05 733.47 120.87 733.87 120.32 734.21 120.38 734.31 121.01 734.15 122.22 733.14 125.11 732.94 125.98 733.16 126.22 734.37 124.43 735.38 121.57 736.16 119.36 736.3 118.17 736.06 115.07 736.1 113.8 736.39 112.92 737.45 111.93 739.26 110.82 741.05 110.22 742.81 110.14 744.05 109.84 744.74 109.31 744.5 108.89 743.31 108.57 742.42 107.88 741.8 106.8 741.6 105.57 741.8 104.18 742.56 102.81 743.87 101.48 744.28 100.48 743.81 99.85 744.36 99.63 745.97 99.81 747.09 99.63 747.72 99.09 747.64 99.09 747.64 99.09"/>
      <path id="US-MN" class="cls-1" d="M586.45,21.55l2.25-.34,1.93.1,1.93.16,1.03.24,2.98,1.23,1.95,1.01,2.8,1.89,1.55.83.74,1.95.87,2.5h1.23l.93-1.47,2.36-.26,3.12,1.03,2.74,2.92,3.95,2.6,2.4,1.29h2.44l3.12-1.29,3.32-2.48,2.38-.44,1.41.24.79,1.95.99.74,2.56-.22,5.37.38,4.27-.54.97,1.11.87,1.75,1.73.56,2.35-.56,3.7.38-.52.28-.54-.06-.72.42-.89.89-2.05,1.27-3.2,1.67-3.7,1.51-7.49,2.74-4.67,2.84-2.07,1.71-8.03,8.51-4.85,4.51-7.85,6.32-.74.79-.06.74-.34-.02-1.29,1.53-.56.97-1.27.28v15.58l-.62.4-.78.91-1.07.22-5.05,3.18-.83.91-.91,2.13-1.65,2.38-.42,1.27.08,1.71,2.52,1.37.93,1.31.46,1.61-.06,1.39-1.27,2.72-.22,1.09.14,3.32-.64,1.03.52,2.68.04.93-.4,2.94-.28.85.5,1.53.06.16,2.36,2.11,1.99,1.17,1.79.38,1.39.89,1.01,1.43,1.35.93,1.71.44,1.75,1.19,2.66,2.9,1.33,2.46,2.33,1.75,3.78,1.87,2.46,1.65,1.17,1.41.78,3.6.62,7.59-6.18.02h-91.22v-46.86l-1.43-1.97-3.12-1.59-.78-.95-1.45-2.38-.58-1.01-.1-.79.7-.89,2.82-2.58.89-1.19.44-1.15.66-2.66-.26-2.05.18-3.2-.58-2.4-.12-1.19-.36-1.49-2.13-3.93-.52-3.18-.54-1.57-.18-4.05.06-1.15.42-2.21-.89-1.49-.14-1.23-.42-9.74-.28-1.39.08-4.53-1.63-4.79-.78-1.63-.4-1.99.04-.95-1.33-3.28-.89-3.64.08-3.16-.28-2.38.1-1.87-.24-2.8.28-1.59.02-2.48-1.83-8.84h34.16l4.41.04.08-6.02.06-4.77,4.03.58,1.21.87.38.42-.12,1.31.34,3.97.74,3.32,1.69,3.95v.02l.14,1.55.56.97,1.01.89,3.88,1.09,6.72,1.27,3.82,1.45.89,1.65,1.79.66,2.68-.32,1.89-.7,1.73-1.57h0ZM586.45,21.55h-.08.08Z"/>
      <path id="US-OH" class="cls-1" d="M827.02,230.83l-2.21,1.07-.42.99.68,1.25.36,1.63.04,1.99-1.23,4.37-2.54,6.72-1.27,4.21-.04,1.73-1.67,2.25-3.3,2.78-2.31,1.67-1.31.58-1.11-.04-.87-.68-.99.46-1.11,1.59-1.01.81-.95.04-.81,1.03-.68,1.99-.64,1.15-.6.3-.04,1.01.5,1.71-.04.62-.28.02-.26-.1-.66.38-.72.95-.28.02-.2-.16-.2-1.25-.6-.87-.95-.52-1.33,1.15-1.71,2.82-.74,1.83.28,1.27.16,1.85-.44.76-.91.28-.74,1.01-.5,1.71-1.29,1.09-2.07.46-2.17-.79-.16-.06-2.56-2.15-1.61-2.07-.68-1.97-2.23-.1-3.82,1.81-2.86.26-1.95-1.23-1.45-.5-1.45.42-1.39.79-1.15-.48-1.43-1.47-2.25-1.03-3.08-.58-2.15-1.61-1.17-2.6-1.27-1.81-1.33-.99-1.49-.28-1.59.4-1.23-.2-.87-.83-1.11.1-1.03.79.02-7.99.08-7.87.06-7.89.06-7.95.06-7.99.06-8.01.08-8.07.06-8.11,6.22-.24,6.24-.22,6.22-.26,6.24-.22.18-.16-.04.08.26.44,1.69.28,1.15.52.89.78,3.26,1.53.99.93.97.52.99.1.66-.3.38-.68.46-.06.56.6,1.83.66.06.2-5.07,1.13-1.05.54,1.27.36,1.27-.08,1.29-.54,1.49.02,1.29.26.42-.22.16-.12,2.21,1.49.83.24.85-.18.89-.56,1.95-.74,3.02-.89,2.9-.38,2.78.18,1.77-.26,1.61-.93,3.56-3.06,4.07-2.46,6.74-3.08,6.52-2.4v30.7l.02,2.6Z"/>
      <polygon class="cls-1" points="642.02 77.53 641.92 77.75 642.3 78.74 643.25 78.48 643.67 79.08 644.24 79.34 645.32 79.81 645.83 80.95 646.35 82.08 646.87 83.21 647.38 84.35 649.73 85 652.07 85.66 654.42 86.31 656.76 86.97 659.11 87.62 661.45 88.28 663.8 88.94 666.14 89.59 667.45 90.35 668.77 91.1 670.08 91.86 671.39 92.61 673.46 92.75 675.28 93.21 677.85 93.23 680.43 93.81 684.23 95.06 685.12 96.13 685.28 96.85 684.9 98.52 688.52 100.01 690.07 101.12 690.65 101.97 690.55 102.75 690.9 104.38 690.53 105.25 690.53 106.78 689.71 108.39 689.43 109.27 689.41 110 689.59 110.48 690.03 110.66 691.4 110.56 692.75 110.06 693.35 110.36 693.47 110.62 693.37 111.05 692.28 113.78 692.32 114.87 692.77 115.94 693.53 116.98 694.42 117.33 694.38 118.01 694.02 119.34 692.97 120.4 690.23 121.73 689.79 122.62 689.73 123.36 687.96 126.42 687.09 128.28 686.51 130.23 686.69 131.46 687.63 131.96 688.38 131.76 688.96 130.87 689.83 130.07 691.02 129.36 691.9 128.3 693.11 125.72 694.46 124.23 695.18 124.15 695.38 124.19 696.79 123.52 697.92 123.73 698.6 124.75 699.29 125.44 699.45 126.1 699.09 127.55 698.46 129.08 697.52 130.69 696.67 133.09 695.91 136.31 695.75 138.74 696.19 140.37 695.77 141.82 694.5 143.09 693.47 144.8 692.69 146.95 692.26 148.73 692.16 150.19 692.28 151.28 692.75 152.75 692.71 153.48 691.32 156.7 690.82 158.27 690.75 159.51 690.41 160.72 689.35 163.18 689.02 164.55 688.96 165.81 689.19 167.85 689.06 168.55 689.12 169.06 689.37 169.42 689.37 170.06 689.1 170.99 689.19 171.73 689.67 172.24 689.99 173.24 690.13 174.71 690.49 175.92 691.08 176.89 691.18 178.31 690.8 180.15 690.61 183.63 690.61 184.78 688.22 184.76 679.79 184.7 671.37 184.64 662.94 184.58 654.52 184.53 646.09 184.47 637.49 184.41 637.37 184.21 636.79 181.94 634.9 180.25 631.7 179.16 629.66 177.43 628.76 175.07 628.18 172.4 627.95 169.44 628.2 166.96 628.96 164.95 628.76 163.6 627.61 162.88 626.85 161.95 626.5 160.8 626.36 159.21 625.74 151.62 624.97 148.02 623.79 146.61 621.33 144.96 617.55 143.09 615.23 141.34 613.9 138.88 611.23 135.98 609.48 134.78 607.77 134.35 606.42 133.41 605.41 131.98 604.02 131.09 602.23 130.71 600.24 129.54 597.88 127.43 597.82 127.27 597.32 125.74 597.6 124.89 598 121.94 597.96 121.01 597.44 118.33 598.08 117.29 597.94 113.98 598.16 112.88 599.43 110.16 599.49 108.77 599.03 107.16 598.1 105.85 595.57 104.48 595.49 102.77 595.91 101.5 597.56 99.11 598.47 96.98 599.31 96.07 604.36 92.89 605.43 92.67 606.21 91.76 606.82 91.36 606.82 87.49 606.82 83.59 606.82 79.69 606.82 75.78 608.09 75.5 608.65 74.53 609.94 73 610.28 73.02 610.28 73.04 610.92 73.73 612.5 74.75 613.76 74.87 615.35 74.65 621.65 72.9 624.31 71.69 626.91 69.64 627.17 69.58 628.26 69.96 628.6 70.14 632 67.79 633.11 67.49 633.99 67.55 635.08 68.47 635.34 69.02 634.98 70.1 634.01 71.69 633.53 73.02 633.55 74.11 633.13 75.28 632.06 76.87 632.44 77.31 635.3 76.16 635.72 75.72 635.76 75.46 635.58 75.14 635.92 75 638.16 76.57 639.67 77.45 640.92 77.87 642.02 77.53 642.02 77.53"/>
    </g>
  </g>
</svg>