<?xml version="1.0" encoding="UTF-8"?>
<svg id="Layer_2" data-name="Layer 2" xmlns="http://www.w3.org/2000/svg" viewBox="0 0 289.08 117.56">
  <defs>
    <style>
      .cls-1 {
        fill: #292929;
      }

      .cls-2 {
        fill: #fff;
      }

      .cls-3 {
        stroke-width: .28px;
      }

      .cls-3, .cls-4 {
        fill: none;
        stroke: #fff;
        stroke-miterlimit: 10;
      }

      .cls-4 {
        stroke-width: 1.02px;
      }
    </style>
  </defs>
  <g id="Layer_1-2" data-name="Layer 1">
    <rect class="cls-1" y=".1" width="289.08" height="117.36"/>
    <g>
      <path class="cls-2" d="M16.46,12.29h12.72c15.2,0,26.68,10.96,26.68,25.58s-11.47,25.58-26.68,25.58h-12.72V12.29ZM29.33,57.82c10.82,0,20.47-9.5,20.47-19.95s-9.53-19.51-20.34-19.51h-6.54v39.45h6.41Z"/>
      <path class="cls-2" d="M195.14,12.29l-22.3,51.16-21.49-51.16h6.55l15.01,34.42,15.3-34.42h6.93Z"/>
      <path class="cls-2" d="M227.34,57.62v5.83h-27.33l.16-51.16h26.95l.06,5.8-21.37-.02-.04,14.43,20.7-.05v5.7s-20.58.18-20.58.18v19.2s21.44.09,21.44.09Z"/>
      <path class="cls-2" d="M238.57,63.45h-6.37V12.29h19.45s13.9.85,13.86,12.38c-.04,13.67-11.7,14.76-11.7,14.76l18.75,24.02h-7.14l-22.89-28.93,9.16.04s4.33.19,6.63-3.17c1.25-1.64,1.97-2.9,1.97-6.74,0-2.28-1.67-4.55-2.98-5.53-1.79-1.34-4.27-1.65-5.74-1.65h-13.02l.03,45.96Z"/>
      <path class="cls-2" d="M84.39,50.87l-20.71.06-5.08,12.51h-6.45l22.25-51.16,22.5,51.16h-6.5l-6.01-12.58ZM82.17,45.1l-7.77-18.12-7.77,18.12h15.53Z"/>
      <path class="cls-2" d="M146.19,63.06l-38.06-34.93-.17,35.32h-6.39l.17-51.16,38,35.34.06-34.98h6.39v50.4Z"/>
    </g>
    <rect class="cls-4" x=".51" y=".51" width="288" height="74.71"/>
    <g>
      <path class="cls-2" d="M.51,104.79c.23-.01.46-.04.7-.04,44.29,0,88.57,0,132.86,0,.09,0,.19,0,.28,0,.38.01.44.07.43.43,0,.37-.05.41-.44.42-.09,0-.19,0-.28,0-44.29,0-88.57,0-132.86,0-.23,0-.46-.05-.69-.07v-.74Z"/>
      <path class="cls-2" d="M.51,90.78c1.2-.06,2.41-.14,3.59.21,2.08.61,2.75,3.22,1.21,4.72-.29.28-.28.28.07.44,1.14.52,1.73,1.43,1.79,2.65.06,1.22-.46,2.18-1.56,2.73-.53.26-1.14.44-1.72.48-1.12.07-2.26.01-3.38,0v-11.22ZM1.97,98.81c0,.54,0,1.08,0,1.62,0,.21.06.38.31.37.71-.05,1.43-.05,2.12-.2.85-.19,1.32-.85,1.34-1.67.03-.9-.36-1.47-1.23-1.8-.73-.28-1.49-.24-2.25-.23-.25,0-.29.17-.29.38,0,.51,0,1.02,0,1.53ZM4.78,93.87c0-.9-.31-1.48-1.06-1.7-.45-.14-.94-.14-1.42-.18-.24-.02-.32.13-.32.35,0,1.02,0,2.04,0,3.06,0,.23.11.34.34.34.28,0,.56,0,.83-.04,1.09-.13,1.62-.73,1.63-1.82Z"/>
      <path class="cls-2" d="M.51,112.49c.11-.34.21-.67.32-1.01.64-1.93,2.58-3.09,4.69-2.82,1.91.24,3.21,1.29,3.69,3.16.72,2.8-1.07,5.31-3.8,5.53-2.19.17-3.76-.98-4.4-2.37-.14-.31-.22-.64-.33-.96-.05-.14-.11-.28-.17-.42,0-.37,0-.74,0-1.11ZM8.06,113.03c0-1.89-1.27-3.21-3.09-3.21-1.58,0-3.09,1.06-3.09,3.17,0,1.93,1.24,3.18,3.08,3.19,2.12.01,3.14-1.62,3.1-3.15Z"/>
      <path class="cls-2" d="M33.16,90.74c.09,0,.19.01.28,0,.34-.05.5.11.62.41.55,1.43,1.11,2.85,1.67,4.27.37.95.74,1.9,1.12,2.85.04.11.13.19.2.29.08-.1.18-.19.22-.3.92-2.38,1.83-4.76,2.75-7.13.03-.09.06-.18.11-.26.04-.08.1-.14.15-.21.05.07.12.14.15.22.46,1.18.91,2.36,1.37,3.55.5,1.3.99,2.6,1.49,3.89.04.1.14.18.21.27.06-.09.15-.18.19-.28.92-2.34,1.84-4.69,2.76-7.03.2-.52.2-.52.77-.52.2,0,.4,0,.6,0,.3,0,.34.12.24.38-.33.81-.66,1.63-.98,2.45-1.09,2.73-2.18,5.45-3.27,8.18-.08.2-.21.39-.31.59-.11-.2-.24-.38-.32-.59-.89-2.31-1.78-4.61-2.67-6.92-.02-.04-.03-.09-.05-.13-.06-.08-.13-.16-.19-.23-.06.08-.14.16-.17.25-.59,1.53-1.18,3.05-1.77,4.58-.35.91-.7,1.82-1.06,2.72-.05.12-.14.21-.21.32-.06-.1-.14-.19-.18-.3-.97-2.42-1.95-4.84-2.92-7.27-.46-1.15-.91-2.3-1.37-3.45-.23-.57-.23-.57.4-.57.06,0,.12,0,.19,0h0Z"/>
      <path class="cls-2" d="M51.05,96.12c0-1.81,0-3.62,0-5.42,0-.11.05-.23.07-.34.1.06.22.1.3.19,1.49,1.55,2.97,3.11,4.45,4.66,1.13,1.19,2.26,2.37,3.4,3.56.06.06.16.08.23.12.03-.08.08-.15.1-.23.02-.07,0-.15,0-.23,0-2.4,0-4.79,0-7.19,0-.48.02-.5.5-.49,1,.01.9-.12.9.89,0,3.41,0,6.83,0,10.24,0,.15-.07.31-.1.46-.12-.09-.25-.17-.35-.28-2.56-2.67-5.11-5.34-7.67-8.01-.06-.07-.12-.14-.19-.2-.13-.11-.2-.04-.21.1-.01.08,0,.15,0,.23,0,2.46,0,4.91,0,7.37,0,.48,0,.5-.49.5-1.12,0-.92.04-.92-.91,0-1.67,0-3.34,0-5.01h0Z"/>
      <path class="cls-2" d="M19.09,96.4c-.01-3.15,2.65-5.81,5.73-5.91,3.36-.12,6.2,2.61,6.2,5.91,0,3.23-2.59,5.84-5.76,5.91-3.47.08-6.17-2.53-6.18-5.91ZM29.57,96.41c.08-2.49-1.93-4.61-4.45-4.6-2.63.01-4.59,1.98-4.59,4.62,0,2.47,2.06,4.53,4.52,4.53,2.52,0,4.53-2.02,4.53-4.55Z"/>
      <path class="cls-2" d="M82.7,102.29c-3.32,0-5.91-2.57-5.91-5.86,0-3.28,2.62-5.86,5.87-5.94,3.12-.08,6.13,2.6,6.03,6.11-.09,3.01-2.57,5.76-5.99,5.69ZM78.2,96.48c.12,2.65,2.23,4.63,4.81,4.49,2.37-.13,4.37-2.15,4.27-4.73-.11-2.7-2.16-4.53-4.88-4.41-2.33.1-4.3,2.29-4.19,4.66Z"/>
      <path class="cls-2" d="M124.78,96.12c0-1.79,0-3.59,0-5.38,0-.08,0-.16,0-.23.02-.19.12-.2.24-.09.16.15.31.31.46.46,1.29,1.35,2.59,2.71,3.88,4.06,1.19,1.24,2.38,2.48,3.56,3.72.05.06.1.15.16.16.07.01.21-.03.22-.07.04-.11.02-.24.02-.37,0-2.36,0-4.73,0-7.09,0-.54,0-.55.54-.55.97,0,.86-.11.86.87,0,3.43,0,6.86,0,10.29,0,.03,0,.06,0,.09-.03.11-.05.22-.08.34-.1-.06-.22-.11-.29-.19-1.19-1.24-2.37-2.48-3.56-3.72-1.42-1.49-2.84-2.98-4.26-4.46-.06-.07-.18-.09-.26-.13-.03.1-.07.2-.07.3,0,1.5,0,3,0,4.5,0,.99,0,1.98,0,2.97,0,.42-.03.45-.45.45-1.14,0-.95.09-.95-.92,0-1.67,0-3.34,0-5.01h0Z"/>
      <path class="cls-2" d="M101.5,96.35c0-1.71,0-3.43,0-5.14,0-.46,0-.47.47-.46,1.05.02,2.11,0,3.16.07,1.23.1,2.35.56,3.31,1.33,1.2.97,1.71,2.28,1.81,3.77.07,1.12-.09,2.23-.63,3.23-.84,1.58-2.25,2.38-3.94,2.73-1.29.27-2.59.12-3.89.16-.19,0-.29-.08-.28-.28,0-.08,0-.15,0-.23,0-1.73,0-3.46,0-5.19ZM102.94,96.37c0,1.28,0,2.56,0,3.84,0,.55,0,.58.58.55.54-.02,1.09-.05,1.61-.15,2.08-.4,3.56-1.53,3.69-3.92.1-1.99-.65-3.45-2.56-4.22-.9-.36-1.86-.46-2.82-.45-.47,0-.49.03-.49.51,0,1.28,0,2.56,0,3.84Z"/>
      <path class="cls-2" d="M91.57,96.35c0-1.72,0-3.43,0-5.15,0-.46,0-.47.47-.46.96.01,1.93-.02,2.88.07,1.44.14,2.41.92,2.78,2.34.42,1.6-.43,3.41-2.1,3.86-.47.13-.48.15-.18.57.98,1.35,1.97,2.7,2.94,4.06.07.09.1.21.14.32-.11.03-.22.07-.34.08-.12.01-.25,0-.37,0-1.07-.02-.75.17-1.41-.75-.87-1.21-1.7-2.43-2.55-3.65-.05-.08-.09-.19-.16-.22-.15-.07-.33-.15-.49-.14-.07,0-.16.24-.16.37-.01,1.16,0,2.32,0,3.48,0,.19,0,.37,0,.56.01.23-.08.35-.32.35-.02,0-.03,0-.05,0-1.32-.02-1.06.2-1.08-1.01-.02-1.56,0-3.12,0-4.68ZM93.01,94.01h0c0,.57,0,1.14,0,1.72,0,.25.1.39.36.36.58-.06,1.18-.08,1.74-.22.89-.24,1.34-.91,1.35-1.83,0-.9-.46-1.57-1.36-1.81-.55-.15-1.13-.17-1.69-.25-.3-.04-.41.12-.4.41.01.54,0,1.08,0,1.62Z"/>
      <path class="cls-2" d="M10.43,96.36c0-1.7,0-3.4,0-5.1,0-.52,0-.53.51-.52.94.01,1.89-.02,2.83.07,1.43.14,2.4.91,2.77,2.35.42,1.61-.44,3.45-2.14,3.87-.41.1-.42.16-.15.53.99,1.36,1.98,2.73,2.97,4.09.07.09.1.21.15.31-.11.03-.23.06-.34.08-.92.17-1.5-.18-1.99-.99-.71-1.18-1.56-2.27-2.34-3.4-.06-.09-.11-.21-.2-.25-.14-.07-.32-.15-.46-.12-.08.02-.17.24-.17.37-.01,1.3,0,2.6,0,3.9,0,.5,0,.5-.52.5-1.09,0-.92.08-.92-.91,0-1.59,0-3.18,0-4.78ZM11.88,94.05c0,.56,0,1.11,0,1.67,0,.2.01.37.28.38.7.01,1.39-.04,2.05-.31.78-.32,1.13-.93,1.1-1.85-.02-.81-.44-1.46-1.22-1.67-.59-.16-1.21-.2-1.82-.29-.31-.04-.41.11-.4.41.01.55,0,1.11,0,1.67Z"/>
      <path class="cls-2" d="M116.84,99.21c-.71,0-1.43,0-2.14,0-.3,0-.48.09-.6.39-.29.68-.62,1.35-.91,2.03-.13.31-.32.47-.67.43-.23-.02-.46,0-.7,0-.33-.02-.35-.08-.2-.42.37-.81.75-1.63,1.12-2.44,1.27-2.76,2.54-5.53,3.81-8.29.08-.17.2-.33.3-.5.11.16.23.31.31.48,1.39,3.02,2.77,6.04,4.15,9.06.26.57.54,1.15.8,1.72.16.34.12.4-.26.39-1.31-.03-.98.23-1.53-.94-.23-.47-.46-.95-.65-1.44-.14-.36-.36-.48-.74-.47-.7.03-1.39,0-2.09,0ZM116.86,97.93c.53,0,1.05,0,1.58,0,.36,0,.41-.09.26-.42-.54-1.23-1.08-2.46-1.62-3.69-.04-.09-.13-.15-.2-.22-.07.07-.16.14-.2.22-.55,1.24-1.11,2.48-1.65,3.72-.14.32-.1.38.25.39.53.01,1.05,0,1.58,0Z"/>
      <path class="cls-2" d="M118.65,112.71c0-1.33,0-2.66,0-3.99,0-.12.04-.23.06-.35.11.07.23.12.32.21,1.76,1.83,3.51,3.66,5.27,5.49.01.01.02.02.03.03.13.1.27.19.4.29.03-.16.09-.31.09-.47,0-1.53,0-3.06,0-4.59,0-.54.01-.55.55-.55q.73,0,.73.73c0,2.53,0,5.07,0,7.6,0,.08.01.16,0,.23-.01.07-.04.14-.07.21-.08-.03-.17-.05-.23-.11-.36-.36-.7-.74-1.06-1.11-1.46-1.53-2.92-3.07-4.39-4.59-.08-.08-.2-.12-.3-.18-.03.11-.08.23-.08.34,0,1.61,0,3.21,0,4.82,0,.48,0,.49-.49.5-.94,0-.83.04-.83-.81,0-1.24,0-2.47,0-3.71Z"/>
      <path class="cls-2" d="M41.94,108.63c2.4,0,4.4,1.71,4.38,4.41-.02,2.58-1.86,4.32-4.4,4.34-2.55.02-4.4-1.85-4.39-4.39,0-2.54,1.85-4.36,4.42-4.36ZM45.01,113c.03-.82-.22-1.56-.78-2.17-.9-.99-2.31-1.29-3.53-.78-1.2.5-1.93,1.7-1.88,3.08.08,1.95,1.49,3.15,3.26,3.05,1.81-.1,2.93-1.38,2.93-3.18Z"/>
      <path class="cls-2" d="M57.59,113.04c0,2.49-1.87,4.36-4.41,4.34-2.82-.02-4.44-2.16-4.39-4.51.06-2.43,1.93-4.25,4.46-4.25,2.49,0,4.34,1.89,4.33,4.41ZM53.19,109.82c-1.79,0-3.1,1.34-3.1,3.17,0,1.86,1.24,3.18,3.13,3.2,1.74.02,3.08-1.37,3.09-3.16.01-1.83-1.33-3.21-3.12-3.21Z"/>
      <path class="cls-2" d="M28.5,113.01c0-1.24,0-2.47,0-3.71,0-.48.03-.52.49-.51.87.02,1.74,0,2.6.09,1.91.19,3.26,1.81,3.42,3.6.18,2-.67,3.57-2.41,4.34-.43.19-.92.3-1.39.34-.75.07-1.52.06-2.28.06-.41,0-.44-.04-.44-.46,0-1.25,0-2.5,0-3.76ZM29.8,112.98c0,.43,0,.87,0,1.3,0,.43,0,.87,0,1.3,0,.29.1.45.4.42.51-.05,1.03-.05,1.52-.17,1.11-.29,1.93-1.35,2.02-2.52.1-1.3-.5-2.45-1.57-2.96-.62-.3-1.27-.36-1.95-.35-.33,0-.43.13-.43.44.01.85,0,1.7,0,2.55Z"/>
      <path class="cls-2" d="M101.59,113.02c0-1.24,0-2.47,0-3.71,0-.51.02-.52.52-.53q.77,0,.77.74c0,.71,0,1.42,0,2.13,0,.41.04.46.45.46.9,0,1.8,0,2.7,0,.32,0,.44-.11.44-.43-.01-.82,0-1.64,0-2.46,0-.42.02-.45.45-.45.94,0,.9-.12.9.85,0,2.35,0,4.7,0,7.05,0,.53-.01.54-.55.54-.98,0-.78,0-.79-.8,0-.88,0-1.76,0-2.64,0-.45-.02-.47-.47-.47-.88,0-1.77,0-2.65,0-.41,0-.45.04-.45.46,0,.99,0,1.98,0,2.97,0,.45-.02.48-.46.48-.94,0-.83.03-.83-.82,0-1.13,0-2.26,0-3.38Z"/>
      <path class="cls-2" d="M60.48,112.99c0-1.24,0-2.47,0-3.71,0-.49.02-.51.49-.5.74.02,1.49,0,2.22.1,1.15.16,1.87.94,2.02,2.05.15,1.15-.39,2.1-1.48,2.55-.31.13-.27.26-.11.48.69.93,1.37,1.87,2.05,2.81.08.11.12.23.18.35-.13.03-.25.1-.38.09-1.25-.02-.9.2-1.64-.84-.54-.75-1.07-1.52-1.6-2.27-.05-.08-.1-.16-.17-.22-.14-.13-.26-.1-.29.09-.02.12-.01.25-.01.37,0,.82,0,1.64,0,2.46,0,.29-.08.43-.39.42-1.02,0-.89.07-.89-.85,0-1.13,0-2.26,0-3.38ZM61.76,111.29c0,.14,0,.28,0,.42,0,.98.12,1.08,1.1.87.07-.02.15-.04.22-.07.61-.23.91-.65.9-1.26,0-.59-.29-.96-.94-1.16-.27-.08-.58-.08-.87-.12-.29-.03-.43.09-.42.39.01.31,0,.62,0,.92Z"/>
      <path class="cls-2" d="M72.74,112.98c0-1.24,0-2.47,0-3.71,0-.45.03-.47.47-.48q.82-.01.82.79c0,.66,0,1.33,0,1.99,0,.11.06.23.09.34.1-.06.21-.1.29-.18.85-.86,1.69-1.72,2.52-2.6.25-.26.51-.38.86-.35.23.02.46,0,.7,0,.1,0,.2.05.3.07-.05.1-.1.21-.16.3-.05.07-.13.13-.2.2-.97.97-1.95,1.94-2.92,2.92-.32.32-.32.32-.02.67,1.09,1.31,2.18,2.61,3.27,3.92.06.08.09.18.13.27-.1.03-.19.06-.29.09-.01,0-.03,0-.05,0q-1.25.03-2-.93c-.65-.82-1.31-1.64-1.98-2.46-.09-.1-.24-.15-.36-.23-.06.13-.16.27-.17.4-.01.91,0,1.82,0,2.74,0,.45-.02.47-.47.47-1.02.01-.81-.01-.82-.82,0-1.14,0-2.29,0-3.43h0Z"/>
      <path class="cls-2" d="M12.27,111.87c0-.87,0-1.73,0-2.6,0-.46.02-.49.46-.49.88,0,.83-.1.83.82,0,1.5,0,3,0,4.5,0,.65.14,1.27.71,1.69.58.43,1.22.53,1.88.22.67-.32,1.05-.87,1.06-1.61.03-1.62.02-3.24.03-4.87,0-.12,0-.25,0-.37-.02-.28.12-.38.39-.38,1,.01.9-.08.9.85,0,1.51,0,3.03,0,4.54,0,.94-.25,1.78-.98,2.41-1.07.92-2.31,1.04-3.56.49-1.18-.52-1.71-1.51-1.71-2.79,0-.8,0-1.61,0-2.41Z"/>
      <path class="cls-2" d="M111.09,112.99c0-1.22,0-2.44,0-3.66,0-.53.01-.54.55-.54,1.19,0,2.39,0,3.58,0,.52,0,.53,0,.53.51,0,.73.13.7-.69.7-.76,0-1.52.01-2.28,0-.33,0-.43.14-.42.45.01.42.02.84,0,1.25-.02.34.13.43.44.43.77,0,1.55,0,2.32,0,.52,0,.53.01.53.51,0,.68.14.73-.73.72-.68,0-1.36,0-2.05,0-.48,0-.51.04-.51.49,0,.57.01,1.14,0,1.72-.01.33.12.44.43.44.84-.01,1.67,0,2.51,0,.42,0,.45.03.45.45,0,.79.14.79-.76.79-1.1,0-2.2,0-3.3,0q-.6,0-.6-.58c0-1.22,0-2.44,0-3.66Z"/>
      <path class="cls-2" d="M131.73,108.6c.9.02,1.63.34,2.16,1.09.17.24.19.41-.1.55-.06.03-.11.06-.16.1q-.49.29-.89-.12c-.44-.45-1.19-.54-1.71-.2-.57.37-.64,1.06-.11,1.48.26.21.59.34.89.48.42.2.86.36,1.26.58,1,.57,1.44,1.62,1.19,2.72-.27,1.19-1.1,1.94-2.27,2.05-1.57.15-2.68-.59-3.04-2.02-.09-.36-.05-.44.31-.52.02,0,.03,0,.05,0,.24-.04.53-.19.71-.1.17.08.22.41.31.63.23.53.76.89,1.32.87.56-.01,1.08-.37,1.27-.87.22-.61.09-1.19-.41-1.58-.26-.2-.59-.33-.89-.48-.48-.24-1-.44-1.44-.73-.7-.47-1.01-1.16-.87-2.01.15-.91.7-1.49,1.57-1.77.28-.09.58-.11.86-.16Z"/>
      <path class="cls-2" d="M92.05,113c.03-1.8.75-3.22,2.44-3.98,1.26-.57,2.58-.57,3.87.02.26.12.38.28.36.57-.02.23,0,.46,0,.69,0,.1-.04.2-.07.3-.09-.04-.2-.05-.28-.11-.48-.36-1.01-.6-1.61-.65-2.06-.17-3.62,1.44-3.4,3.5.17,1.61,1.24,2.7,2.86,2.85.77.07,1.46-.19,2.09-.63.1-.07.24-.1.36-.15.02.12.04.23.05.35,0,.11,0,.22,0,.32,0,.75-.02.79-.72,1.03-2.25.78-4.6-.13-5.56-2.16-.26-.55-.38-1.14-.38-1.94Z"/>
      <path class="cls-2" d="M72.69,95.08c0-1.27,0-2.53,0-3.8,0-.53,0-.54.55-.54.99,0,.86-.1.86.87,0,2.43,0,4.85-.03,7.28,0,.56-.16,1.13-.34,1.67-.31.94-1,1.52-1.98,1.69-.7.12-1.39.08-2.05-.2-.43-.18-.45-.25-.23-.64.03-.05.06-.11.09-.16.12-.18.2-.45.36-.52.15-.06.39.09.59.15.95.3,1.74-.09,1.97-1.05.14-.56.18-1.16.2-1.74.03-1,0-2.01,0-3.01h0Z"/>
      <path class="cls-2" d="M87.04,113.65c0-1.07,0-2.13,0-3.2,0-.42-.03-.45-.45-.45-.39,0-.77,0-1.16,0-.21,0-.29-.09-.31-.3-.06-.89-.06-.9.84-.9,1.27,0,2.54,0,3.81,0,.49,0,.51.01.51.48,0,.77.12.72-.72.72-.29,0-.59,0-.88,0-.21,0-.32.1-.31.31,0,.12,0,.25,0,.37,0,2.01,0,4.02,0,6.03,0,.51-.01.52-.52.53-.94,0-.8,0-.8-.8,0-.93,0-1.85,0-2.78Z"/>
      <path class="cls-2" d="M24.18,113.62c0,1.05,0,2.1,0,3.15,0,.44,0,.46-.42.46-1.05,0-.9.06-.91-.88,0-1.93,0-3.86,0-5.79,0-.56,0-.56-.57-.57-.34,0-.68,0-1.02,0-.23,0-.34-.07-.34-.32,0-1.06-.05-.89.85-.89,1.28,0,2.57,0,3.85,0,.45,0,.47.03.48.47q.02.73-.71.74c-.26,0-.53.01-.79,0-.32-.02-.43.11-.43.43.01,1.06,0,2.13,0,3.2h0Z"/>
      <path class="cls-2" d="M82.73,113.04c0,1.24,0,2.47,0,3.71,0,.46,0,.47-.47.47-.89,0-.82.08-.82-.78,0-2.37,0-4.73,0-7.1,0-.56,0-.56.56-.57.03,0,.06,0,.09,0q.63,0,.63.64c0,1.21,0,2.41,0,3.62Z"/>
    </g>
    <g>
      <path class="cls-2" d="M249.62,107.57v-4.49h-1.23v-.57h.55c.54,0,.73-.11.73-.78v-.88h.69v1.64h2.03v.59h-2.03v4.55c0,.85.3,1.35,1.09,1.35.39,0,.72-.12,1.04-.3l.18.54c-.42.23-.88.35-1.38.35-1.28,0-1.68-.73-1.68-2.01Z"/>
      <path class="cls-2" d="M246.4,100.52c0-.32.24-.57.58-.57s.57.24.57.57-.24.57-.57.57-.58-.24-.58-.57ZM246.6,102.56h.76v7.03h-.76v-7.03Z"/>
      <path class="cls-2" d="M267.17,105.3v4.28h-.81v-4.32c0-1.47-.75-2.23-2.04-2.23-1.14,0-1.9.59-2.3,1.59v4.96h-.82v-9.6h.82v3.66c.54-.84,1.39-1.23,2.49-1.23,1.65,0,2.65.91,2.65,2.88Z"/>
      <path class="cls-2" d="M282.23,105.3v4.28h-.81v-4.32c0-1.47-.73-2.23-2-2.23-1.12,0-1.87.59-2.26,1.62v4.93h-.79v-7.03h.75v1.18c.52-.89,1.38-1.31,2.49-1.31,1.64,0,2.62.91,2.62,2.88Z"/>
      <path class="cls-2" d="M275.07,106.1h-5.8c.07,1.85,1.23,2.89,2.82,2.89.73,0,1.54-.2,2.27-.78l.37.5c-.6.5-1.54.88-2.67.88-2.11,0-3.61-1.38-3.61-3.66s1.38-3.61,3.43-3.61,3.2,1.31,3.2,3.43c0,.12,0,.15-.01.35ZM274.3,105.54c-.01-1.64-.97-2.64-2.44-2.64s-2.51,1.04-2.6,2.64h5.03Z"/>
      <path class="cls-2" d="M283.81,108.98l.23-.57c.74.39,1.58.58,2.33.58,1.31,0,1.79-.58,1.79-1.31,0-.96-.65-1.18-1.93-1.54-1.19-.34-2.22-.68-2.22-1.97,0-1.16.87-1.82,2.46-1.82.75,0,1.52.12,2.17.41l-.2.57c-.67-.27-1.32-.39-1.98-.39-1.08,0-1.68.43-1.68,1.19,0,.95.91,1.15,2.05,1.49,1.35.39,2.09.76,2.09,2.03,0,1.18-.78,1.96-2.54,1.96-.88,0-1.83-.23-2.57-.61Z"/>
      <path class="cls-2" d="M240.68,104.37l-2.34,2.45v2.77h-.87v-9.6h.87v5.8l5.46-5.8h1.07l-3.63,3.78,4.14,5.81h-1.1l-3.61-5.22Z"/>
      <path class="cls-2" d="M253.29,105.96c0-2.18,1.53-3.64,3.85-3.64.96,0,1.87.26,2.53.69l-.37.51c-.61-.39-1.33-.59-2.13-.59-1.78,0-2.99,1.2-2.99,3.03s1.23,3.01,3.01,3.01c.8,0,1.53-.2,2.13-.58l.38.5c-.66.45-1.58.69-2.54.69-2.32,0-3.87-1.46-3.87-3.62Z"/>
      <path class="cls-2" d="M180.42,104.67c0-2.88,2.03-4.92,4.9-4.92s4.88,2.04,4.88,4.92-2.01,4.92-4.88,4.92-4.9-2.04-4.9-4.92ZM189.27,104.67c0-2.47-1.63-4.26-3.96-4.26s-3.98,1.78-3.98,4.26,1.63,4.26,3.98,4.26,3.96-1.78,3.96-4.26Z"/>
      <path class="cls-2" d="M197.25,102.42v7.03h-.72v-1.13c-.49.85-1.28,1.27-2.34,1.27-1.53,0-2.43-.91-2.43-2.88v-4.28h.74v4.32c0,1.47.69,2.22,1.88,2.22,1.07,0,1.77-.58,2.12-1.61v-4.93h.74Z"/>
      <path class="cls-2" d="M199.82,107.57v-4.49h-1.23v-.57h.55c.54,0,.73-.11.73-.78v-.88h.69v1.64h2.03v.59h-2.03v4.55c0,.85.3,1.35,1.09,1.35.39,0,.72-.12,1.04-.3l.18.54c-.42.23-.88.35-1.38.35-1.28,0-1.68-.73-1.68-2.01Z"/>
      <path class="cls-2" d="M210.56,99.87v9.6h-.83v-1.2c-.52.84-1.44,1.32-2.58,1.32-1.94,0-3.36-1.46-3.36-3.65s1.49-3.62,3.57-3.62c.99,0,1.78.3,2.35.86v-3.31h.85ZM209.71,107.67v-3.65c-.52-.7-1.29-1.09-2.28-1.09-1.69,0-2.79,1.26-2.79,2.99s1.08,3.08,2.76,3.08c1,0,1.84-.49,2.31-1.32Z"/>
      <path class="cls-2" d="M212.09,105.95c0-2.14,1.45-3.64,3.53-3.64s3.53,1.5,3.53,3.64-1.47,3.64-3.53,3.64-3.53-1.53-3.53-3.64ZM218.33,105.95c0-1.8-1.13-3.03-2.71-3.03s-2.71,1.23-2.71,3.03,1.11,3.03,2.71,3.03,2.71-1.23,2.71-3.03Z"/>
      <path class="cls-2" d="M220.44,105.95c0-2.14,1.45-3.64,3.53-3.64s3.53,1.5,3.53,3.64-1.47,3.64-3.53,3.64-3.53-1.53-3.53-3.64ZM226.69,105.95c0-1.8-1.13-3.03-2.71-3.03s-2.71,1.23-2.71,3.03,1.11,3.03,2.71,3.03,2.71-1.23,2.71-3.03Z"/>
      <path class="cls-2" d="M232.71,102.49v.66c-.16-.03-.32-.04-.5-.04-1.26,0-1.93.8-2.31,1.99v4.49h-.74v-7.03h.7v1.42c.49-1.05,1.3-1.54,2.32-1.54.19,0,.37.01.53.05Z"/>
      <polygon class="cls-2" points="148.64 100.42 146.19 100.42 146.19 98.32 154.1 98.32 154.1 100.42 151.42 100.42 151.42 108.79 148.64 108.79 148.64 100.42"/>
      <path class="cls-2" d="M157.88,101.21v1.64c-.16-.03-.32-.05-.5-.05-1.26,0-1.93.32-2.31,1.51v4.49h-2.72v-7.72h2.68v1.19c.49-1.05,1.3-1.16,2.32-1.16.19,0,.37.07.53.11Z"/>
      <polygon class="cls-2" points="165.68 108.79 168.91 108.79 176.17 101.21 172.82 101.21 165.68 108.79"/>
      <g>
        <line class="cls-3" x1="165.68" y1="101.35" x2="168.9" y2="101.35"/>
        <line class="cls-3" x1="166.57" y1="102.23" x2="169.79" y2="102.23"/>
        <line class="cls-3" x1="167.46" y1="103.11" x2="170.68" y2="103.11"/>
        <line class="cls-3" x1="168.35" y1="104" x2="171.57" y2="104"/>
      </g>
      <g>
        <line class="cls-3" x1="170.28" y1="106.02" x2="173.5" y2="106.02"/>
        <line class="cls-3" x1="171.17" y1="106.9" x2="174.39" y2="106.9"/>
        <line class="cls-3" x1="172.06" y1="107.78" x2="175.28" y2="107.78"/>
        <line class="cls-3" x1="172.95" y1="108.66" x2="176.17" y2="108.66"/>
      </g>
      <path class="cls-2" d="M166.41,105.35h-5.94c0,.39.16.9.48,1.23.39.39.93.45,1.32.45s.77-.06,1.03-.21c.04-.02.34-.19.56-.78h2.55c-.31,1.18-1.21,1.96-1.67,2.22-.77.42-1.62.53-2.51.53-1.19,0-2.25-.19-3.17-1.03-.7-.63-1.19-1.58-1.19-2.78,0-1.03.41-2.1,1.21-2.84.96-.87,2.16-1.03,3.05-1.03s2.18.15,3.16,1.08c.95.9,1.12,2.03,1.12,2.92v.24ZM164.04,103.97c-.02-.06-.14-.52-.52-.84-.29-.24-.7-.4-1.21-.4-.66,0-1.05.24-1.3.47-.2.19-.37.45-.45.78h3.48Z"/>
    </g>
  </g>
</svg>